PribingVahaarijaaSans.sfdir
StartChar: exclam
Encoding: 33 33 251
Width: 320
Flags: W
HStem: -40 58<123.626 199.57> 106 56<123.311 199.366>
VStem: 64 54<24.5129 100.513> 110 50<220 434.418> 205 51<22.701 99.5987>
LayerCount: 2
Fore
SplineSet
205 62 m 3xe8
 205 90 181 106 159 106 c 3
 135 106 118 87 118 61 c 3
 118 33 141 18 163 18 c 3
 187 18 205 36 205 62 c 3xe8
64 60 m 3
 64 122 106 162 163 162 c 3
 210 162 256 122 256 60 c 3
 256 -2 217 -40 160 -40 c 3xd8
 111 -40 64 -2 64 60 c 3
294 670 m 1
 198 553 160 430 160 220 c 1
 110 220 l 1
 110 416 136 558 220 680 c 1
 294 680 l 25
 294 670 l 1
EndSplineSet
Validated: 1
EndChar
StartChar: comma
Encoding: 44 44 250
Width: 320
Flags: W
HStem: -40 58<123.626 199.57> 106 56<123.311 199.366>
VStem: 64 54<24.5129 100.513> 205 51<22.701 99.5987>
LayerCount: 2
Fore
SplineSet
64 60 m 3
 64 122 106 162 163 162 c 3
 210 162 256 122 256 60 c 3
 256 -2 217 -40 160 -40 c 3
 111 -40 64 -2 64 60 c 3
205 62 m 3
 205 90 181 106 159 106 c 3
 135 106 118 87 118 61 c 3
 118 33 141 18 163 18 c 3
 187 18 205 36 205 62 c 3
EndSplineSet
Validated: 1
EndChar
StartChar: question
Encoding: 63 63 252
Width: 490
Flags: W
HStem: -40 58<193.626 269.57> 106 56<193.311 269.366> 614 66<128.131 315.43>
VStem: 134 54<24.5129 100.513> 181 60<220 309.235> 275 51<22.701 99.5987> 360 60<457.001 574.116>
LayerCount: 2
Fore
SplineSet
275 62 m 3xf6
 275 90 251 106 229 106 c 3
 205 106 188 87 188 61 c 3
 188 33 211 18 233 18 c 3
 257 18 275 36 275 62 c 3xf6
134 60 m 3
 134 122 176 162 233 162 c 3
 280 162 326 122 326 60 c 3
 326 -2 287 -40 230 -40 c 3
 181 -40 134 -2 134 60 c 3
55 632.430664062 m 1
 114.169921875 667.092773438 178.1953125 680 231 680 c 0
 320.978515625 680 420 624.051757812 420 522 c 0
 420 367.5390625 241 399.577148438 241 220 c 1
 181 220 l 1xee
 181 413.810546875 360 398.252929688 360 522 c 0
 360 581.9296875 292.28515625 614 231 614 c 0
 178.063476562 614 120.196289062 597.559570312 65 555.177734375 c 1
 55 555.177734375 l 25
 55 632.430664062 l 1
EndSplineSet
Validated: 1
EndChar
StartChar: H
Encoding: 72 72 1
Width: 300
Flags: W
HStem: 209 78<112 188>
VStem: 112 76<209 287>
LayerCount: 2
Back
SplineSet
118 -75 m 28
 204 -75 491 -75 530 -75 c 1028
239 -221 m 3
 160 -221 111 -144 111 -65 c 3
 111 12.0068359375 165 75 230 75 c 3
 297 75 366 19 366 -59 c 3
 366 -147 327 -221 239 -221 c 3
0 75 m 24
 86 75 191 75 230 75 c 1024
EndSplineSet
Fore
Refer: 181 65 N 1 0 0 1 0 0 2
Validated: 1
Substitution2: "tolower-1" h
EndChar
StartChar: J
Encoding: 74 74 3
Width: 300
Flags: W
HStem: 209 78<112 188>
VStem: 112 76<209 287>
LayerCount: 2
Back
SplineSet
0 416 m 29
 263 416 l 22
 323 416 359 387.239257812 359 342 c 7
 359 267 308 228 233 228 c 7
 140 228 74 317 74 414 c 7
 74 504.049804688 134 624 296 624 c 6
 450 624 l 1053
EndSplineSet
Fore
Refer: 181 65 N 1 0 0 1 0 0 2
Validated: 1
Substitution2: "tolower-1" j
EndChar
StartChar: R
Encoding: 82 82 2
Width: 300
Flags: W
HStem: 209 78<112 188>
VStem: 112 76<209 287>
LayerCount: 2
Back
SplineSet
610 416 m 29
 306 416 l 18
 174 416 92 334.018180316 92 224 c 3
 92 101 170 34 258 -30 c 1033
0 -5 m 24
 86 -5 181 -5 220 -5 c 1024
EndSplineSet
Fore
Refer: 181 65 N 1 0 0 1 0 0 2
Validated: 1
Substitution2: "tolower-1" r
EndChar
StartChar: V
Encoding: 86 86 0
Width: 300
Flags: W
HStem: 209 78<112 188>
VStem: 112 76<209 287>
LayerCount: 2
Back
SplineSet
309 609 m 17
 258 576 228 522 228 459 c 3
 228 377 314 333 396 333 c 27
 443 333 504 335 504 377 c 3
 504 408 447 411 408 411 c 27
 297 411 216 312 216 201 c 27
 216 99 312 30 414 30 c 27
 509 30 559 75 654 75 c 1055
165 609 m 25
 639 609 l 1049
EndSplineSet
Fore
Refer: 181 65 N 1 0 0 1 0 0 2
Validated: 1
Substitution2: "tolower-1" v
EndChar
StartChar: a
Encoding: 97 97 29
Width: 500
Flags: W
HStem: -33 66<283 427> 95 55<223 283> 414 66<178.963 318.168>
VStem: 71 60<211.377 365.041> 223 60<33 150> 369 60<207.63 364.09>
AnchorPoint: "below" 259 -40 basechar 0
AnchorPoint: "above" 250 481 basechar 0
LayerCount: 2
Fore
SplineSet
248 480 m 4
 337 480 429 416 429 290 c 4
 429 148 334 95 250 95 c 4
 165 95 71 159 71 286 c 4
 71 424 170 480 248 480 c 4
369 290 m 4
 369 359 322 414 247 414 c 4
 184 414 131 368 131 286 c 4
 131 211 186 161 251 161 c 4
 322 161 369 203 369 290 c 4
223 150 m 1
 283 150 l 1
 283 33 l 1
 427 33 l 1
 427 -33 l 1
 223 -33 l 1
 223 150 l 1
EndSplineSet
Validated: 5
Substitution2: "long-direct-1" a.mark.long
Substitution2: "long-base-1" uni0242
MultipleSubs2: "break-bowel-1" uni0242 a.mark
Substitution2: "vowel-1" a.mark
EndChar
StartChar: b
Encoding: 98 98 12
Width: 550
Flags: W
HStem: 187 66<291 517> 409 66<45 235.817>
VStem: 245 60<-40 187 253 398.131> 291 14<187 253>
AnchorPoint: "above" 175 481 basechar 0
AnchorPoint: "below" 274 -40 basechar 0
LayerCount: 2
Back
SplineSet
249 97 m 5
 218 156 l 5
 330 224 469 253 590 253 c 6
 750 253 l 5
 780 220 l 5
 750 187 l 5
 587 187 l 6
 499.754882812 187 362 180 249 97 c 5
397 510 m 4
 510 510 616 436 616 232 c 4
 616 2 507 -70 399 -70 c 4
 299 -70 181 5 181 220 c 4
 181 436 314 510 397 510 c 4
556 232 m 4
 556 369 495 444 396 444 c 4
 308 444 241 360 241 220 c 4
 241 67 320 -4 400 -4 c 4
 495 -4 556 67 556 232 c 4
0 187 m 5
 -30 220 l 5
 0 253 l 5
 203 253 197 510 397 510 c 5
 396 444 l 5
 225 444 248 187 0 187 c 5
EndSplineSet
Fore
SplineSet
45 409 m 1xe0
 45 475 l 1
 181 475 l 2
 272.16796875 475 305 428.963867188 305 346 c 2
 305 -40 l 1
 245 -40 l 1
 245 336 l 2
 245 394.166015625 231.81640625 409 171 409 c 2
 45 409 l 1xe0
291 187 m 5xd0
 291 253 l 5
 517 253 l 5
 517 187 l 5
 291 187 l 5xd0
EndSplineSet
Validated: 5
Substitution2: "fina-1" b.fina
Substitution2: "medi-1" b.medi
Substitution2: "init-1" b.init
EndChar
StartChar: c
Encoding: 99 99 20
Width: 510
Flags: W
HStem: -40 66<179.755 317.044> 409 66<86 358>
VStem: 78 60<66.3056 242.195> 92 64<138.78 243> 358 60<73.1137 409>
AnchorPoint: "below" 254 -40 basechar 0
AnchorPoint: "above" 245 481 basechar 0
LayerCount: 2
Back
SplineSet
86 442 m 5
 358 442 l 5
 358 179 l 5
 358 52 305 0 219 0 c 7
 140 0 88 55 88 116 c 7
 88 176 101 218 121 264 c 1029
EndSplineSet
Fore
SplineSet
156 243 m 25xd8
 156 233 l 1xd8
 147.40625 208 138 175.052734375 138 137 c 3
 138 66 187 26 254 26 c 3
 329 26 358 89 358 172 c 2
 358 409 l 1
 86 409 l 1
 86 475 l 1
 418 475 l 1
 418 179 l 2
 418 44 364 -40 250 -40 c 3
 149 -40 78 26 78 136 c 3xe8
 78 179.046875 83 212 92 243 c 1
 156 243 l 25xd8
EndSplineSet
Validated: 1
Substitution2: "fina-1" c.fina
Substitution2: "medi-1" c.medi
Substitution2: "init-1" c.init
EndChar
StartChar: d
Encoding: 100 100 28
Width: 560
Flags: W
HStem: -33 66<399 527> 150 66<149.132 293.528> 461 20G<73 133 321.608 399>
VStem: 73 60<232.71 481> 339 60<33 230.832 275.422 481>
AnchorPoint: "above" 230 481 basechar 0
AnchorPoint: "below" 369 -40 basechar 0
LayerCount: 2
Fore
SplineSet
73 481 m 1
 133 481 l 1
 133 283 l 2
 133 238.153320312 166.706054688 216 208 216 c 0
 257.907226562 216 301.383789062 234.973632812 341.83203125 275.421875 c 1
 386.421875 230.83203125 l 1
 340.137695312 184.547851562 264.599609375 150 202 150 c 0
 131.4921875 150 73 198.973632812 73 276 c 2
 73 481 l 1
339 481 m 5
 399 481 l 5
 399 33 l 5
 527 33 l 5
 527 -33 l 5
 339 -33 l 5
 339 481 l 5
EndSplineSet
Validated: 5
Substitution2: "fina-1" d.fina
Substitution2: "medi-1" d.medi
Substitution2: "init-1" d.init
EndChar
StartChar: e
Encoding: 101 101 36
Width: 500
Flags: W
HStem: -33 66<283 427> 95 55<223 283> 414 66<178.963 318.168>
VStem: 71 60<211.377 365.041> 223 60<33 150> 369 60<207.63 364.09>
AnchorPoint: "below" 259 -40 basechar 0
AnchorPoint: "above" 250 481 basechar 0
LayerCount: 2
Fore
SplineSet
248 480 m 0
 337 480 429 416 429 290 c 0
 429 148 334 95 250 95 c 0
 165 95 71 159 71 286 c 0
 71 424 170 480 248 480 c 0
369 290 m 0
 369 359 322 414 247 414 c 0
 184 414 131 368 131 286 c 0
 131 211 186 161 251 161 c 0
 322 161 369 203 369 290 c 0
223 150 m 1
 283 150 l 1
 283 33 l 1
 427 33 l 1
 427 -33 l 1
 223 -33 l 1
 223 150 l 1
185 535 m 1
 142 535 l 1
 142 545 l 1
 262 661 l 1
 348 661 l 17
 348 642 l 1
 185 535 l 1
EndSplineSet
Validated: 5
Substitution2: "long-direct-1" e.mark.long
Substitution2: "long-base-1" uni0242
MultipleSubs2: "break-bowel-1" uni0242 e.mark
Substitution2: "vowel-1" e.mark
EndChar
StartChar: f
Encoding: 102 102 34
Width: 550
Flags: W
HStem: -40 66<189.901 385.955> 129 66<199.703 323.026> 247 66<189.115 323.611> 377.808 68.2529<390.975 458> 415 66<193.36 413.342>
VStem: 81 60<70.6294 206.193 251.769 363.154> 324 60<198.615 243.956>
AnchorPoint: "above" 275 481 basechar 0
AnchorPoint: "below" 284 -40 basechar 0
LayerCount: 2
Fore
SplineSet
448 377.807617188 m 5xf6
 397.634765625 403.505859375 340.200195312 415 276 415 c 7
 193.607421875 415 148 367.306640625 148 312 c 7
 148 238 211 195 276 195 c 7
 313 195 324 207 324 224 c 7
 324 240 302 247 278 247 c 7
 194 247 141 201.007041904 141 130 c 7
 141 75 191 26 274 26 c 7
 352 26 401 45 467 103 c 5
 477 103 l 29
 477 15 l 5
 413 -27 365 -40 274 -40 c 7
 175 -40 81 23 81 130 c 7
 81 233 173 313 278 313 c 7
 352 313 384 276 384 222 c 7
 384 165 341 129 276 129 c 7
 194 129 88 207 88 315 c 7
 88 416 168.369140625 481 281 481 c 7xee
 340.3984375 481 409.232421875 468.250976562 458 446.060546875 c 5
 458 377.807617188 l 29
 448 377.807617188 l 5xf6
EndSplineSet
Validated: 5
Substitution2: "tolower-1" f
Substitution2: "fina-1" f.fina
Substitution2: "medi-1" f.medi
Substitution2: "init-1" f.init
EndChar
StartChar: g
Encoding: 103 103 43
Width: 540
Flags: W
HStem: -33 66<150 468> 409 66<85 342>
AnchorPoint: "below" 275 -40 basechar 0
AnchorPoint: "above" 275 481 basechar 0
LayerCount: 2
Fore
SplineSet
468 33 m 1
 468 -33 l 1
 71 -33 l 1
 71 28 l 1
 342 409 l 1
 85 409 l 1
 85 475 l 1
 421 475 l 1
 421 414 l 1
 150 33 l 1
 468 33 l 1
EndSplineSet
Validated: 1
Substitution2: "fina-1" g.fina
Substitution2: "medi-1" g.medi
Substitution2: "init-1" g.init
EndChar
StartChar: h
Encoding: 104 104 4
Width: 580
Flags: W
HStem: -40 66<211.014 374.729> 187 66<110 483> 414 66<215.883 370.09>
VStem: 81 418<25 416> 107 34<187 253> 439 44<187 253>
CounterMasks: 1 e0
AnchorPoint: "above" 290 481 basechar 0
AnchorPoint: "below" 290 -40 basechar 0
LayerCount: 2
Back
SplineSet
473 29 m 1x7c
 432 8 370 -4 315 -4 c 3
 186 -4 72 66 72 249 c 3
 72 441 189 510 300 510 c 3
 414.076356874 510 495 445.991210938 495 312 c 3
 495 283.946289062 492 262 492 262 c 1
 125 262 l 1
 96 322 l 1
 424 322 l 1
 424 352 l 1
 411 411 368 450 298 450 c 3
 224 450 138 404 138 252 c 3
 138 120 220 56 317 56 c 3xbc
 363 56 420 66 461 90 c 1
 473 90 l 1
 473 29 l 1x7c
EndSplineSet
Fore
SplineSet
110 253 m 29xec
 483 253 l 5
 483 187 l 5
 107 187 l 29
 110 253 l 29xec
288 480 m 4
 391 480 499 416 499 232 c 4
 499 22 398 -40 290 -40 c 4
 190 -40 81 25 81 220 c 4xf0
 81 416 215 480 288 480 c 4
439 232 m 4xec
 439 359 376 414 287 414 c 4
 209 414 141 350 141 220 c 4
 141 77 211 26 291 26 c 4
 386 26 439 77 439 232 c 4xec
EndSplineSet
Validated: 5
Substitution2: "fina-1" h.fina
Substitution2: "medi-1" h.medi
Substitution2: "init-1" h.init
EndChar
StartChar: i
Encoding: 105 105 37
Width: 500
Flags: W
HStem: -246 55<255 356> -90 20G<200 255> -33 66<283 427> 95 55<223 283> 414 66<178.963 318.168>
VStem: 71 60<211.377 365.041> 200 55<-191 -70> 223 60<33 150> 369 60<207.63 364.09>
AnchorPoint: "below" 259 -40 basechar 0
AnchorPoint: "above" 250 481 basechar 0
LayerCount: 2
Back
SplineSet
55 -189 m 5
 55 -171.681640625 46.0732421875 -160 30 -160 c 4
 19.646484375 -160 8.2177734375 -165.869140625 -5.857421875 -176.7421875 c 5
 -19.279296875 -143.62109375 l 5
 -7.00390625 -135.291015625 8.9072265625 -125 32 -125 c 4
 62.6962890625 -125 90 -146.493164062 90 -188 c 5
 90 -225.545898438 66.6708984375 -250 30 -250 c 4
 -3.8466796875 -250 -34 -228.04296875 -34 -188 c 6
 -34 -70 l 5
 6 -70 l 5
 6 -185 l 6
 6 -203.26171875 15.099609375 -215 30 -215 c 4
 44.4970703125 -215 55 -207.48046875 55 -189 c 5
EndSplineSet
Fore
SplineSet
248 480 m 0xfc80
 337 480 429 416 429 290 c 0
 429 148 334 95 250 95 c 0
 165 95 71 159 71 286 c 0
 71 424 170 480 248 480 c 0xfc80
369 290 m 0
 369 359 322 414 247 414 c 0
 184 414 131 368 131 286 c 0
 131 211 186 161 251 161 c 0
 322 161 369 203 369 290 c 0
223 150 m 1xfd80
 283 150 l 1
 283 33 l 1
 427 33 l 1
 427 -33 l 1
 223 -33 l 1
 223 150 l 1xfd80
200 -70 m 1xfe80
 255 -70 l 9
 255 -191 l 25
 356 -191 l 25
 356 -246 l 25
 200 -246 l 25
 200 -70 l 1xfe80
EndSplineSet
Validated: 5
Substitution2: "long-direct-1" i.mark.long
Substitution2: "long-base-1" uni0242
MultipleSubs2: "break-bowel-1" uni0242 i.mark
Substitution2: "vowel-1" i.mark
EndChar
StartChar: k
Encoding: 107 107 8
Width: 670
Flags: W
HStem: 187 66<323.61 630> 414 66<307.002 434.042>
VStem: 92 60<-13 481> 228 60<284.785 394.439> 460 60<257.871 387.339>
AnchorPoint: "below" 234 -40 basechar 0
AnchorPoint: "above" 345 481 basechar 0
LayerCount: 2
Back
SplineSet
0 182 m 5
 0 248 l 5
 353 248 l 6
 462 248 509 200.887695312 509 121 c 4
 509 30.140625 445.439453125 -36 333 -36 c 5
 333 30 l 5
 401.7578125 30 449 53.267578125 449 121 c 4
 449 162.754882812 416 182 353 182 c 6
 0 182 l 5
333 30 m 5
 333 -36 l 5
 210.905273438 -36 104 30.69140625 104 213 c 4
 104 422.494140625 245.440429688 486 396 486 c 6
 560 486 l 5
 560 420 l 5
 396 420 l 6
 275.666992188 420 164 376.850585938 164 213 c 4
 164 71.30859375 239.094726562 30 333 30 c 5
EndSplineSet
Fore
SplineSet
288 338 m 3
 288 288.08203125 330 253 409 253 c 2
 630 253 l 1
 630 187 l 1
 404 187 l 2
 297.422851562 187 228 247.508789062 228 335 c 3
 228 420 282 480 370 480 c 3
 456.70703125 480 520 415.987304688 520 329 c 3
 520 130.668945312 335.353746213 37.1111135959 189 -40 c 1
 152 -40 l 1
 117 -13 l 1
 267.335445019 66.8241300984 460 141.864257812 460 329 c 3
 460 379.01171875 427.493164062 414 367 414 c 3
 308 414 288 376 288 338 c 3
92 481 m 1
 152 481 l 1
 152 -40 l 1
 92 -40 l 1
 92 481 l 1
EndSplineSet
Validated: 5
Substitution2: "fina-1" k.fina
Substitution2: "medi-1" k.medi
Substitution2: "init-1" k.init
EndChar
StartChar: m
Encoding: 109 109 86
Width: 440
Flags: W
HStem: -80 66<144.144 269.185> 137 66<147.043 316> 254 66<142.109 318> 451 66<140.152 269.061>
VStem: 62 60<8.72337 112.733 339.686 433.727> 292 60<7.74663 137 203 254 320 427.18> 292 24<137 203 254 320>
AnchorPoint: "below" 210 -80 basechar 0
AnchorPoint: "above" 210 511 basechar 0
LayerCount: 2
Fore
SplineSet
212 517 m 3xfc
 294.939453125 517 352 460.092773438 352 361 c 2
 352 66 l 2xfc
 352 -26.955078125 286.037109375 -80 204 -80 c 3
 131.661132812 -80 62 -34.4345703125 62 55 c 0
 62 171.3515625 152 203 234 203 c 2
 316 203 l 1
 316 137 l 1xfa
 234 137 l 2
 169.705078125 137 122 120.055664062 122 60 c 0
 122 4.4794921875 169.7578125 -14 208 -14 c 3
 254.095703125 -14 292 11.3271484375 292 64 c 2
 292 351.668945312 l 2
 292 429.263671875 257.516601562 451 202 451 c 3
 162.814453125 451 124.678710938 437.568359375 124.678710938 384 c 0
 124.678710938 335.155273438 165.184570312 320 214 320 c 2
 318 320 l 1
 318 254 l 1
 214 254 l 2
 144 254 64.6787109375 286.690429688 64.6787109375 380 c 0
 64.6787109375 472.770507812 129.994140625 517 212 517 c 3xfc
EndSplineSet
Validated: 5
Substitution2: "fina-1" m.fina
Substitution2: "medi-1" m.medi
Substitution2: "init-1" m.init
EndChar
StartChar: n
Encoding: 110 110 94
Width: 510
Flags: W
HStem: -40 66<170.276 301.095> 187 66<121 272.964 346.996 477> 461 20G<82 142>
VStem: 82 60<54.5114 187 253 481> 121 21<187 253> 327 60<50.4907 184.346>
AnchorPoint: "below" 244 -40 basechar 0
AnchorPoint: "above" 195 481 basechar 0
LayerCount: 2
Fore
SplineSet
121 187 m 5xec
 121 253 l 5
 477 253 l 5
 477 187 l 5
 121 187 l 5xec
82 481 m 5xf4
 142 481 l 5
 142 112 l 6
 142 55.412109375 184.333007812 26 238 26 c 4
 293.046875 26 327 60.6240234375 327 103 c 4
 327 159.78515625 306.064453125 186.2109375 272.963867188 225.616210938 c 6
 269.1484375 230.158203125 l 5
 323.30078125 231.439453125 346.99609375 232 346.99609375 232 c 5
 370.564453125 198.060546875 387 160.365234375 387 106 c 4
 387 29.8193359375 333.984375 -40 235 -40 c 4
 139.19921875 -40 82 13.318359375 82 106 c 6
 82 481 l 5xf4
EndSplineSet
Validated: 5
Substitution2: "fina-1" n.fina
Substitution2: "medi-1" n.medi
Substitution2: "init-1" n.init
EndChar
StartChar: o
Encoding: 111 111 103
Width: 500
Flags: W
HStem: -33 66<283 427> 95 55<223 283> 414 66<178.963 318.168>
VStem: 71 60<211.377 365.041> 223 60<33 150> 369 60<207.63 364.09>
AnchorPoint: "below" 259 -40 basechar 0
AnchorPoint: "above" 250 481 basechar 0
LayerCount: 2
Fore
SplineSet
248 480 m 0
 337 480 429 416 429 290 c 0
 429 148 334 95 250 95 c 0
 165 95 71 159 71 286 c 0
 71 424 170 480 248 480 c 0
369 290 m 0
 369 359 322 414 247 414 c 0
 184 414 131 368 131 286 c 0
 131 211 186 161 251 161 c 0
 322 161 369 203 369 290 c 0
223 150 m 1
 283 150 l 1
 283 33 l 1
 427 33 l 1
 427 -33 l 1
 223 -33 l 1
 223 150 l 1
185 -220 m 1
 142 -220 l 1
 142 -210 l 1
 262 -94 l 1
 348 -94 l 17
 348 -113 l 1
 185 -220 l 1
EndSplineSet
Validated: 5
Substitution2: "long-direct-1" o.mark.long
Substitution2: "long-base-1" uni0242
MultipleSubs2: "break-bowel-1" uni0242 o.mark
Substitution2: "vowel-1" o.mark
EndChar
StartChar: p
Encoding: 112 112 104
Width: 460
Flags: W
HStem: -70 66<183.474 364.961> -43.084 69.6729<336.518 387> 204 66<124 290.319> 415 66<166.05 285.856>
VStem: 88 60<30.9604 204 270 397.028> 124 24<204 270> 308 60<287.876 392.277>
AnchorPoint: "below" 230 -70 basechar 0
AnchorPoint: "above" 220 481 basechar 0
LayerCount: 2
Fore
SplineSet
387 -43.083984375 m 1x7a
 352.831054688 -61.15625 308.083984375 -70 258 -70 c 3
 165.060546875 -70 88 -13.0927734375 88 86 c 2
 88 335 l 2xba
 88 427.955078125 143.962890625 481 226 481 c 3
 298.338867188 481 368 435.434570312 368 346 c 0
 368 229.6484375 293 204 211 204 c 2
 124 204 l 1
 124 270 l 1xb6
 206 270 l 2
 270.294921875 270 308 280.944335938 308 341 c 0
 308 396.520507812 260.2421875 415 222 415 c 3
 175.904296875 415 148 389.672851562 148 337 c 2
 148 95.3310546875 l 2
 148 17.8759765625 204.759765625 -4 268 -4 c 3xba
 321.591796875 -4 348.552734375 5.0595703125 377 26.5888671875 c 1
 387 26.5888671875 l 1
 387 -43.083984375 l 1x7a
EndSplineSet
Validated: 5
Substitution2: "fina-1" p.fina
Substitution2: "medi-1" p.medi
Substitution2: "init-1" p.init
EndChar
StartChar: r
Encoding: 114 114 6
Width: 550
Flags: W
HStem: 0 66<227.648 500> 376 66<235.832 404>
VStem: 83 60<141.409 294.338>
AnchorPoint: "above" 260 442 basechar 0
AnchorPoint: "below" 280 0 basechar 0
LayerCount: 2
Fore
SplineSet
500 66 m 1
 500 0 l 1
 321 0 l 2
 187.869140625 0 83 77.5859375 83 212 c 0
 83 362.669921875 204.267578125 442 324 442 c 2
 404 442 l 1
 404 376 l 1
 329 376 l 2
 232.248046875 376 143 316.325195312 143 215 c 0
 143 117.1015625 230.779296875 66 328 66 c 2
 500 66 l 1
EndSplineSet
Validated: 1
Substitution2: "fina-1" r.fina
Substitution2: "medi-1" r.medi
Substitution2: "init-1" r.init
EndChar
StartChar: s
Encoding: 115 115 117
Width: 710
Flags: W
HStem: -33 66<169.494 393.764 459 553.516> 195 66<438.562 556.867> 461 20G<86 146>
VStem: 86 60<56.8008 481> 352 60<38.1824 167.652> 582 60<59.517 169.441>
AnchorPoint: "below" 364 -39 basechar 0
AnchorPoint: "above" 353 482 basechar 0
LayerCount: 2
Fore
SplineSet
86 481 m 1
 146 481 l 1
 146 129 l 2
 146 65.5874177798 170.958007812 33 235 33 c 2
 310 33 l 1
 340 0 l 1
 310 -33 l 1
 230 -33 l 2
 139.912109375 -33 86 31.26953125 86 124 c 2
 86 481 l 1
480 -33 m 1
 310 -33 l 17
 280 0 l 1
 310 33 l 1
 490 33 l 1
 541 33 582 61 582 116 c 3
 582 172.520507812 534.2421875 195 496 195 c 3
 449.904296875 195 412 162 412 107 c 3
 412 70.26953125 434.413085938 32.919921875 459 4.00390625 c 1
 393.763671875 -8 l 1
 373.485351562 25.5419921875 352 66.2333984375 352 115 c 3
 352 207.955078125 417.962890625 261 500 261 c 3
 572.338867188 261 642 205.434570312 642 121 c 3
 642 27.5615234375 577 -33 480 -33 c 1
EndSplineSet
Validated: 5
Substitution2: "fina-1" s.fina
Substitution2: "medi-1" s.medi
Substitution2: "init-1" s.init
EndChar
StartChar: u
Encoding: 117 117 84
Width: 300
Flags: W
HStem: 209 78<112 188>
VStem: 112 76<209 287>
LayerCount: 2
Fore
SplineSet
188 209 m 5
 112 209 l 5
 112 287 l 5
 189 287 l 5
 188 209 l 5
EndSplineSet
Validated: 1
EndChar
StartChar: v
Encoding: 118 118 5
Width: 550
Flags: W
HStem: -40 66<189.901 385.955> 129 66<200.284 323.026> 247 66<189.115 323.611> 410 66<85 134.463 196.029 439> 437 20G<125.782 196.029>
VStem: 81 60<70.6294 206.193> 98 60<257.932 409.793> 324 60<198.615 243.956>
AnchorPoint: "above" 275 481 basechar 0
AnchorPoint: "below" 284 -40 basechar 0
LayerCount: 2
Back
SplineSet
126 4 m 1
 130 64 l 1
 536 64 l 1
 536 4 l 1
 126 4 l 1
126 342 m 1
 130 402 l 1
 486 402 l 1
 486 342 l 1
 126 342 l 1
126 638 m 1
 130 698 l 1
 530 698 l 1
 530 638 l 1
 126 638 l 1
168 4 m 1
 102 4 l 1
 102 698 l 1
 168 698 l 25
 168 4 l 1
288 305 m 3xf6
 194.165039062 305 126 251.541015625 126 158 c 0
 126 71.203125 211.030273438 20 294 20 c 3
 526.356445312 20 529 248 720 248 c 1
 720 182 l 1
 598 182 553.078125 -46 294 -46 c 3
 181.999023438 -46 66 30.8818359375 66 158 c 0xfa
 66 286.458984375 159.834960938 371 288 371 c 3
 376.05078125 371 414 334.209960938 414 280 c 3
 414 223.484375 378.021484375 187 286 187 c 3
 183.782226562 187 88 272.66015625 88 376 c 0
 88 451.225585938 124.666015625 505.1875 183.821289062 543.46484375 c 1
 218.74609375 500.490234375 l 1
 214.178710938 497.53515625 l 2
 171.333984375 469.8125 148 426.774414062 148 376 c 0
 148 312.107421875 221.4296875 253 286 253 c 3
 333 253 354.474609375 265.026367188 354.474609375 281.727539062 c 3
 354.474609375 297.256835938 332 305 288 305 c 3xf6
65 493 m 1
 65 559 l 1
 459 559 l 1
 459 493 l 1
 65 493 l 1
EndSplineSet
Fore
SplineSet
85 410 m 1xf1
 85 476 l 1
 439 476 l 1
 439 410 l 1
 85 410 l 1xf1
196.029296875 438 m 1
 171.598632812 407.279296875 158 366.565429688 158 312 c 3xeb
 158 238 201 195 276 195 c 3
 313 195 324 207 324 224 c 3
 324 240 302 247 278 247 c 3
 194 247 141 201.007041904 141 130 c 3
 141 75 191 26 274 26 c 3
 352 26 401 45 467 103 c 1
 477 103 l 25
 477 15 l 1
 413 -27 365 -40 274 -40 c 3
 175 -40 81 23 81 130 c 3xed
 81 233 173 313 278 313 c 3
 352 313 384 276 384 222 c 3
 384 165 341 129 276 129 c 3
 184 129 98 197 98 315 c 3
 98 375.709960938 117.1015625 420.469726562 134.462890625 457 c 1xeb
 196.029296875 438 l 1
EndSplineSet
Validated: 5
Substitution2: "fina-1" v.fina
Substitution2: "medi-1" v.medi
Substitution2: "init-1" v.init
EndChar
StartChar: w
Encoding: 119 119 10
Width: 600
Flags: W
HStem: -40 66<193.461 402.863> 149 66<187.86 302.026> 267 66<179.519 302.611> 461 20G<108 168>
VStem: 80 60<76.3916 225.786> 97 60<282.959 479.232> 108 60<337.851 481> 303 60<218.615 263.956> 470 60<90.9095 259>
AnchorPoint: "above" 274 481 basechar 0
AnchorPoint: "below" 303 -40 basechar 0
LayerCount: 2
Fore
SplineSet
168 481 m 1xf380
 168 442 157 387 157 332 c 3xf580
 157 258 185 215 255 215 c 3
 292 215 303 227 303 244 c 3
 303 260 281 267 257 267 c 3
 183 267 140 216 140 140 c 3
 140 70 196 26 293 26 c 3
 383 26 470 54.99609375 470 176 c 3
 470 198 469 222 463 249 c 1
 463 259 l 1
 523 259 l 1
 528 232 530 207 530 185 c 3
 530 -0.0029296875 418 -40 293 -40 c 3
 170 -40 80 16 80 140 c 3xf980
 80 253 162 333 257 333 c 3
 331 333 363 296 363 242 c 3
 363 185 320 149 255 149 c 3
 163 149 97 217 97 335 c 3xf580
 97 396 108 445 108 481 c 1
 168 481 l 1xf380
EndSplineSet
Validated: 5
Substitution2: "fina-1" w.fina
Substitution2: "medi-1" w.medi
Substitution2: "init-1" w.init
EndChar
StartChar: x
Encoding: 120 120 9
Width: 540
Flags: W
HStem: -70 66<254.898 351.905> 124 66<155 211.297> 157 66<301.14 495> 409 66<75 266>
VStem: 183 60<7.96283 109.53> 362 60<5.58252 95.2745>
AnchorPoint: "below" 283 -70 basechar 0
AnchorPoint: "above" 259 481 basechar 0
LayerCount: 2
Back
SplineSet
377 77 m 7
 377 2.7568359375 328 -40 258 -40 c 7
 200 -40 138 -2 138 79 c 7
 138 175 208 253 374 253 c 6
 450 253 l 5
 450 187 l 5
 379 187 l 6
 243 187 198 139 198 82 c 7
 198 54 220 26 259 26 c 7
 296 26 317 48 317 81 c 7
 317 122.01171875 280 154 182 154 c 5
 75 154 l 5
 75 215 l 5
 246 409 l 5
 75 409 l 5
 75 475 l 5
 331 475 l 5
 331 414 l 5
 160 220 l 5
 210 220 l 5
 314 220 377 151.02734375 377 77 c 7
410 -46 m 17
 508 0 552 55.7635257898 552 132 c 3
 552 184 522 238 470 238 c 27
 410 238 366 184 366 124 c 27
 366 63 377 29 384 -32 c 1049
0 248 m 1
 178 248 324 -64 540 -64 c 0
 649 -64 722 -1 722 98 c 27
 722 158 704 203 654 248 c 9
 768 248 l 1049
EndSplineSet
Fore
SplineSet
422 47 m 3xdc
 422 -27.2431640625 373 -70 303 -70 c 3
 245 -70 183 -32 183 49 c 3
 183 145 253 223 419 223 c 2
 495 223 l 1
 495 157 l 1
 424 157 l 2xbc
 288 157 243 109 243 52 c 3
 243 24 265 -4 304 -4 c 3
 341 -4 362 18 362 51 c 3
 362 92.01171875 335 124 177 124 c 1
 70 124 l 1
 70 185 l 1
 266 409 l 1
 75 409 l 1
 75 475 l 1
 351 475 l 1
 351 414 l 1
 155 190 l 1
 185 190 l 1
 379 190 422 121.02734375 422 47 c 3xdc
EndSplineSet
Validated: 5
Substitution2: "fina-1" x.fina
Substitution2: "medi-1" x.medi
Substitution2: "init-1" x.init
EndChar
StartChar: z
Encoding: 122 122 154
Width: 674
Flags: W
HStem: -40 66<395.65 495.616> 130 66<145.796 276.535> 161 66<358 634> 461 20G<73 133 319 379>
VStem: 73 60<209.698 481> 319 60<42.1076 161 210.832 227 255.422 481> 358 21<161 227> 510 60<40.0265 157.832>
AnchorPoint: "above" 320 481 basechar 0
AnchorPoint: "below" 349 -40 basechar 0
LayerCount: 2
Back
SplineSet
182 227 m 1
 742 227 l 1
 772 194 l 1
 742 161 l 1
 182 161 l 17
 152 194 l 1
 182 227 l 1
428 204 m 1
 397 177 374 155.790039062 374 99 c 0
 374 42.4794921875 421.7578125 26 460 26 c 3
 506.095703125 26 544 53 544 108 c 3
 544 144.73046875 521.586914062 172.080078125 497 200.99609375 c 1
 562.236328125 213 l 1
 582.514648438 179.458007812 604 148.766601562 604 100 c 3
 604 7.044921875 538.037109375 -40 456 -40 c 3
 383.661132812 -40 314 9.5654296875 314 94 c 0
 314 172 343.791992188 200 364 221 c 1
 428 204 l 1
EndSplineSet
Fore
SplineSet
73 481 m 1xd9
 133 481 l 1
 133 263 l 2
 133 218.153320312 156.706054688 196 198 196 c 0
 247.907226562 196 281.383789062 214.973632812 321.83203125 255.421875 c 1
 366.421875 210.83203125 l 1
 320.137695312 164.547851562 254.599609375 130 192 130 c 0
 121.4921875 130 73 178.973632812 73 256 c 2
 73 481 l 1xd9
358 161 m 1xbb
 358 227 l 1
 634 227 l 1
 634 161 l 1
 358 161 l 1xbb
319 481 m 1x9d
 379 481 l 1
 379 112 l 2
 379 55.412109375 401.333007812 26 445 26 c 0
 486.046875 26 510 50.6240234375 510 93 c 0
 510 139.78515625 485.76171875 167.760742188 443.963867188 195.616210938 c 2
 437.1484375 200.158203125 l 1
 491.30078125 201.439453125 514.99609375 202 514.99609375 202 c 1
 549.564453125 177.060546875 570 143.365234375 570 89 c 0
 570 14.8193359375 525.984375 -40 442 -40 c 0
 364 -40 319 23.318359375 319 116 c 2
 319 481 l 1x9d
EndSplineSet
Validated: 5
Substitution2: "fina-1" z.fina
Substitution2: "medi-1" z.medi
Substitution2: "init-1" z.init
EndChar
StartChar: ntilde
Encoding: 241 241 176
Width: 720
Flags: W
HStem: -33 66<152.878 259.796> 409 66<465.555 562.641>
VStem: 63 60<65.1107 254> 588 67<186 379.932>
AnchorPoint: "below" 368 -40 basechar 0
AnchorPoint: "above" 369 481 basechar 0
LayerCount: 2
Back
SplineSet
281 236 m 0
 348 185 384 147 384 81 c 3
 384 0 338 -40 268 -40 c 3
 210 -40 152 -2 152 79 c 3
 152 175 268 253 434 253 c 2
 460 253 l 1
 460 187 l 1
 439 187 l 2
 273 187 212 124 212 82 c 3
 212 54 230 26 269 26 c 3
 306 26 324 48 324 81 c 3
 324 137 292 159 231 202 c 0
 171 244 111 294 111 364 c 3
 111 431 152 481 224 481 c 3
 282 481 343 440 343 355 c 3
 343 259 223 187 56 187 c 2
 40 187 l 1
 40 253 l 1
 51 253 l 2
 206 253 283 301 283 358 c 3
 283 386 263 415 227 415 c 3
 193 415 171 394 171 364 c 3
 171 304 231 274 281 236 c 0
EndSplineSet
Fore
SplineSet
123 168 m 0
 123 96 138 33 211 33 c 0
 289 33 318 156 340 238 c 0
 365 331 395 475 510 475 c 0
 616 475 655 372 655 271 c 0
 655 239 654 209 650 185 c 1
 588 186 l 1
 588 196 l 1
 592 211 595 252 595 281 c 0
 595 337 576 409 510 409 c 0
 443 409 418 293 398 218 c 0
 371 119 336 -33 211 -33 c 0
 102 -33 63 60 63 168 c 0
 63 198 65 231 68 254 c 1
 128 254 l 1
 128 246 l 1
 125 225 123 195 123 168 c 0
EndSplineSet
Validated: 1
Substitution2: "medi-1" ntilde.medi
Substitution2: "init-1" ntilde.init
Substitution2: "fina-1" ntilde.fina
EndChar
StartChar: scaron
Encoding: 353 353 177
Width: 480
Flags: W
HStem: -70 66<162.787 286.759> 187 66<327.192 440> 412 68<306.635 361> 445 66<168.366 332.366>
VStem: 77 60<22.2549 143.84> 87 60<321.112 424.317> 314 60<24.3347 155.9>
AnchorPoint: "above" 231 511 basechar 0
AnchorPoint: "below" 224 -70 basechar 0
LayerCount: 2
Back
SplineSet
166 71 m 7
 166 129.034179688 194 201 364 240 c 13
 314 298 l 21
 161 253 106 156 106 71 c 7
 106 -20 177 -70 247 -70 c 7
 331 -70 388 -8 388 73 c 7
 388 181.074048689 312 253 96 253 c 6
 40 253 l 5
 40 187 l 5
 91 187 l 6
 306 187 328 127.00892786 328 71 c 7
 328 23 292 -4 250 -4 c 7
 210 -4 166 18 166 71 c 7
381 480 m 5
 354 497 310.317701016 511 256 511 c 7
 188 511 117 478 117 391 c 7
 117 290.892578125 220 258 364 240 c 5
 364 306 l 5
 248 314 177 336.8046875 177 390 c 7
 177 425 207.90625 445 256 445 c 7
 308 445 348 428 371 412 c 5
 381 412 l 5
 381 480 l 5
EndSplineSet
Fore
SplineSet
87 377 m 3xd6
 87 470 162 511 236 511 c 3xd6
 290 511 334 497 361 480 c 1
 361 412 l 1
 351 412 l 1xe6
 328 428 288 445 236 445 c 3
 185 445 147 420 147 376 c 3xd6
 147 316 197 300.64453125 259 262 c 0
 330.336914062 217.536132812 374 167 374 81 c 3
 374 -20 295 -70 225 -70 c 3
 147 -70 77 -20 77 75 c 3
 77 192 158 253 354 253 c 2
 440 253 l 1
 440 187 l 1
 309 187 l 2
 173 187 137 140 137 78 c 3xda
 137 30 173 -4 226 -4 c 3
 273 -4 314 28 314 81 c 3
 314 147 277.515625 186.161132812 213 224 c 0
 139 267.401367188 87 307 87 377 c 3xd6
EndSplineSet
Validated: 5
Substitution2: "fina-1" scaron.fina
Substitution2: "medi-1" scaron.medi
Substitution2: "init-1" scaron.init
EndChar
StartChar: zcaron
Encoding: 382 382 178
Width: 620
Flags: W
HStem: -70 21G<64 124> -33 66<459 587> 188 66<257.614 375.992> 415 66<254.289 373.021>
VStem: 64 60<-70 136.154> 399 60<33 212.895 277.451 388.61>
AnchorPoint: "below" 317 -70 basechar 0
AnchorPoint: "above" 313 475 basechar 0
LayerCount: 2
Fore
SplineSet
124 -70 m 1
 64 -70 l 1
 64 47.078125 86.5615234375 193.509765625 148.388671875 334 c 0
 180.75390625 407.54296875 221.78515625 481 315 481 c 0
 398 481 459 419 459 315 c 2
 459 33 l 1
 587 33 l 1
 587 -33 l 1
 399 -33 l 1
 399 212.89453125 l 1
 377.290039062 195.936523438 344.573242188 188 311 188 c 0
 261.002929688 188 208 220 188 274 c 1
 142 186 124 16.8916015625 124 -70 c 1
232 334 m 0
 232 285 272 254 317 254 c 0
 362 254 399 284 399 331 c 0
 399 382 365 415 309 415 c 0
 266.026367188 415 232 383.135742188 232 334 c 0
EndSplineSet
Validated: 1
Substitution2: "fina-1" zcaron.fina
Substitution2: "medi-1" zcaron.medi
Substitution2: "init-1" zcaron.init
EndChar
StartChar: uni0242
Encoding: 578 578 179
Width: 500
Flags: W
HStem: -33 66<283 427> 95 55<223 283> 414 66<178.963 318.168>
VStem: 71 60<211.377 365.041> 223 60<33 150> 369 60<207.63 364.09>
AnchorPoint: "above" 250 481 basechar 0
AnchorPoint: "below" 259 -40 basechar 0
LayerCount: 2
Back
SplineSet
233 220 m 1
 293 220 l 1
 293 33 l 1
 437 33 l 1
 437 -33 l 1
 233 -33 l 1
 233 220 l 1
EndSplineSet
Fore
SplineSet
248 480 m 0
 337 480 429 416 429 290 c 0
 429 148 334 95 250 95 c 0
 165 95 71 159 71 286 c 0
 71 424 170 480 248 480 c 0
369 290 m 0
 369 359 322 414 247 414 c 0
 184 414 131 368 131 286 c 0
 131 211 186 161 251 161 c 0
 322 161 369 203 369 290 c 0
223 150 m 1
 283 150 l 1
 283 33 l 1
 427 33 l 1
 427 -33 l 1
 223 -33 l 1
 223 150 l 1
EndSplineSet
Validated: 5
Substitution2: "fina-1" uni0242.fina
Substitution2: "medi-1" uni0242.medi
Substitution2: "init-1" uni0242.init
EndChar
StartChar: uni0283
Encoding: 643 643 248
Width: 300
Flags: W
HStem: 209 78<112 188>
VStem: 112 76<209 287>
LayerCount: 2
Fore
SplineSet
188 209 m 5
 112 209 l 5
 112 287 l 5
 189 287 l 5
 188 209 l 5
EndSplineSet
Validated: 1
Substitution2: "tolower-1" scaron
EndChar
StartChar: a.mark.long
Encoding: 65711 -1 239
Width: 0
Flags: W
HStem: -220 43<-30.3535 29.8174> -112 42<-29.9326 29.7497>
VStem: -72 40<-173.955 -114.188> 32 38<-174.007 -115.995>
AnchorPoint: "below" 0 -40.5 mark 0
LayerCount: 2
Fore
SplineSet
-72 -146 m 7
 -72 -100 -41 -70 1 -70 c 7
 36 -70 70 -100 70 -146 c 7
 70 -192 41 -220 -1 -220 c 7
 -37 -220 -72 -192 -72 -146 c 7
32 -144 m 7
 32 -123 14 -112 -2 -112 c 7
 -20 -112 -32 -126 -32 -145 c 7
 -32 -166 -15 -177 1 -177 c 7
 19 -177 32 -163 32 -144 c 7
EndSplineSet
Validated: 1
Ligature2: "long-vowel-1" a.mark a
EndChar
StartChar: b.fina
Encoding: 65538 -1 15
Width: 480
Flags: W
HStem: -33 66<231 457> 187 66<0 175.817>
VStem: 185 60<-230 -33 33 176.131> 231 14<-33 33>
AnchorPoint: "above" 125 259 basechar 0
AnchorPoint: "below" 214 -230 basechar 0
LayerCount: 2
Fore
SplineSet
0 187 m 1xe0
 -30 220 l 1
 0 253 l 1
 121 253 l 2
 212.16796875 253 245 206.963867188 245 124 c 2
 245 -230 l 5
 185 -230 l 5
 185 114 l 2
 185 172.166015625 171.81640625 187 111 187 c 2
 0 187 l 1xe0
231 -33 m 1xd0
 231 33 l 1
 457 33 l 1
 457 -33 l 1
 231 -33 l 1xd0
EndSplineSet
Validated: 5
Substitution2: "htm-1" b.fina.htm
EndChar
StartChar: b.fina.htm
Encoding: 65542 -1 19
Width: 500
Flags: W
HStem: 187 66<241 467> 409 66<0 185.817>
VStem: 195 60<-40 187 253 398.131> 241 14<187 253>
AnchorPoint: "above" 145 481 basechar 0
AnchorPoint: "below" 224 -40 basechar 0
LayerCount: 2
Fore
SplineSet
0 409 m 1xe0
 -30 442 l 5
 0 475 l 1
 131 475 l 2
 222.16796875 475 255 428.963867188 255 346 c 2
 255 -40 l 1
 195 -40 l 1
 195 336 l 2
 195 394.166015625 181.81640625 409 121 409 c 2
 0 409 l 1xe0
241 187 m 1xd0
 241 253 l 1
 467 253 l 1
 467 187 l 1
 241 187 l 1xd0
EndSplineSet
Validated: 5
EndChar
StartChar: b.init
Encoding: 65536 -1 13
Width: 460
Flags: W
HStem: 187 66<261 460> 409 66<45 235.817>
VStem: 245 60<-40 187 253 398.131> 261 44<187 253>
AnchorPoint: "below" 274 -40 basechar 0
AnchorPoint: "above" 175 481 basechar 0
LayerCount: 2
Fore
SplineSet
45 409 m 1xe0
 45 475 l 1
 181 475 l 2
 272.16796875 475 305 428.963867188 305 346 c 2
 305 -40 l 1
 245 -40 l 1
 245 336 l 2
 245 394.166015625 231.81640625 409 171 409 c 2
 45 409 l 1xe0
261 187 m 1xd0
 261 253 l 1
 460 253 l 1
 490 220 l 1
 460 187 l 1
 261 187 l 1xd0
EndSplineSet
Validated: 5
EndChar
StartChar: b.medi.fml
Encoding: 65539 -1 16
Width: 490
Flags: W
HStem: 187 66<281 490> 413 66<160.863 225.35>
VStem: 235 60<-40 187 253 406.891> 281 14<187 253>
AnchorPoint: "below" 264 -40 basechar 0
AnchorPoint: "above" 185 481 basechar 0
LayerCount: 2
Fore
SplineSet
281 187 m 1xd0
 281 253 l 1
 490 253 l 1
 520 220 l 1
 490 187 l 1
 281 187 l 1xd0
198 479 m 4
 279 479 295 414 295 326 c 6
 295 -40 l 5
 235 -40 l 5
 235 316 l 6xe0
 235 394 219 413 195 413 c 4
 172 413 157 399 0 170 c 5
 -20 170 l 29
 0 278 l 5
 105 429 130 479 198 479 c 4
EndSplineSet
Validated: 5
EndChar
StartChar: b.medi
Encoding: 65537 -1 14
Width: 600
Flags: W
HStem: 187 66<0 104.255 391 600> 413 66<267.94 335.495>
VStem: 345 60<-40 187 253 406.891> 391 14<187 253>
AnchorPoint: "above" 295 481 basechar 0
AnchorPoint: "below" 374 -40 basechar 0
LayerCount: 2
Back
SplineSet
0 220 m 5
 57 220 90.6147728768 265.097240666 116 334 c 4
 144 410 182.790039062 476 221 476 c 7
 259.052734375 476 275 452 275 346 c 13
 275 -74 l 1053
EndSplineSet
Fore
SplineSet
391 187 m 5xd0
 391 253 l 5
 600 253 l 5
 630 220 l 5
 600 187 l 5
 391 187 l 5xd0
0 187 m 1
 -30 219 l 1
 0 253 l 1
 81 253 114.72297519 264.99981171 159 340 c 0
 201.505837105 412 236 479 308 479 c 0
 389 479 405 414 405 326 c 2
 405 -40 l 1
 345 -40 l 1
 345 316 l 2xe0
 345 394 331 413 301 413 c 0
 274 413 235.921875 351.045898438 216 317 c 0
 149.879882812 204 116 187 0 187 c 1
EndSplineSet
Validated: 5
Substitution2: "htm-1" b.medi.htm
Substitution2: "fml-1" b.medi.fml
Substitution2: "mtl-1" b.medi.mtl
EndChar
StartChar: b.medi.mtl
Encoding: 65540 -1 17
Width: 440
Flags: W
HStem: -33 66<231 440> 187 66<0 175.817>
VStem: 185 60<-230 -33 33 176.131> 231 14<-33 33>
AnchorPoint: "below" 214 -230 basechar 0
AnchorPoint: "above" 125 259 basechar 0
LayerCount: 2
Fore
SplineSet
231 -33 m 1xd0
 231 33 l 1
 440 33 l 1
 470 0 l 1
 440 -33 l 1
 231 -33 l 1xd0
0 187 m 1
 -30 220 l 1
 0 253 l 1
 121 253 l 2
 212.16796875 253 245 206.963867188 245 124 c 2
 245 -230 l 1
 185 -230 l 1
 185 114 l 2xe0
 185 172.166015625 171.81640625 187 111 187 c 2
 0 187 l 1
EndSplineSet
Validated: 5
EndChar
StartChar: c.fina.del
Encoding: 65549 -1 27
Width: 290
Flags: W
HStem: 409 66<88 134.057>
VStem: 142 60<481.854 533>
AnchorPoint: "above" 175 804 basechar 0
AnchorPoint: "below" 175 403 basechar 0
LayerCount: 2
Back
SplineSet
166 481 m 5
 226 481 l 5
 226 99 l 6
 226 56.5869140625 240.958007812 33 285 33 c 6
 420 33 l 5
 450 0 l 5
 420 -33 l 5
 280 -33 l 6
 209.912109375 -33 166 21.26953125 166 94 c 6
 166 481 l 5
0 -33 m 5
 -30 0 l 5
 0 33 l 5
 68 33 l 6
 122.772460938 33 152.556640625 54.41015625 173.985351562 93.7724609375 c 5
 225.178710938 48.8681640625 l 5
 191.294921875 -0.828125 147.051757812 -33 68 -33 c 6
 0 -33 l 5
EndSplineSet
Fore
SplineSet
219.325796875 198.674203125 m 5
 254.674203125 163.325796875 l 5
 97.674203125 6.325796875 l 5
 62.325796875 41.674203125 l 5
 219.325796875 198.674203125 l 5
254.674203125 41.674203125 m 5
 219.325796875 6.325796875 l 5
 62.325796875 163.325796875 l 5
 97.674203125 198.674203125 l 5
 254.674203125 41.674203125 l 5
202 804 m 1
 142 804 l 1
 142 529 l 2
 142 493.586914062 127.041992188 475 93 475 c 2
 -0 475 l 1
 -30 442 l 1
 -0 409 l 1
 88 409 l 2
 168.087890625 409 202 443.26953125 202 533 c 2
 202 804 l 1
EndSplineSet
Validated: 5
EndChar
StartChar: c.fina
Encoding: 65545 -1 23
Width: 290
Flags: W
HStem: 187 66<0 120.515>
VStem: 142 60<273.598 680>
AnchorPoint: "above" 176 680 basechar 0
AnchorPoint: "below" 176 181 basechar 0
LayerCount: 2
Back
SplineSet
166 481 m 1
 226 481 l 1
 226 99 l 2
 226 56.5869140625 240.958007812 33 285 33 c 2
 420 33 l 1
 450 0 l 1
 420 -33 l 1
 280 -33 l 2
 209.912109375 -33 166 21.26953125 166 94 c 2
 166 481 l 1
0 -33 m 1
 -30 0 l 1
 0 33 l 1
 68 33 l 2
 122.772460938 33 152.556640625 54.41015625 173.985351562 93.7724609375 c 1
 225.178710938 48.8681640625 l 1
 191.294921875 -0.828125 147.051757812 -33 68 -33 c 2
 0 -33 l 1
EndSplineSet
Fore
SplineSet
202 680 m 5
 202 341 l 6
 202 238.26953125 158.087890625 187 68 187 c 6
 0 187 l 5
 -30 220 l 5
 0 253 l 5
 72 253 l 6
 116.041992188 253 142 283.586914062 142 340 c 6
 142 680 l 5
 202 680 l 5
EndSplineSet
Validated: 1
Substitution2: "ltm-1" c.fina.ltm
EndChar
StartChar: c.fina.ltm
Encoding: 65548 -1 26
Width: 290
Flags: W
HStem: -33 66<0 120.515> 461 20G<142 202>
VStem: 142 60<53.5981 481>
AnchorPoint: "above" 175 481 basechar 0
AnchorPoint: "below" 174 -40 basechar 0
LayerCount: 2
Back
SplineSet
166 481 m 5
 226 481 l 5
 226 99 l 6
 226 56.5869140625 240.958007812 33 285 33 c 6
 420 33 l 5
 450 0 l 5
 420 -33 l 5
 280 -33 l 6
 209.912109375 -33 166 21.26953125 166 94 c 6
 166 481 l 5
0 -33 m 5
 -30 0 l 5
 0 33 l 5
 68 33 l 6
 122.772460938 33 152.556640625 54.41015625 173.985351562 93.7724609375 c 5
 225.178710938 48.8681640625 l 5
 191.294921875 -0.828125 147.051757812 -33 68 -33 c 6
 0 -33 l 5
EndSplineSet
Fore
SplineSet
202 481 m 5
 202 121 l 2
 202 18.26953125 158.087890625 -33 68 -33 c 2
 0 -33 l 1
 -30 0 l 1
 0 33 l 1
 72 33 l 2
 116.041992188 33 142 63.5869140625 142 120 c 2
 142 481 l 5
 202 481 l 5
EndSplineSet
Validated: 1
EndChar
StartChar: c.init
Encoding: 65543 -1 21
Width: 510
Flags: W
HStem: -40 66<155.547 297.304> 187 66<150.844 510> 409 66<86 348>
VStem: 68 60<51.2848 165.868> 348 60<79.3326 409>
AnchorPoint: "above" 245 481 basechar 0
AnchorPoint: "below" 264 -40 basechar 0
LayerCount: 2
Fore
SplineSet
128 107 m 3
 128 56 166 26 226 26 c 3
 301 26 348 79 348 172 c 2
 348 409 l 1
 86 409 l 1
 86 475 l 1
 408 475 l 1
 408 179 l 2
 408 34 331 -40 222 -40 c 3
 124 -40 68 30 68 106 c 3
 68 200.084960938 122 253 203 253 c 2
 510 253 l 1
 540 220 l 1
 510 187 l 1
 206 187 l 2
 161 187 128 159.047851562 128 107 c 3
EndSplineSet
Validated: 5
EndChar
StartChar: c.medi
Encoding: 65544 -1 22
Width: 390
Flags: W
HStem: 187 66<0 140.876 235.772 390> 293.772 20G<160.771 194.013>
VStem: 166 60<300.588 680>
AnchorPoint: "below" 196 180 basechar 0
AnchorPoint: "above" 197 680 basechar 0
LayerCount: 2
Back
SplineSet
166 481 m 5
 226 481 l 5
 226 99 l 6
 226 56.5869140625 240.958007812 33 285 33 c 6
 420 33 l 5
 450 0 l 5
 420 -33 l 5
 280 -33 l 6
 209.912109375 -33 166 21.26953125 166 94 c 6
 166 481 l 5
0 -33 m 5
 -30 0 l 5
 0 33 l 5
 68 33 l 6
 122.772460938 33 152.556640625 54.41015625 173.985351562 93.7724609375 c 5
 225.178710938 48.8681640625 l 5
 191.294921875 -0.828125 147.051757812 -33 68 -33 c 6
 0 -33 l 5
EndSplineSet
Fore
SplineSet
0 187 m 1
 -30 220 l 1
 0 253 l 1
 68 253 l 2
 122.772460938 253 152.556640625 274.41015625 168.985351562 313.772460938 c 1
 225.178710938 268.868164062 l 1
 191.294921875 219.171875 147.051757812 187 68 187 c 2
 0 187 l 1
167 680 m 1
 227 680 l 1
 226 319 l 6
 226 276.586914062 240.958007812 253 285 253 c 6
 390 253 l 5
 420 220 l 5
 390 187 l 5
 280 187 l 6
 209.912293723 187 166 241.269807586 166 314 c 6
 167 680 l 1
EndSplineSet
Validated: 5
Substitution2: "hi-1" c.medi.hi
Substitution2: "lo-1" c.medi.lo
EndChar
StartChar: c.medi.hi
Encoding: 65547 -1 25
Width: 420
Flags: W
HStem: 409 66<0 140.876 235.772 420> 515.772 20G<160.771 194.013>
VStem: 166 60<522.588 804>
AnchorPoint: "below" 195 403 basechar 0
AnchorPoint: "above" 195 804 basechar 0
LayerCount: 2
Fore
SplineSet
0 409 m 1
 -30 442 l 1
 0 475 l 1
 68 475 l 2
 122.772460938 475 152.556640625 496.41015625 168.985351562 535.772460938 c 1
 225.178710938 490.868164062 l 1
 191.294921875 441.171875 147.051757812 409 68 409 c 2
 0 409 l 1
166 804 m 5
 226 804 l 5
 226 541 l 2
 226 498.586914062 240.958007812 475 285 475 c 2
 420 475 l 1
 450 442 l 1
 420 409 l 1
 280 409 l 2
 209.912109375 409 166 463.26953125 166 536 c 2
 166 804 l 5
EndSplineSet
Validated: 5
EndChar
StartChar: c.medi.lo
Encoding: 65546 -1 24
Width: 420
Flags: W
HStem: -33 66<0 140.876 235.772 420> 461 20G<166 226>
VStem: 166 60<80.5881 481>
AnchorPoint: "below" 194 -40 basechar 0
AnchorPoint: "above" 195 481 basechar 0
LayerCount: 2
Fore
SplineSet
166 481 m 1
 226 481 l 1
 226 99 l 2
 226 56.5869140625 240.958007812 33 285 33 c 2
 420 33 l 1
 450 0 l 1
 420 -33 l 1
 280 -33 l 2
 209.912109375 -33 166 21.26953125 166 94 c 2
 166 481 l 1
0 -33 m 1
 -30 0 l 1
 0 33 l 1
 68 33 l 2
 122.772460938 33 152.556640625 54.41015625 168.985351562 93.7724609375 c 1
 225.178710938 48.8681640625 l 1
 191.294921875 -0.828125 147.051757812 -33 68 -33 c 2
 0 -33 l 1
EndSplineSet
Validated: 5
EndChar
StartChar: d.fina.del
Encoding: 65558 -1 42
Width: 450
Flags: W
HStem: 409 66<0 257.749> 551 66<136.884 266.973>
VStem: 63 60<633.71 804> 302 60<519.239 593 676.422 804>
AnchorPoint: "above" 211 804 basechar 0
AnchorPoint: "below" 210 403 basechar 0
LayerCount: 2
Fore
SplineSet
219.325796875 198.674203125 m 5
 254.674203125 163.325796875 l 5
 97.674203125 6.325796875 l 5
 62.325796875 41.674203125 l 5
 219.325796875 198.674203125 l 5
254.674203125 41.674203125 m 5
 219.325796875 6.325796875 l 5
 62.325796875 163.325796875 l 5
 97.674203125 198.674203125 l 5
 254.674203125 41.674203125 l 5
63 804 m 1
 123 804 l 1
 123 684 l 2
 123 639.153320312 150.706054688 617 192 617 c 0
 241.907226562 617 271.383789062 635.973632812 311.83203125 676.421875 c 1
 356.421875 641.83203125 l 1
 310.137695312 585.547851562 248.599609375 551 186 551 c 0
 115.4921875 551 63 599.973632812 63 677 c 2
 63 804 l 1
362 804 m 1
 362 593 l 2
 362 453.26953125 288.087890625 409 168 409 c 2
 -0 409 l 1
 -30 442 l 1
 -0 475 l 1
 173 475 l 2
 257.041992188 475 302 513.586914062 302 589 c 2
 302 804 l 1
 362 804 l 1
EndSplineSet
Validated: 5
EndChar
StartChar: d.fina
Encoding: 65552 -1 32
Width: 450
Flags: W
HStem: 187 66<0 257.749> 399 66<136.884 266.973> 504.422 20G<291.608 337.614>
VStem: 63 60<481.71 680> 302 60<297.239 489.832 524.422 680>
AnchorPoint: "below" 204 181 basechar 0
AnchorPoint: "above" 203 680 basechar 0
LayerCount: 2
Fore
SplineSet
63 680 m 1
 123 680 l 1
 123 532 l 2
 123 487.153320312 150.706054688 465 192 465 c 0
 241.907226562 465 271.383789062 483.973632812 311.83203125 524.421875 c 1
 356.421875 489.83203125 l 1
 310.137695312 433.547851562 248.599609375 399 186 399 c 0
 115.4921875 399 63 447.973632812 63 525 c 2
 63 680 l 1
362 680 m 1
 362 371 l 2
 362 231.26953125 288.087890625 187 168 187 c 2
 0 187 l 1
 -30 220 l 1
 0 253 l 1
 173 253 l 2
 257.041992188 253 302 291.586914062 302 367 c 2
 302 680 l 1
 362 680 l 1
EndSplineSet
Validated: 5
Substitution2: "ltm-1" d.fina.ltm
EndChar
StartChar: d.fina.ltm
Encoding: 65557 -1 41
Width: 440
Flags: W
HStem: -33 66<0 257.749> 149 66<136.884 266.973> 461 20G<63 123 291.608 362>
VStem: 63 60<231.71 481> 302 60<77.2388 151 274.422 481>
AnchorPoint: "below" 199 -40 basechar 0
AnchorPoint: "above" 205 481 basechar 0
LayerCount: 2
Fore
SplineSet
63 481 m 1
 123 481 l 1
 123 282 l 2
 123 237.153320312 150.706054688 215 192 215 c 0
 241.907226562 215 271.383789062 233.973632812 311.83203125 274.421875 c 1
 356.421875 239.83203125 l 1
 310.137695312 183.547851562 248.599609375 149 186 149 c 0
 115.4921875 149 63 197.973632812 63 275 c 2
 63 481 l 1
362 481 m 1
 362 151 l 2
 362 11.26953125 288.087890625 -33 168 -33 c 2
 0 -33 l 1
 -30 0 l 1
 0 33 l 1
 173 33 l 2
 257.041992188 33 302 71.5869140625 302 147 c 2
 302 481 l 1
 362 481 l 1
EndSplineSet
Validated: 5
EndChar
StartChar: d.init
Encoding: 65550 -1 30
Width: 540
Flags: W
HStem: 187 66<399 540> 359 66<149.132 293.528> 464.422 20G<321.608 361.832>
VStem: 73 60<441.71 680> 339 60<253 439.832 484.422 680>
AnchorPoint: "below" 368 181 basechar 0
AnchorPoint: "above" 226 680 basechar 0
LayerCount: 2
Back
SplineSet
339 481 m 5
 399 481 l 5
 399 -40 l 5
 339 -40 l 5
 339 481 l 5
73 481 m 5
 133 481 l 5
 133 283 l 6
 133 238.153320312 166.706054688 216 208 216 c 4
 257.907226562 216 301.383789062 234.973632812 341.83203125 275.421875 c 5
 386.421875 230.83203125 l 5
 340.137695312 184.547851562 264.599609375 150 202 150 c 4
 131.4921875 150 73 198.973632812 73 276 c 6
 73 481 l 5
588 253 m 6
 650 253 l 5
 680 219 l 5
 650 187 l 5
 583 187 l 6
 479.879506706 187 444.522573908 68.232188771 434 -40 c 5
 373 -40 l 5
 395.208151096 107.580688982 438.5390625 253 588 253 c 6
EndSplineSet
Fore
SplineSet
339 680 m 1
 399 680 l 1
 399 253 l 5
 540 253 l 5
 570 220 l 5
 540 187 l 5
 339 187 l 5
 339 680 l 1
73 680 m 1
 133 680 l 1
 133 492 l 2
 133 447.153320312 166.706054688 425 208 425 c 0
 257.907226562 425 301.383789062 443.973632812 341.83203125 484.421875 c 1
 386.421875 439.83203125 l 1
 340.137695312 393.547851562 264.599609375 359 202 359 c 0
 131.4921875 359 73 407.973632812 73 485 c 2
 73 680 l 1
EndSplineSet
Validated: 5
Substitution2: "mtl-1" d.init.mtl
Substitution2: "toh-1" d.init.toh
EndChar
StartChar: d.medi
Encoding: 65551 -1 31
Width: 610
Flags: W
HStem: 187 66<0 140.876 244.205 388.34 455.772 610> 461 20G<163.271 233 386 446>
VStem: 173 60<297.355 481> 386 60<303.987 481>
AnchorPoint: "above" 303 481 basechar 0
AnchorPoint: "below" 304 181 basechar 0
LayerCount: 2
Fore
SplineSet
173 481 m 1
 233 481 l 1
 233 315 l 2
 233 270.153320312 261.706054688 248 298 248 c 0
 347.907226562 248 373.383789062 261.973632812 413.83203125 302.421875 c 1
 458.421875 257.83203125 l 1
 412.137695312 211.547851562 354.599609375 182 292 182 c 0
 231.4921875 182 173 230.973632812 173 308 c 2
 173 481 l 1
386 481 m 1
 446 481 l 1
 446 319 l 2
 446 276.586914062 460.958007812 253 505 253 c 2
 610 253 l 1
 640 220 l 1
 610 187 l 1
 500 187 l 2
 429.912109375 187 386 241.26953125 386 314 c 2
 386 481 l 1
0 187 m 1
 -30 220 l 1
 0 253 l 1
 68 253 l 2
 122.772724824 253 152.556640625 274.41015625 173.985351562 313.772460938 c 1
 225.178280746 268.868275994 l 1
 191.294637584 219.172266022 147.052201772 187 68 187 c 2
 0 187 l 1
EndSplineSet
Validated: 5
Substitution2: "hi-1" d.medi.hi
Substitution2: "lo-1" d.medi.lo
EndChar
StartChar: d.medi.hi
Encoding: 65556 -1 40
Width: 610
Flags: W
HStem: 409 66<0 140.876 244.205 388.34 455.772 610> 504.422 31.3506G<163.271 196.786 393.608 433.832>
VStem: 173 60<519.355 680> 386 60<525.987 680>
AnchorPoint: "below" 305 403 basechar 0
AnchorPoint: "above" 306 680 basechar 0
LayerCount: 2
Fore
SplineSet
173 680 m 1
 233 680 l 1
 233 537 l 2
 233 492.153320312 261.706054688 470 298 470 c 0
 347.907226562 470 373.383789062 483.973632812 413.83203125 524.421875 c 1
 458.421875 479.83203125 l 1
 412.137695312 433.547851562 354.599609375 404 292 404 c 0
 231.4921875 404 173 452.973632812 173 530 c 2
 173 680 l 1
386 680 m 1
 446 680 l 1
 446 541 l 2
 446 498.586914062 460.958007812 475 505 475 c 2
 610 475 l 1
 640 442 l 1
 610 409 l 1
 500 409 l 2
 429.912109375 409 386 463.26953125 386 536 c 2
 386 680 l 1
-0 409 m 1
 -30 442 l 1
 -0 475 l 1
 68 475 l 2
 122.772460938 475 152.556640625 496.41015625 173.985351562 535.772460938 c 1
 225.178710938 490.868164062 l 1
 191.294921875 441.171875 147.051757812 409 68 409 c 2
 -0 409 l 1
EndSplineSet
Validated: 5
EndChar
StartChar: d.medi.lo
Encoding: 65555 -1 39
Width: 610
Flags: W
HStem: -33 66<0 140.876 244.205 388.34 455.772 610>
VStem: 173 60<77.3552 259> 386 60<83.9869 259>
AnchorPoint: "above" 306 259 basechar 0
AnchorPoint: "below" 305 -40 basechar 0
LayerCount: 2
Fore
SplineSet
173 259 m 1
 233 259 l 1
 233 95 l 2
 233 50.1533203125 261.706054688 28 298 28 c 0
 347.907226562 28 373.383789062 41.9736328125 413.83203125 82.421875 c 1
 458.421875 37.83203125 l 1
 412.137695312 -8.4521484375 354.599609375 -38 292 -38 c 0
 231.4921875 -38 173 10.9736328125 173 88 c 2
 173 259 l 1
386 259 m 1
 446 259 l 1
 446 99 l 2
 446 56.5869140625 460.958007812 33 505 33 c 2
 610 33 l 1
 640 0 l 1
 610 -33 l 1
 500 -33 l 2
 429.912109375 -33 386 21.26953125 386 94 c 2
 386 259 l 1
0 -33 m 1
 -30 0 l 1
 0 33 l 1
 68 33 l 2
 122.772460938 33 152.556640625 54.41015625 173.985351562 93.7724609375 c 1
 225.178710938 48.8681640625 l 1
 191.294921875 -0.828125 147.051757812 -33 68 -33 c 2
 0 -33 l 1
EndSplineSet
Validated: 5
EndChar
StartChar: e.mark
Encoding: 65712 -1 240
Width: 0
Flags: W
HStem: 535 126
VStem: -108 206
AnchorPoint: "above" 0 481 mark 0
LayerCount: 2
Fore
SplineSet
-65 535 m 5
 -108 535 l 5
 -108 545 l 5
 12 661 l 5
 98 661 l 21
 98 642 l 5
 -65 535 l 5
EndSplineSet
Validated: 1
EndChar
StartChar: e.mark.long
Encoding: 65713 -1 241
Width: 0
Flags: W
HStem: 535 43<-138 -79.0831> 665 42<-2.93263 56.7497>
VStem: -45 40<602.768 662.812> 59 38<602.796 661.005>
AnchorPoint: "above" 0 481 mark 0
LayerCount: 2
Fore
SplineSet
-128 535 m 5
 -138 535 l 5
 -138 578 l 5
 -34.1494140625 590.634765625 l 5
 -40.9345703125 601.735351562 -45 615.322265625 -45 631 c 4
 -45 677 -14 707 28 707 c 4
 63 707 97 677 97 631 c 4
 97 590.345703125 74.49609375 562.72265625 40 558 c 6
 -128 535 l 5
59 633 m 4
 59 654 41 665 25 665 c 4
 7 665 -5 651 -5 632 c 4
 -5 611 12 600 28 600 c 4
 46 600 59 614 59 633 c 4
EndSplineSet
Validated: 1
LCarets2: 1 0
Ligature2: "long-vowel-1" e.mark e
EndChar
StartChar: f.fina.del
Encoding: 65567 -1 52
Width: 590
Flags: W
HStem: 409 66<0 130.614 368.209 533.549> 429 66<484.129 540> 516 66<234.598 459.345> 637 66<369.655 458.732>
VStem: 166 60<509.824 593 601 804> 292 60<472.036 619.206> 460 60<586.127 633.455>
AnchorPoint: "above" 196 804 basechar 0
AnchorPoint: "below" 275 403 basechar 0
LayerCount: 2
Back
SplineSet
540 495 m 1
 540 372 l 1
 480 372 l 1
 480 429 l 1
 540 495 l 1
EndSplineSet
Fore
SplineSet
219.325796875 198.674203125 m 5x3e
 254.674203125 163.325796875 l 5
 97.674203125 6.325796875 l 5
 62.325796875 41.674203125 l 5
 219.325796875 198.674203125 l 5x3e
254.674203125 41.674203125 m 5
 219.325796875 6.325796875 l 5
 62.325796875 163.325796875 l 5
 97.674203125 198.674203125 l 5
 254.674203125 41.674203125 l 5
226 804 m 1
 226 593 l 2
 226 453.26953125 168.087890625 409 48 409 c 2
 -0 409 l 1
 -30 442 l 1
 -0 475 l 1
 53 475 l 2xbe
 137.041992188 475 166 513.586914062 166 589 c 2
 166 804 l 1
 226 804 l 1
460 608 m 3
 460 625.221679688 445.018554688 637 415 637 c 3
 384.5859375 637 352 612.8046875 352 556 c 3
 352 487 388 469 438 469 c 3
 473 469 503 479 530 495 c 1
 540 495 l 1
 540 429 l 1x7e
 505 408 480 403 437 403 c 3
 360 403 292 454.884765625 292 551 c 3
 292 645.825195312 346.969726562 703 414 703 c 3
 474.241210938 703 520 662.010742188 520 609 c 3
 520 546.8671875 483 516 407 516 c 2
 292 516 l 2
 237.90234375 516 200.578125 552.169921875 181.287109375 601 c 1
 226 655 l 1
 226 602.634765625 235.5078125 582 292 582 c 2
 407 582 l 2
 446.2109375 582 460 592 460 608 c 3
EndSplineSet
Validated: 5
EndChar
StartChar: f.fina
Encoding: 65561 -1 46
Width: 590
Flags: W
HStem: 187 66<0 130.614 368.209 533.549> 207 66<484.129 540> 294 66<234.598 459.345> 413 20G<209.44 226> 415 66<369.655 458.732>
VStem: 166 60<287.824 371 379 680> 292 60<250.036 397.206> 460 60<364.127 411.455>
AnchorPoint: "above" 196 680 basechar 0
AnchorPoint: "below" 278 181 basechar 0
LayerCount: 2
Fore
SplineSet
226 680 m 1xa7
 226 371 l 2
 226 231.26953125 168.087890625 187 48 187 c 2
 0 187 l 1
 -30 220 l 1
 0 253 l 1
 53 253 l 2
 137.041992188 253 166 291.586914062 166 367 c 2
 166 680 l 1
 226 680 l 1xa7
460 386 m 3
 460 403.221679688 445.018554688 415 415 415 c 3
 384.5859375 415 352 390.8046875 352 334 c 3
 352 265 388 247 438 247 c 3
 473 247 503 257 530 273 c 1
 540 273 l 1
 540 207 l 1
 505 186 480 181 437 181 c 3
 360 181 292 232.884765625 292 329 c 3
 292 423.825195312 346.969726562 481 414 481 c 3x6f
 474.241210938 481 520 440.010742188 520 387 c 3
 520 324.8671875 483 294 407 294 c 2
 292 294 l 2
 237.902770266 294 200.577788523 330.170285325 181.287384176 378.999997876 c 1
 226 433 l 1x37
 226 380.634625778 235.507572061 360 292 360 c 2
 407 360 l 2
 446.2109375 360 460 370 460 386 c 3
EndSplineSet
Validated: 5
Substitution2: "ltm-1" f.fina.ltm
EndChar
StartChar: f.fina.ltm
Encoding: 65566 -1 51
Width: 590
Flags: W
HStem: -33 66<0 130.614 368.209 533.549> -13 66<484.129 540> 74 66<234.598 459.345> 193 66<369.124 458.979> 461 20G<166 226>
VStem: 166 60<67.8244 151 159 481> 292 60<30.0364 176.485> 460 60<144.127 189.469>
AnchorPoint: "above" 196 481 basechar 0
AnchorPoint: "below" 278 -39 basechar 0
LayerCount: 2
Back
SplineSet
540 53 m 5
 540 -70 l 5
 480 -70 l 5
 480 -13 l 5
 540 53 l 5
EndSplineSet
Fore
SplineSet
226 481 m 1xbf
 226 151 l 2
 226 11.26953125 168.087890625 -33 48 -33 c 2
 0 -33 l 1
 -30 0 l 1
 0 33 l 1
 53 33 l 2
 137.041992188 33 166 71.5869140625 166 147 c 2
 166 481 l 1
 226 481 l 1xbf
460 166 m 3
 460 183.221679688 445.018554688 193 415 193 c 3
 384.5859375 193 352 170.8046875 352 114 c 3
 352 45 388 27 438 27 c 3
 473 27 503 37 530 53 c 1
 540 53 l 1
 540 -13 l 1x7f
 505 -34 480 -39 437 -39 c 3
 360 -39 292 12.884765625 292 109 c 3
 292 203.825195312 346.969726562 259 414 259 c 3
 474.241210938 259 520 220.010742188 520 167 c 3
 520 104.8671875 483 74 407 74 c 2
 292 74 l 2
 237.90234375 74 200.578125 110.169921875 181.287109375 159 c 1
 226 213 l 1
 226 160.634765625 235.5078125 140 292 140 c 2
 407 140 l 2
 446.2109375 140 460 150 460 166 c 3
EndSplineSet
Validated: 5
EndChar
StartChar: f.init
Encoding: 65559 -1 44
Width: 510
Flags: W
HStem: 187 66<196.259 510> 338 66<199.703 323.026> 456 66<178.68 323.232> 572.808 21G<392.817 428> 614 66<183.865 379.858>
VStem: 81 60<298.963 422.695 460.769 569.458> 324 60<407.615 451.263>
AnchorPoint: "above" 266 680 basechar 0
AnchorPoint: "below" 278 181 basechar 0
LayerCount: 2
Fore
SplineSet
294 187 m 3
 195 187 81 234 81 349 c 3
 81 452 166 522 271 522 c 3
 345 522 384 485 384 431 c 3
 384 374 341 338 276 338 c 3
 194 338 88 416 88 524 c 3
 88 625 168.369140625 680 261 680 c 3
 330.3984375 680 379.232421875 666.250976562 428 641.060546875 c 1
 428 572.807617188 l 25
 418 572.807617188 l 1
 367.634765625 602.505859375 320.200195312 614 256 614 c 3
 193.607421875 614 148 576.306640625 148 521 c 3
 148 447 211 404 276 404 c 3
 313 404 324 416 324 433 c 3
 324 449 295 456 271 456 c 3
 187 456 141 420.006835938 141 349 c 3
 141 284 221 253 304 253 c 3
 510 253 l 1
 540 220 l 1
 510 187 l 1
 294 187 l 3
EndSplineSet
Validated: 5
Substitution2: "toh-1" f.init.toh
Substitution2: "mtl-1" f.init.mtl
EndChar
StartChar: f.init.mtl
Encoding: 65563 -1 48
Width: 520
Flags: W
HStem: -33 66<185.435 520> 129 66<199.703 323.026> 247 66<189.115 323.611> 377.808 68.2529<370.975 438> 415 66<186.657 393.342>
VStem: 81 60<74.2254 206.193 251.769 365.279> 324 60<198.615 243.956>
AnchorPoint: "below" 278 -39 basechar 0
AnchorPoint: "above" 276 481 basechar 0
LayerCount: 2
Fore
SplineSet
274 -33 m 2xee
 175 -33 81 23 81 130 c 3
 81 233 173 313 278 313 c 3
 352 313 384 276 384 222 c 3
 384 165 341 129 276 129 c 3
 194 129 88 207 88 315 c 3
 88 416 168.369140625 481 261 481 c 3xee
 320.3984375 481 389.232421875 468.250976562 438 446.060546875 c 1
 438 377.807617188 l 25
 428 377.807617188 l 1xf6
 377.634765625 403.505859375 320.200195312 415 256 415 c 3
 188.607421875 415 148 367.306640625 148 312 c 3
 148 238 211 195 276 195 c 3
 313 195 324 207 324 224 c 3
 324 240 302 247 278 247 c 3
 194 247 141 201.007041904 141 130 c 3
 141 75 191 33 274 33 c 2
 520 33 l 1
 550 0 l 1
 520 -33 l 1
 274 -33 l 2xee
EndSplineSet
Validated: 5
EndChar
StartChar: f.init.toh
Encoding: 65562 -1 47
Width: 570
Flags: W
HStem: -40 66<193.759 377.014> 129 66<199.703 323.026> 247 66<189.115 323.611> 258.109 20G<556.11 590> 377.808 68.2529<370.975 438> 415 66<186.657 393.342>
VStem: 81 60<73.7511 206.193 251.769 365.279> 324 60<198.615 243.956>
AnchorPoint: "above" 276 481 basechar 0
AnchorPoint: "below" 278 -39 basechar 0
LayerCount: 2
Fore
SplineSet
284 -40 m 3xd3
 175 -40 81 23 81 130 c 3
 81 233 173 313 278 313 c 3
 352 313 384 276 384 222 c 3
 384 165 341 129 276 129 c 3
 194 129 88 207 88 315 c 3
 88 416 168.369140625 481 261 481 c 3xe7
 320.3984375 481 389.232421875 468.250976562 438 446.060546875 c 1
 438 377.807617188 l 25
 428 377.807617188 l 1xcb
 377.634765625 403.505859375 320.200195312 415 256 415 c 3
 188.607421875 415 148 367.306640625 148 312 c 3
 148 238 211 195 276 195 c 3
 313 195 324 207 324 224 c 3
 324 240 302 247 278 247 c 3xe7
 194 247 141 201.007041904 141 130 c 3
 141 75 196 26 284 26 c 3
 359 26 417.134765625 58 472 137 c 2
 570 278.109375 l 1
 590 278.109375 l 1
 570 169.634765625 l 1
 519.646484375 96.900390625 l 2
 452.563476562 0 384 -40 284 -40 c 3xd3
EndSplineSet
Validated: 5
EndChar
StartChar: f.medi
Encoding: 65560 -1 45
Width: 580
Flags: W
HStem: 187 66<0 130.614 377.513 580> 294 66<234.598 459.345> 413 20G<209.44 226> 415 66<369.124 458.732>
VStem: 166 60<287.824 371 379 680> 292 60<260.157 398.804> 460 60<364.127 411.455>
AnchorPoint: "below" 278 181 basechar 0
AnchorPoint: "above" 196 680 basechar 0
LayerCount: 2
Back
SplineSet
196 607 m 5
 196 433 l 21
 196 366 221.198242188 327 292 327 c 7
 309.57421875 327 358.108962093 327 377 327 c 7
 432.081757416 327 460 340 460 384 c 31
 460 423 422 442 376 442 c 7
 329.729058795 442 292 407.08984375 292 327 c 7
 292 250.89453125 349 220 413 220 c 5
 502 220 l 1053
0 187 m 1
 -30 220 l 1
 0 253 l 1
 68 253 l 2
 122.772460938 253 152.556640625 274.41015625 168.985351562 313.772460938 c 1
 225.178710938 268.868164062 l 1
 191.294921875 219.171875 147.051757812 187 68 187 c 2
 0 187 l 1
166 650 m 1
 226 650 l 1
 226 319 l 2
 226 276.586914062 240.958007812 253 285 253 c 2
 390 253 l 1
 420 220 l 1
 390 187 l 1
 280 187 l 2
 209.912293723 187 166 241.269807586 166 314 c 2
 166 650 l 1
EndSplineSet
Fore
SplineSet
226 680 m 1xce
 226 371 l 2
 226 231.26953125 168.087890625 187 48 187 c 2
 0 187 l 1
 -30 220 l 1
 0 253 l 1
 53 253 l 2
 137.041992188 253 166 291.586914062 166 367 c 2
 166 680 l 1
 226 680 l 1xce
460 386 m 3
 460 403.221679688 445.018554688 415 415 415 c 3
 384.5859375 415 352 392.8046875 352 339 c 3
 352 279.4296875 388 253 450 253 c 2
 580 253 l 1
 610 220 l 1
 580 187 l 1
 443 187 l 2
 367 187 292 240.884765625 292 334 c 3
 292 423.825195312 346.969726562 481 414 481 c 3xde
 474.241210938 481 520 440.010742188 520 387 c 3
 520 324.8671875 483 294 407 294 c 2
 292 294 l 2
 237.902770266 294 200.577788523 330.170285325 181.287384176 378.999997876 c 1
 226 433 l 1xee
 226 380.634625778 235.507572061 360 292 360 c 2
 407 360 l 2
 446.2109375 360 460 370 460 386 c 3
EndSplineSet
Validated: 5
Substitution2: "hi-1" f.medi.hi
Substitution2: "lo-1" f.medi.lo
EndChar
StartChar: f.medi.hi
Encoding: 65565 -1 50
Width: 580
Flags: W
HStem: 409 66<-0.00195312 130.612 377.511 579.998> 516 66<234.596 459.343> 637 66<369.122 458.73>
VStem: 165.998 60<509.824 593 601 804> 291.998 60<482.157 620.804> 459.998 60<586.127 633.455>
AnchorPoint: "below" 275 403 basechar 0
AnchorPoint: "above" 196 804 basechar 0
LayerCount: 2
Fore
SplineSet
225.998046875 804 m 1
 225.998046875 593 l 2
 225.998046875 453.26953125 168.0859375 409 47.998046875 409 c 2
 -0.001953125 409 l 1
 -30.001953125 442 l 1
 -0.001953125 475 l 1
 52.998046875 475 l 2
 137.040039062 475 165.998046875 513.586914062 165.998046875 589 c 2
 165.998046875 804 l 1
 225.998046875 804 l 1
459.998046875 608 m 3
 459.998046875 625.221679688 445.016601562 637 414.998046875 637 c 3
 384.583984375 637 351.998046875 614.8046875 351.998046875 561 c 3
 351.998046875 501.4296875 387.998046875 475 449.998046875 475 c 2
 579.998046875 475 l 1
 609.998046875 442 l 1
 579.998046875 409 l 1
 442.998046875 409 l 2
 366.998046875 409 291.998046875 462.884765625 291.998046875 556 c 3
 291.998046875 645.825195312 346.967773438 703 413.998046875 703 c 3
 474.239257812 703 519.998046875 662.010742188 519.998046875 609 c 3
 519.998046875 546.8671875 482.998046875 516 406.998046875 516 c 2
 291.998046875 516 l 2
 237.900390625 516 200.576171875 552.169921875 181.28515625 601 c 1
 225.998046875 655 l 1
 225.998046875 602.634765625 235.505859375 582 291.998046875 582 c 2
 406.998046875 582 l 2
 446.208984375 582 459.998046875 592 459.998046875 608 c 3
EndSplineSet
Validated: 5
EndChar
StartChar: f.medi.lo
Encoding: 65564 -1 49
Width: 580
Flags: W
HStem: -33 66<0 130.614 377.513 580> 74 66<234.598 459.345> 193 66<368.605 458.979> 461 20G<166 226>
VStem: 166 60<67.8244 151 159 481> 292 60<40.1572 178.083> 460 60<144.127 189.469>
AnchorPoint: "below" 278 -39 basechar 0
AnchorPoint: "above" 196 481 basechar 0
LayerCount: 2
Fore
SplineSet
226 481 m 1
 226 151 l 2
 226 11.26953125 168.087890625 -33 48 -33 c 2
 0 -33 l 1
 -30 0 l 1
 0 33 l 1
 53 33 l 2
 137.041992188 33 166 71.5869140625 166 147 c 2
 166 481 l 1
 226 481 l 1
460 166 m 3
 460 183.221679688 445.018554688 193 415 193 c 3
 384.5859375 193 352 172.8046875 352 119 c 3
 352 59.4296875 388 33 450 33 c 2
 580 33 l 1
 610 0 l 1
 580 -33 l 1
 443 -33 l 2
 367 -33 292 20.884765625 292 114 c 3
 292 203.825195312 346.969726562 259 414 259 c 3
 474.241210938 259 520 220.010742188 520 167 c 3
 520 104.8671875 483 74 407 74 c 2
 292 74 l 2
 237.90234375 74 200.578125 110.169921875 181.287109375 159 c 1
 226 213 l 1
 226 160.634765625 235.5078125 140 292 140 c 2
 407 140 l 2
 446.2109375 140 460 150 460 166 c 3
EndSplineSet
Validated: 5
EndChar
StartChar: g.fina
Encoding: 65570 -1 55
Width: 430
Flags: W
HStem: 187 66<0 162.034> 454 98<77 215> 486 66<77 324>
AnchorPoint: "below" 235 181 basechar 0
AnchorPoint: "above" 257 558 basechar 0
LayerCount: 2
Fore
SplineSet
196 308 m 2xa0
 324 486 l 1
 77 486 l 1xa0
 77 552 l 1xc0
 403 552 l 1
 403 491 l 1
 257 288 l 2
 217.711914062 233.374023438 175.412109375 187 61 187 c 2
 0 187 l 1
 -30 220 l 25
 0 253 l 1
 62 253 l 1
 140 253 172.197265625 274.900390625 196 308 c 2xa0
190 239 m 1
 62 253 l 1
 225 253 215 454 77 454 c 1xc0
 77 498 l 1
 209 516 288 388 190 239 c 1
EndSplineSet
Validated: 37
Substitution2: "hi-1" g.fina.hi
Substitution2: "lo-1" g.fina.lo
EndChar
StartChar: g.fina.hi
Encoding: 65576 -1 61
Width: 420
Flags: W
HStem: 409 66<0 129.292> 506 21G<186.5 204> 732 66<75 322>
AnchorPoint: "below" 255 403 basechar 0
AnchorPoint: "above" 255 804 basechar 0
LayerCount: 2
Fore
SplineSet
204 519 m 1
 149 506 l 1
 224 605 164 672 75 700 c 1
 75 751 l 1
 179 729 290 652 204 519 c 1
166 530 m 2
 322 732 l 1
 75 732 l 1
 75 798 l 1
 401 798 l 1
 401 737 l 1
 227 510 l 2
 186.3984375 456.331054688 145.412109375 409 31 409 c 2
 0 409 l 1
 -30 442 l 25
 0 475 l 1
 32 475 l 1
 110 475 141.303710938 497.545898438 166 530 c 2
EndSplineSet
Validated: 37
EndChar
StartChar: g.fina.lo
Encoding: 65575 -1 60
Width: 430
Flags: W
HStem: -33 66<0 162.034> 232 98<77 215> 264 66<77 324>
AnchorPoint: "below" 235 -40 basechar 0
AnchorPoint: "above" 257 336 basechar 0
LayerCount: 2
Fore
SplineSet
196 88 m 2xa0
 324 264 l 1
 77 264 l 1xa0
 77 330 l 1xc0
 403 330 l 1
 403 269 l 1
 257 68 l 2
 217.711914062 13.3740234375 175.412109375 -33 61 -33 c 2
 0 -33 l 1
 -30 0 l 25
 0 33 l 1
 62 33 l 1
 140 33 172.197265625 54.900390625 196 88 c 2xa0
190 19 m 1
 62 33 l 1
 225 33 215 232 77 232 c 1xc0
 77 276 l 1
 209 294 288 168 190 19 c 1
EndSplineSet
Validated: 37
EndChar
StartChar: g.init
Encoding: 65568 -1 53
Width: 540
Flags: W
HStem: 187 66<150 540> 608 66<85 332>
AnchorPoint: "above" 265 680 basechar 0
AnchorPoint: "below" 265 181 basechar 0
LayerCount: 2
Fore
SplineSet
540 253 m 1
 570 220 l 1
 540 187 l 1
 71 187 l 1
 71 248 l 1
 332 608 l 1
 85 608 l 1
 85 674 l 1
 411 674 l 1
 411 613 l 1
 150 253 l 1
 540 253 l 1
EndSplineSet
Validated: 1
Substitution2: "mtl-1" g.init.mtl
Substitution2: "toh-1" g.init.toh
EndChar
StartChar: g.init.mtl
Encoding: 65572 -1 57
Width: 540
Flags: W
HStem: -33 66<150 540> 409 66<85 342>
AnchorPoint: "below" 275 -40 basechar 0
AnchorPoint: "above" 275 481 basechar 0
LayerCount: 2
Fore
SplineSet
540 33 m 1
 570 0 l 5
 540 -33 l 1
 71 -33 l 1
 71 28 l 1
 342 409 l 1
 85 409 l 1
 85 475 l 1
 421 475 l 1
 421 414 l 1
 150 33 l 1
 540 33 l 1
EndSplineSet
Validated: 1
EndChar
StartChar: g.init.toh
Encoding: 65571 -1 56
Width: 600
Flags: W
HStem: -33 66<150 434.754> 258.109 20G<586.063 620> 409 66<85 342>
AnchorPoint: "below" 275 -40 basechar 0
AnchorPoint: "above" 275 481 basechar 0
LayerCount: 2
Fore
SplineSet
600 169.634765625 m 1
 530.536132812 69.9501953125 l 2
 497.18359375 22.087890625 448 -33 368.999023438 -33 c 1
 360 33 l 1
 420 33 446.052734375 57.1865234375 482.889648438 110.049804688 c 2
 600 278.109375 l 1
 620 278.109375 l 1
 600 169.634765625 l 1
368.999023438 33 m 1
 368.999023438 -33 l 1
 71 -33 l 1
 71 28 l 1
 342 409 l 1
 85 409 l 1
 85 475 l 1
 421 475 l 1
 421 414 l 1
 150 33 l 1
 368.999023438 33 l 1
EndSplineSet
Validated: 5
EndChar
StartChar: g.medi
Encoding: 65569 -1 54
Width: 570
Flags: W
HStem: 187 66<0 198.791 301.66 570> 288 20G<224 248.222> 486 66<108 355> 486 22<108 232>
AnchorPoint: "below" 265 181 basechar 0
AnchorPoint: "above" 268 558 basechar 0
LayerCount: 2
Fore
SplineSet
102 253 m 1xc0
 180 253 212 274 236 308 c 1
 258 272 l 1
 234 220 183 187 101 187 c 1
 0 187 l 1
 -30 220 l 25
 0 253 l 1
 102 253 l 1xc0
570 253 m 1
 600 220 l 1
 570 187 l 1
 342 187 l 1
 293 187 255 207 243 251 c 1
 219 284 l 1
 355 486 l 1
 108 486 l 1
 108 552 l 1
 434 552 l 1xe0
 434 491 l 1
 297 288 l 1
 302 259 321 253 352 253 c 1
 570 253 l 1
232 244 m 1
 102 253 l 1
 260 259 244 442 108 454 c 1
 108 508 l 1xd0
 232 510 328 416 232 244 c 1
EndSplineSet
Validated: 37
Substitution2: "hi-1" g.medi.hi
Substitution2: "lo-1" g.medi.lo
EndChar
StartChar: g.medi.hi
Encoding: 65574 -1 59
Width: 540
Flags: W
HStem: 409 66<0 131.948 231.3 540> 506 21G<186.5 204> 510 20G<154 176.667> 732 66<75 322>
AnchorPoint: "below" 315 402 basechar 0
AnchorPoint: "above" 255 804 basechar 0
LayerCount: 2
Fore
SplineSet
32 475 m 1xb0
 110 475 142 496 166 530 c 1
 198 470 l 1
 170 430 113 409 31 409 c 1
 0 409 l 1
 -30 442 l 25
 0 475 l 1
 32 475 l 1xb0
540 475 m 1
 570 442 l 1
 540 409 l 1
 262 409 l 1
 225 409 187 437 182 467 c 1
 149 506 l 1xd0
 322 732 l 1
 75 732 l 1
 75 798 l 1
 401 798 l 1
 401 737 l 1
 227 510 l 1
 232 481 251 475 282 475 c 1
 540 475 l 1
204 519 m 1
 149 506 l 1
 224 605 164 672 75 700 c 1
 75 754 l 1
 179 732 290 652 204 519 c 1
EndSplineSet
Validated: 37
EndChar
StartChar: g.medi.lo
Encoding: 65573 -1 58
Width: 570
Flags: W
HStem: -33 66<0 198.791 301.66 570> 264 66<116 363> 264 22<116 240>
AnchorPoint: "below" 275 -40 basechar 0
AnchorPoint: "above" 276 336 basechar 0
LayerCount: 2
Fore
SplineSet
102 33 m 1x80
 180 33 212 54 236 88 c 1
 258 52 l 1
 234 0 183 -33 101 -33 c 1
 0 -33 l 1
 -30 0 l 25
 0 33 l 1
 102 33 l 1x80
570 33 m 1
 600 0 l 1
 570 -33 l 1
 342 -33 l 1
 293 -33 255 -13 243 31 c 1
 219 64 l 1
 363 264 l 1
 116 264 l 1
 116 330 l 1
 442 330 l 1xc0
 442 269 l 1
 297 68 l 1
 302 39 321 33 352 33 c 1
 570 33 l 1
232 24 m 1
 102 33 l 1
 260 39 252 220 116 232 c 1
 116 286 l 1xa0
 240 288 328 196 232 24 c 1
EndSplineSet
Validated: 37
EndChar
StartChar: h.fina.htm
Encoding: 65582 -1 67
Width: 670
Flags: W
HStem: -40 66<310.249 473.26> 187 66<0 95.6711 397.09 730> 414 66<225 468.622>
VStem: 181 60<100.294 271.317> 536 60<99.8057 342.068>
AnchorPoint: "below" 330 -40 basechar 0
AnchorPoint: "above" 330 482 basechar 0
LayerCount: 2
Fore
SplineSet
137 253 m 25
 510 253 l 1
 510 187 l 1
 134 187 l 25
 137 253 l 25
0 409 m 1
 -30 442 l 1
 0 475 l 1
 203 475 147 481 327 481 c 1
 326 415 l 1
 165 415 248 409 0 409 c 1
327 481 m 0
 430 481 536 416 536 232 c 0
 536 22 437 -40 329 -40 c 0
 229 -40 121 25 121 220 c 0
 121 416 254 481 327 481 c 0
476 232 m 0
 476 359 415 415 326 415 c 0
 248 415 181 350 181 220 c 0
 181 77 250 26 330 26 c 0
 425 26 476 77 476 232 c 0
EndSplineSet
Validated: 5
EndChar
StartChar: h.init
Encoding: 65577 -1 62
Width: 630
Flags: W
HStem: -40 66<310.249 473.26> 187 66<0 95.6711 397.09 730> 414 66<225 468.622>
VStem: 181 60<100.294 271.317> 536 60<99.8057 342.068>
AnchorPoint: "below" 288 -40 basechar 0
AnchorPoint: "above" 288 481 basechar 0
LayerCount: 2
Fore
SplineSet
110 253 m 6
 630 253 l 5
 660 220 l 5
 630 187 l 5
 107 187 l 6
 110 253 l 6
287 480 m 0
 390 480 496 416 496 232 c 0
 496 22 397 -40 289 -40 c 0
 189 -40 81 25 81 220 c 0
 81 416 214 480 287 480 c 0
436 232 m 0
 436 359 375 414 286 414 c 0
 208 414 141 350 141 220 c 0
 141 77 210 26 290 26 c 0
 385 26 436 77 436 232 c 0
EndSplineSet
Validated: 5
EndChar
StartChar: h.medi.fml
Encoding: 65580 -1 65
Width: 730
Flags: W
HStem: -40 66<310.249 473.26> 187 66<0 95.6711 397.09 730> 414 66<225 468.622>
VStem: 181 60<100.294 271.317> 536 60<99.8057 342.068>
AnchorPoint: "below" 390 -40 basechar 0
AnchorPoint: "above" 390 481 basechar 0
LayerCount: 2
Fore
SplineSet
387 480 m 0
 490 480 596 416 596 232 c 0
 596 22 497 -40 389 -40 c 0
 289 -40 181 25 181 220 c 0
 181 416 314 480 387 480 c 0
536 232 m 0
 536 359 475 414 386 414 c 0
 308 414 241 350 241 220 c 0
 241 77 310 26 390 26 c 0
 485 26 536 77 536 232 c 0
0 170 m 5
 -20 170 l 29
 0 278 l 5
 105 429 207 480 387 480 c 5
 386 414 l 5
 225 414 157 399 0 170 c 5
249 97 m 1
 218 156 l 1
 330 224 449 253 570 253 c 2
 730 253 l 1
 760 220 l 1
 730 187 l 1
 567 187 l 2
 479.754882812 187 362 180 249 97 c 1
EndSplineSet
Validated: 5
EndChar
StartChar: h.medi
Encoding: 65578 -1 63
Width: 730
Flags: W
HStem: -40 66<310.249 473.26> 187 66<0 95.6711 397.09 730> 414 66<225 468.622>
VStem: 181 60<100.294 271.317> 536 60<99.8057 342.068>
AnchorPoint: "below" 390 -40 basechar 0
AnchorPoint: "above" 390 481 basechar 0
LayerCount: 2
Fore
SplineSet
249 97 m 1
 218 156 l 1
 330 224 449 253 570 253 c 2
 730 253 l 1
 760 220 l 1
 730 187 l 1
 567 187 l 2
 479.754882812 187 362 180 249 97 c 1
387 480 m 0
 490 480 596 416 596 232 c 0
 596 22 497 -40 389 -40 c 0
 289 -40 181 25 181 220 c 0
 181 416 314 480 387 480 c 0
536 232 m 0
 536 359 475 414 386 414 c 0
 308 414 241 350 241 220 c 0
 241 77 310 26 390 26 c 0
 485 26 536 77 536 232 c 0
0 187 m 1
 -30 220 l 1
 0 253 l 1
 203 253 207 480 387 480 c 1
 386 414 l 1
 225 414 248 187 0 187 c 1
EndSplineSet
Validated: 5
Substitution2: "htm-1" h.medi.htm
Substitution2: "mtl-1" h.medi.mtl
Substitution2: "fml-1" h.medi.fml
EndChar
StartChar: h.medi.htm
Encoding: 65583 -1 68
Width: 650
Flags: W
HStem: -40 66<230.249 393.26> 187 66<123 650> 415 66<0 388.622>
VStem: 120 41<187 253> 456 60<99.8057 342.284>
AnchorPoint: "below" 310 -40 basechar 0
AnchorPoint: "above" 310 482 basechar 0
LayerCount: 2
Fore
SplineSet
123 253 m 6
 650 253 l 5
 680 220 l 5
 650 187 l 5
 120 187 l 6
 123 253 l 6
0 409 m 1
 -30 442 l 1
 0 475 l 1
 203 475 127 481 307 481 c 5
 306 415 l 5
 145 415 248 409 0 409 c 1
307 481 m 4
 410 481 516 416 516 232 c 4
 516 22 417 -40 309 -40 c 4
 209 -40 101 25 101 220 c 4
 101 416 234 481 307 481 c 4
456 232 m 4
 456 359 395 415 306 415 c 4
 228 415 161 350 161 220 c 4
 161 77 230 26 310 26 c 4
 405 26 456 77 456 232 c 4
EndSplineSet
Validated: 5
EndChar
StartChar: h.medi.mtl
Encoding: 65581 -1 66
Width: 650
Flags: W
HStem: -230 66<231.746 399.965> -33 66<123 650> 194 66<0 395.383>
VStem: 120 44<-33 33> 459 60<-97.3428 126.618>
AnchorPoint: "below" 313 -230 basechar 0
AnchorPoint: "above" 313 261 basechar 0
LayerCount: 2
Fore
SplineSet
123 33 m 6
 650 33 l 5
 680 0 l 5
 650 -33 l 5
 120 -33 l 6
 123 33 l 6
310 260 m 4
 413 260 519 201 519 27 c 4
 519 -173 420 -230 312 -230 c 4
 212 -230 104 -170 104 15 c 4
 104 201 237 260 310 260 c 4
459 27 m 4
 459 144 398 194 309 194 c 4
 231 194 164 135 164 15 c 4
 164 -118 233 -164 313 -164 c 4
 408 -164 459 -118 459 27 c 4
0 187 m 1
 -30 220 l 1
 0 253 l 1
 203 253 130 260 310 260 c 5
 309 194 l 5
 148 194 248 187 0 187 c 1
EndSplineSet
Validated: 5
EndChar
StartChar: i.mark
Encoding: 65714 -1 242
Width: 0
Flags: W
HStem: -216 55<-15 86> -90 20G<-70 -15>
VStem: -70 55<-161 -70>
AnchorPoint: "below" 0 -40 mark 0
LayerCount: 2
Fore
SplineSet
-70 -70 m 5
 -15 -70 l 13
 -15 -161 l 29
 86 -161 l 29
 86 -216 l 29
 -70 -216 l 29
 -70 -70 l 5
EndSplineSet
Validated: 1
EndChar
StartChar: i.mark.long
Encoding: 65715 -1 243
Width: 0
Flags: W
HStem: -216 146<-130 -75 0 55> -216 55<-75 0 55 156>
VStem: -130 55<-161 -70> 0 55<-161 -70>
AnchorPoint: "below" 0 -40 mark 0
LayerCount: 2
Fore
SplineSet
0 -70 m 5xb0
 55 -70 l 13xb0
 55 -161 l 29
 156 -161 l 29
 156 -216 l 29x70
 0 -216 l 29
 0 -70 l 5xb0
-130 -70 m 5
 -75 -70 l 13xb0
 -75 -161 l 29
 26 -161 l 5x70
 0 -216 l 29
 -130 -216 l 5
 -130 -70 l 5
EndSplineSet
Validated: 5
LCarets2: 1 0
Ligature2: "long-vowel-1" i.mark i
EndChar
StartChar: j.fina
Encoding: 65586 -1 71
Width: 570
Flags: W
HStem: -40 66<228.093 393.147> 187 66<0 391.42> 410 66<287.343 530>
VStem: 104 60<94.1022 306.632> 419 60<51.1062 159.646>
AnchorPoint: "below" 310 -40 basechar 0
AnchorPoint: "above" 310 481 basechar 0
LayerCount: 2
Fore
SplineSet
0 187 m 1
 -30 220 l 1
 0 253 l 1
 303 253 l 2
 428 253 479 200.887695312 479 113 c 0
 479 23.140625 417.439453125 -40 310 -40 c 1
 310 26 l 1
 380.7578125 26 419 50.267578125 419 110 c 0
 419 156.754882812 386 187 293 187 c 2
 0 187 l 1
310 26 m 1
 310 -40 l 1
 202.905273438 -40 104 27.69140625 104 200 c 3
 104 381.001953125 215.440429688 476 446 476 c 2
 530 476 l 5
 530 410 l 5
 449 410 l 2
 248.666992188 410 164 349.850585938 164 203 c 3
 164 63.30859375 231.094726562 26 310 26 c 1
EndSplineSet
Validated: 5
Substitution2: "ltm-1" j.fina.ltm
EndChar
StartChar: j.init
Encoding: 65584 -1 69
Width: 530
Flags: W
HStem: -234 66<209.13 373.147> -12 66<110 375.364> 188 66<251.953 530>
VStem: 110 34<-12 54> 399 60<-142.894 -35.6019>
AnchorPoint: "below" 290 -234 basechar 0
AnchorPoint: "above" 290 259 basechar 0
LayerCount: 2
Fore
SplineSet
110 -12 m 1
 110 54 l 1
 283 54 l 2
 408 54 459 6.8876953125 459 -81 c 0
 459 -170.859375 397.439453125 -234 290 -234 c 1
 290 -168 l 1
 360.7578125 -168 399 -143.732421875 399 -84 c 0
 399 -37.2451171875 366 -12 273 -12 c 2
 110 -12 l 1
290 -168 m 1
 290 -234 l 1
 182.905273438 -234 84 -166.30859375 84 -4 c 3
 84 177.001953125 195.440429688 254 426 254 c 2
 530 254 l 1
 560 220 l 1
 530 188 l 1
 429 188 l 2
 228.666992188 188 144 145.850585938 144 -1 c 3
 144 -120.69140625 211.094726562 -168 290 -168 c 1
EndSplineSet
Validated: 5
Substitution2: "mth-1" j.init.mth
Substitution2: "tol-1" j.init.tol
EndChar
StartChar: j.init.mth
Encoding: 65588 -1 73
Width: 530
Flags: W
HStem: -40 66<208.093 373.147> 182 66<110 375.364> 410 66<267.343 530>
VStem: 110 34<182 248> 399 60<51.1062 158.398>
AnchorPoint: "below" 290 -40 basechar 0
AnchorPoint: "above" 290 481 basechar 0
LayerCount: 2
Fore
SplineSet
110 182 m 1
 110 248 l 1
 283 248 l 2
 408 248 459 200.887695312 459 113 c 0
 459 23.140625 397.439453125 -40 290 -40 c 1
 290 26 l 1
 360.7578125 26 399 50.267578125 399 110 c 0
 399 156.754882812 366 182 273 182 c 2
 110 182 l 1
290 26 m 1
 290 -40 l 1
 182.905273438 -40 84 27.69140625 84 200 c 3
 84 381.002421019 195.440429688 476 426 476 c 2
 530 476 l 5
 560 442 l 5
 530 410 l 5
 429 410 l 2
 228.666992188 410 144 349.850585938 144 203 c 3
 144 63.30859375 211.094726562 26 290 26 c 1
EndSplineSet
Validated: 5
EndChar
StartChar: j.init.tol
Encoding: 65587 -1 72
Width: 630
Flags: W
HStem: -40 66<208.093 373.147> 187 66<120 371.42> 414 66<225.53 409.793>
VStem: 399 60<51.1062 159.646> 630 20<164.416 167.361>
CounterMasks: 1 e0
AnchorPoint: "below" 290 -40 basechar 0
AnchorPoint: "above" 290 481 basechar 0
LayerCount: 2
Fore
SplineSet
120 187 m 1
 90 220 l 1
 120 253 l 1
 283 253 l 2
 408 253 459 200.887695312 459 113 c 0
 459 23.140625 397.439453125 -40 290 -40 c 1
 290 26 l 1
 360.7578125 26 399 50.267578125 399 110 c 0
 399 156.754882812 366 187 273 187 c 2
 120 187 l 1
290 26 m 5
 290 -40 l 5
 182.905273438 -40 84 27.69140625 84 200 c 7
 84 381.001953125 175 480 316 480 c 7
 442.099609375 480 532 403 630 254 c 5
 650 168 l 5
 630 158 l 5
 476 360 422.237304688 414 319 414 c 7
 207.813476562 414 144 349.850585938 144 203 c 7
 144 63.30859375 211.094726562 26 290 26 c 5
EndSplineSet
Validated: 5
EndChar
StartChar: j.medi.fmh
Encoding: 65589 -1 74
Width: 530
Flags: W
HStem: -234 66<209.13 366.884> 188 66<251.953 530>
VStem: 84 60<-98.5026 23.0467> 384 60<-150.683 -60.8071>
AnchorPoint: "below" 290 -234 basechar 0
AnchorPoint: "above" 290 259 basechar 0
LayerCount: 2
Fore
SplineSet
0 158 m 5
 -20 251 l 5
 0 254 l 5
 98 124 l 6
 147.538866348 61.3180629246 221.939453125 42.2451171875 288 26.6904296875 c 4
 371.530273438 7.021484375 444 -9.13388345146 444 -97 c 7
 444 -186.859375 390.439453125 -234 290 -234 c 5
 290 -168 l 5
 340.7578125 -168 384 -156.732421875 384 -102 c 7
 384 -54.153163729 333.605071617 -44.4461156612 264.000003171 -30.0583696861 c 4
 200.142016181 -16.8585766853 120.115174809 7.85603148934 48 98 c 6
 0 158 l 5
290 -168 m 1
 290 -234 l 1
 182.905273438 -234 84 -166.30859375 84 -4 c 3
 84 177.001953125 195.440429688 254 426 254 c 2
 530 254 l 1
 560 220 l 1
 530 188 l 1
 429 188 l 2
 228.666992188 188 144 145.850585938 144 -1 c 3
 144 -120.69140625 211.094726562 -168 290 -168 c 1
EndSplineSet
Validated: 5
EndChar
StartChar: j.medi
Encoding: 65585 -1 70
Width: 800
Flags: W
HStem: -40 66<228.093 393.147> 187 66<0 391.42 693.248 800> 415 66<245.53 431.569>
VStem: 104 60<94.1022 326.442> 419 60<51.1062 159.646>
AnchorPoint: "below" 310 -40 basechar 0
AnchorPoint: "above" 310 481 basechar 0
LayerCount: 2
Fore
SplineSet
0 187 m 1
 -30 220 l 1
 0 253 l 1
 303 253 l 2
 428 253 479 200.887695312 479 113 c 0
 479 23.140625 417.439453125 -40 310 -40 c 1
 310 26 l 1
 380.7578125 26 419 50.267578125 419 110 c 0
 419 156.754882812 386 187 293 187 c 2
 0 187 l 1
310 26 m 1
 310 -40 l 1
 202.905273438 -40 104 27.69140625 104 200 c 3
 104 381.001953125 195 481 336 481 c 3
 578.051757812 481 564 254 800 254 c 1
 830 220 l 1
 800 188 l 1
 535.004524887 188 532 415 339 415 c 7
 227.813476562 415 164 349.850585938 164 203 c 3
 164 63.30859375 231.094726562 26 310 26 c 1
EndSplineSet
Validated: 5
Substitution2: "mth-1" j.medi.mth
Substitution2: "ltm-1" j.medi.ltm
Substitution2: "fmh-1" j.medi.fmh
EndChar
StartChar: j.medi.ltm
Encoding: 65590 -1 75
Width: 530
Flags: W
HStem: -234 66<209.13 372.543> -33 66<0 377.697> 188 66<251.953 530>
VStem: 84 60<-98.5026 99.7928> 394 60<-147.793 -49.4801>
AnchorPoint: "below" 290 -234 basechar 0
AnchorPoint: "above" 290 259 basechar 0
LayerCount: 2
Fore
SplineSet
0 -33 m 1
 -30 0 l 1
 0 33 l 1
 283 33 l 2
 399 33 454 -3.1123046875 454 -91 c 0
 454 -180.859375 390.439453125 -234 290 -234 c 1
 290 -168 l 1
 350.7578125 -168 394 -153.732421875 394 -94 c 0
 394 -47.2451171875 361 -33 273 -33 c 2
 0 -33 l 1
290 -168 m 1
 290 -234 l 1
 182.905273438 -234 84 -166.30859375 84 -4 c 3
 84 177.001953125 195.440429688 254 426 254 c 2
 530 254 l 1
 560 220 l 1
 530 188 l 1
 429 188 l 2
 228.666992188 188 144 145.850585938 144 -1 c 3
 144 -120.69140625 211.094726562 -168 290 -168 c 1
EndSplineSet
Validated: 5
EndChar
StartChar: k.fina
Encoding: 65595 -1 80
Width: 790
Flags: W
HStem: 187 66<0 134.939> 409 66<403.376 505.787 557.945 655.563> 580 66<560.207 655.768>
VStem: 491 61<475.804 571.235> 664 62<483.712 569.98>
AnchorPoint: "below" 501 403 basechar 0
AnchorPoint: "above" 485 680 basechar 0
LayerCount: 2
Back
SplineSet
358 639 m 1
 400 631 l 1
 348 529 403 475 463 475 c 2
 670 475 l 1
 680 409 l 1
 458 409 l 2
 339 409 294 503 358 639 c 1
664 533 m 3
 664 565 635 580 606 580 c 3
 571 580 552 558 552 528 c 3
 552 498 571 467 593 446 c 1
 552 419 l 1
 521 445 491 483 491 537 c 3
 491 609 538 646 609 646 c 3
 669 646 726 609 726 537 c 3
 726 488 707 444 680 409 c 1
 630 449 l 1
 653 472 664 502 664 533 c 3
358 639 m 1
 400 631 l 1
 348 529 403 475 463 475 c 2
 830 475 l 1
 830 409 l 1
 458 409 l 2
 338.679642263 409 294 503 358 639 c 1
352 680 m 1
 416 680 l 1
 416 663 l 1
 227 288 l 2
 196.419827011 227.325053593 145.412109375 187 31 187 c 2
 0 187 l 1
 -30 220 l 1
 0 253 l 1
 32 253 l 2
 110 253 148.003043124 272.006086247 166 308 c 2
 352 680 l 1
664 533 m 3
 664 565.493164062 635.479492188 580 606 580 c 3
 571.2109375 580 552 557.76953125 552 528 c 3
 552 498.200195312 571.143554688 467.141601562 592.92578125 446.342773438 c 1
 551.65625 419.077148438 l 1
 520.546875 444.725585938 491 483.108398438 491 537 c 3
 491 609.23046875 537.65625 646 609 646 c 3
 668.524414062 646 726 609.284179688 726 537 c 3
 726 488.482421875 708.504882812 446.276367188 683.909179688 413.703125 c 1
 637.5390625 448.680664062 l 1
 654.793945312 471.3125 664 502.170898438 664 533 c 3
698 442 m 1
 728 481 734 513 734 549 c 3
 734 588 696.039984013 623 646 623 c 3
 600 623 562 591 562 545 c 3
 562 504 590 467 622 442 c 1025
EndSplineSet
Fore
SplineSet
352 680 m 1
 416 680 l 1
 416 663 l 1
 227 288 l 2
 196 227 145 187 31 187 c 2
 0 187 l 1
 -30 220 l 1
 0 253 l 1
 32 253 l 2
 110 253 148 272 166 308 c 2
 352 680 l 1
664 533 m 0
 664 565 637 580 603 580 c 0
 573 580 552 558 552 528 c 0
 552 509.891255042 558.922895817 491.418147146 569.249671178 475 c 1
 609.529296875 475 l 1
 652 475 664 502 664 533 c 0
358 639 m 1
 400 631 l 1
 348 529 403 475 463 475 c 2
 505.786693386 475 l 1
 496.737367769 492.829763389 491 513.384916956 491 537 c 0
 491 609 540 646 606 646 c 0
 671 646 726 609 726 533 c 0
 726 464 689.004524887 409 610 409 c 1
 458 409 l 2
 339 409 294 503 358 639 c 1
EndSplineSet
Validated: 37
Substitution2: "ltm-1" k.fina.ltm
EndChar
StartChar: k.fina.ltm
Encoding: 65598 -1 83
Width: 790
Flags: W
HStem: -33 66<0.000976562 134.981> 187 66<401.377 461.001 591.001 678.001> 358 66<558.234 653.778> 461 20G<352.975 427>
VStem: 489.001 61<254.353 349.235> 662.001 62<247.852 349.116>
AnchorPoint: "above" 484 481 basechar 0
AnchorPoint: "below" 499 181 basechar 0
LayerCount: 2
Fore
SplineSet
662.000976562 311 m 3
 662.000976562 343 633.000976562 358 604.000976562 358 c 3
 569.000976562 358 550.000976562 336 550.000976562 306 c 3
 550.000976562 276 569.000976562 245 591.000976562 224 c 1
 550.000976562 197 l 1
 519.000976562 223 489.000976562 261 489.000976562 315 c 3
 489.000976562 387 536.000976562 424 607.000976562 424 c 3
 667.000976562 424 724.000976562 387 724.000976562 315 c 3
 724.000976562 266 705.000976562 222 678.000976562 187 c 1
 628.000976562 227 l 1
 651.000976562 250 662.000976562 280 662.000976562 311 c 3
356.000976562 417 m 1
 398.000976562 409 l 1
 346.000976562 307 401.000976562 253 461.000976562 253 c 2
 679.000976562 253 l 1
 696 236 l 1
 678.000976562 187 l 1
 456.000976562 187 l 2
 337.000976562 187 292.000976562 281 356.000976562 417 c 1
363 481 m 1
 427 481 l 1
 427 464 l 1
 227.000976562 68 l 2
 196.155005269 6.92467861962 145.000976562 -33 31.0009765625 -33 c 2
 0.0009765625 -33 l 1
 -29.9990234375 0 l 1
 0.0009765625 33 l 1
 32.0009765625 33 l 2
 110.000976562 33 147.965107138 52.0196354267 166.000976562 88 c 2
 363 481 l 1
EndSplineSet
Validated: 37
EndChar
StartChar: k.init
Encoding: 65593 -1 78
Width: 650
Flags: W
HStem: 187 66<323.61 650> 414 66<307.002 434.042>
VStem: 92 60<-13 481> 228 60<284.785 394.439> 460 60<257.871 387.339>
AnchorPoint: "below" 234 -40 basechar 0
AnchorPoint: "above" 345 481 basechar 0
LayerCount: 2
Fore
SplineSet
288 338 m 3
 288 288.08203125 330 253 409 253 c 2
 650 253 l 1
 680 220 l 5
 650 187 l 1
 404 187 l 2
 297.422851562 187 228 247.508789062 228 335 c 3
 228 420 282 480 370 480 c 3
 456.70703125 480 520 415.987304688 520 329 c 3
 520 130.668945312 335.353746213 37.1111135959 189 -40 c 1
 152 -40 l 1
 117 -13 l 1
 267.335445019 66.8241300984 460 141.864257812 460 329 c 3
 460 379.01171875 427.493164062 414 367 414 c 3
 308 414 288 376 288 338 c 3
92 481 m 1
 152 481 l 1
 152 -40 l 1
 92 -40 l 1
 92 481 l 1
EndSplineSet
Validated: 5
EndChar
StartChar: k.medi.fmh
Encoding: 65681 -1 209
Width: 840
Flags: W
HStem: 187 66<401.377 461.001 591.001 628.001 678.001 840.001> 358 66<558.234 653.778> 461 20G<353.16 427>
VStem: 489.001 61<254.353 349.235> 662.001 62<254.062 349.116>
AnchorPoint: "above" 484 481 basechar 0
AnchorPoint: "below" 499 181 basechar 0
LayerCount: 2
Back
SplineSet
0 158 m 5
 -20 251 l 5
 0 254 l 5
 98 124 l 6
 147.538866348 61.3180629246 221.939453125 42.2451171875 288 26.6904296875 c 0
 371.530273438 7.021484375 444 -9.13388345146 444 -97 c 3
 444 -186.859375 390.439453125 -234 290 -234 c 1
 290 -168 l 1
 340.7578125 -168 384 -156.732421875 384 -102 c 3
 384 -54.153163729 333.605071617 -44.4461156612 264.000003171 -30.0583696861 c 0
 200.142016181 -16.8585766853 120.115174809 7.85603148934 48 98 c 6
 0 158 l 5
EndSplineSet
Fore
SplineSet
148 44 m 9
 363 481 l 1
 427 481 l 1
 427 464 l 1
 172 -40 l 1
 128 -40 l 1
 104 18 73.0731707317 66.6585365854 48 98 c 2
 0 158 l 1
 -20 251 l 1
 0 254 l 1
 98 124 l 2
 117.737549049 97.8175369756 142 63 148 44 c 9
662.000976562 311 m 3
 662.000976562 343 633.000976562 358 604.000976562 358 c 3
 569.000976562 358 550.000976562 336 550.000976562 306 c 3
 550.000976562 276 569.000976562 245 591.000976562 224 c 1
 550.000976562 197 l 1
 519.000976562 223 489.000976562 261 489.000976562 315 c 3
 489.000976562 387 536.000976562 424 607.000976562 424 c 3
 667.000976562 424 724.000976562 387 724.000976562 315 c 3
 724.000976562 266 705.000976562 222 678.000976562 187 c 1
 628.000976562 227 l 1
 651.000976562 250 662.000976562 280 662.000976562 311 c 3
356.000976562 417 m 1
 398.000976562 409 l 1
 346.000976562 307 401.000976562 253 461.000976562 253 c 2
 840.000976562 253 l 1
 870.000976562 220 l 1
 840.000976562 187 l 1
 456.000976562 187 l 2
 337.000976562 187 292.000976562 281 356.000976562 417 c 1
EndSplineSet
Validated: 37
EndChar
StartChar: k.medi
Encoding: 65594 -1 79
Width: 910
Flags: W
HStem: 187 66<0.000976562 104.027 471.377 531.001 661.001 698.001 748.001 910.001> 358 66<628.234 723.778> 461 20G<423.217 497>
VStem: 559.001 61<254.353 349.235> 732.001 62<254.062 349.116>
AnchorPoint: "above" 554 481 basechar 0
AnchorPoint: "below" 569 181 basechar 0
LayerCount: 2
Back
SplineSet
358 639 m 5
 400 631 l 5
 348 529 403 475 463 475 c 6
 670 475 l 5
 884 475 874 253 1050 253 c 5
 1080 220 l 5
 1050 187 l 5
 830 187 832 409 680 409 c 5
 458 409 l 6
 339 409 294 503 358 639 c 5
664 533 m 7
 664 565 635 580 606 580 c 7
 571 580 552 558 552 528 c 7
 552 498 571 467 593 446 c 5
 552 419 l 5
 521 445 491 483 491 537 c 7
 491 609 538 646 609 646 c 7
 669 646 726 609 726 537 c 7
 726 488 707 444 680 409 c 5
 630 449 l 5
 653 472 664 502 664 533 c 7
352 680 m 5
 416 680 l 5
 416 663 l 5
 227 288 l 6
 196 227 145 187 31 187 c 6
 0 187 l 5
 -30 220 l 5
 0 253 l 5
 32 253 l 6
 110 253 148 272 166 308 c 6
 352 680 l 5
EndSplineSet
Fore
SplineSet
732.000976562 311 m 7
 732.000976562 343 703.000976562 358 674.000976562 358 c 7
 639.000976562 358 620.000976562 336 620.000976562 306 c 7
 620.000976562 276 639.000976562 245 661.000976562 224 c 5
 620.000976562 197 l 5
 589.000976562 223 559.000976562 261 559.000976562 315 c 7
 559.000976562 387 606.000976562 424 677.000976562 424 c 7
 737.000976562 424 794.000976562 387 794.000976562 315 c 7
 794.000976562 266 775.000976562 222 748.000976562 187 c 5
 698.000976562 227 l 5
 721.000976562 250 732.000976562 280 732.000976562 311 c 7
426.000976562 417 m 1
 468.000976562 409 l 1
 416.000976562 307 471.000976562 253 531.000976562 253 c 2
 910.000976562 253 l 1
 940.000976562 220 l 1
 910.000976562 187 l 1
 526.000976562 187 l 2
 407.000976562 187 362.000976562 281 426.000976562 417 c 1
433 481 m 1
 497 481 l 1
 497 464 l 1
 242 -40 l 1
 198 -40 l 1
 152 156 104.105032208 187 31.0009765625 187 c 2
 0.0009765625 187 l 1
 -29.9990234375 220 l 1
 0.0009765625 253 l 1
 32.0009765625 253 l 2
 110.000976562 253 188 228 230 66 c 9
 433 481 l 1
EndSplineSet
Validated: 37
Substitution2: "fmh-1" k.medi.fmh
Substitution2: "mth-1" k.medi.mth
Substitution2: "ltm-1" k.medi.ltm
EndChar
StartChar: k.medi.ltm
Encoding: 65596 -1 81
Width: 840
Flags: W
HStem: -33 66<0.000976562 134.981> 187 66<401.377 461.001 591.001 628.001 678.001 840.001> 358 66<558.234 653.778> 461 20G<352.975 427>
VStem: 489.001 61<254.353 349.235> 662.001 62<254.062 349.116>
AnchorPoint: "above" 484 481 basechar 0
AnchorPoint: "below" 499 181 basechar 0
LayerCount: 2
Fore
SplineSet
662.000976562 311 m 7
 662.000976562 343 633.000976562 358 604.000976562 358 c 7
 569.000976562 358 550.000976562 336 550.000976562 306 c 7
 550.000976562 276 569.000976562 245 591.000976562 224 c 5
 550.000976562 197 l 5
 519.000976562 223 489.000976562 261 489.000976562 315 c 7
 489.000976562 387 536.000976562 424 607.000976562 424 c 7
 667.000976562 424 724.000976562 387 724.000976562 315 c 7
 724.000976562 266 705.000976562 222 678.000976562 187 c 5
 628.000976562 227 l 5
 651.000976562 250 662.000976562 280 662.000976562 311 c 7
356.000976562 417 m 1
 398.000976562 409 l 1
 346.000976562 307 401.000976562 253 461.000976562 253 c 2
 840.000976562 253 l 1
 870.000976562 220 l 1
 840.000976562 187 l 1
 456.000976562 187 l 2
 337.000976562 187 292.000976562 281 356.000976562 417 c 1
363 481 m 1
 427 481 l 1
 427 464 l 1
 227.000976562 68 l 2
 196.155005269 6.92467861962 145.000976562 -33 31.0009765625 -33 c 2
 0.0009765625 -33 l 1
 -29.9990234375 0 l 1
 0.0009765625 33 l 1
 32.0009765625 33 l 2
 110.000976562 33 147.965107138 52.0196354267 166.000976562 88 c 2
 363 481 l 1
EndSplineSet
Validated: 37
EndChar
StartChar: k.medi.mth
Encoding: 65597 -1 82
Width: 840
Flags: W
HStem: 187 66<0 134.939> 409 66<403.376 463 593 630 680 840> 419 21G<536.5 582.37> 580 66<560.233 655.777>
VStem: 491 61<476.353 571.235> 664 62<476.062 571.116>
AnchorPoint: "above" 485 680 basechar 0
AnchorPoint: "below" 501 403 basechar 0
LayerCount: 2
Fore
SplineSet
664 533 m 3xdc
 664 565 635 580 606 580 c 3
 571 580 552 558 552 528 c 3
 552 498 571 467 593 446 c 1
 552 419 l 1xbc
 521 445 491 483 491 537 c 3
 491 609 538 646 609 646 c 3
 669 646 726 609 726 537 c 3
 726 488 707 444 680 409 c 1
 630 449 l 1
 653 472 664 502 664 533 c 3xdc
358 639 m 1
 400 631 l 1
 348 529 403 475 463 475 c 2
 840 475 l 1
 870 442 l 1
 840 409 l 1
 458 409 l 2xdc
 339 409 294 503 358 639 c 1
352 680 m 1
 416 680 l 1
 416 663 l 1
 227 288 l 2
 196 227 145 187 31 187 c 2
 0 187 l 1
 -30 220 l 1
 0 253 l 1
 32 253 l 2
 110 253 148 272 166 308 c 2
 352 680 l 1
EndSplineSet
Validated: 37
EndChar
StartChar: m.fina
Encoding: 65601 -1 89
Width: 490
Flags: W
HStem: -40 66<223.133 344.496> 187 66<0 343.203>
VStem: 138 60<51.5593 184.345> 368 60<49.9376 163.488>
AnchorPoint: "above" 283 259 basechar 0
AnchorPoint: "below" 284 -40 basechar 0
LayerCount: 2
Fore
SplineSet
277 187 m 2
 0 187 l 1
 -30 220 l 1
 0 253 l 1
 279 253 l 2
 376 253 428 196.025390625 428 106 c 3
 428 13.044921875 362.037109375 -40 280 -40 c 3
 207.661132812 -40 138 15.5654296875 138 100 c 0
 138 178 174.791992188 216 188 237 c 1
 252 220 l 1
 221 193 198 161.790039062 198 105 c 0
 198 48.4794921875 245.7578125 26 284 26 c 3
 330.095703125 26 368 53 368 108 c 3
 368 154.026367188 338 187 277 187 c 2
EndSplineSet
Validated: 5
Substitution2: "hi-1" m.fina.hi
Substitution2: "lo-1" m.fina.lo
EndChar
StartChar: m.fina.hi
Encoding: 65605 -1 93
Width: 490
Flags: W
HStem: 181 66<223.133 344.496> 409 66<0 343.203> 438 20G<181.396 252>
VStem: 138 60<272.559 405.345> 368 60<270.938 384.796>
AnchorPoint: "above" 283 481 basechar 0
AnchorPoint: "below" 284 181 basechar 0
LayerCount: 2
Fore
SplineSet
277 409 m 2xd8
 -0 409 l 1
 -30 442 l 1
 -0 475 l 1
 279 475 l 2xd8
 376 475 428 417.025390625 428 327 c 3
 428 234.044921875 362.037109375 181 280 181 c 3
 207.661132812 181 138 236.565429688 138 321 c 0
 138 399 174.791992188 437 188 458 c 1xb8
 252 441 l 1
 221 414 198 382.790039062 198 326 c 0
 198 269.479492188 245.7578125 247 284 247 c 3
 330.095703125 247 368 274 368 329 c 7
 368 375.026367188 338 409 277 409 c 2xd8
EndSplineSet
Validated: 5
EndChar
StartChar: m.fina.lo
Encoding: 65604 -1 92
Width: 490
Flags: W
HStem: -234 66<217.92 347.463> -33 66<0 353.309>
VStem: 138 60<-146.968 -33.8074> 368 60<-146.316 -48.5221>
AnchorPoint: "above" 283 39 basechar 0
AnchorPoint: "below" 284 -234 basechar 0
LayerCount: 2
Fore
SplineSet
277 -33 m 2
 0 -33 l 1
 -30 0 l 1
 0 33 l 1
 279 33 l 2
 376 33 428 -3.974609375 428 -94 c 3
 428 -186.955078125 362.037109375 -234 280 -234 c 7
 207.661132812 -234 138 -184.434570312 138 -100 c 0
 138 -22 166.791992188 6 188 27 c 1
 252 10 l 1
 221 -17 198 -38.2099609375 198 -95 c 0
 198 -151.520507812 245.7578125 -168 284 -168 c 3
 330.095703125 -168 368 -144 368 -96 c 3
 368 -49.9736328125 338 -33 277 -33 c 2
EndSplineSet
Validated: 5
EndChar
StartChar: m.init
Encoding: 65599 -1 87
Width: 460
Flags: W
HStem: -40 66<147.133 269.185> 187 66<147.043 460> 304 66<144.467 317> 511 66<141.284 269.061>
VStem: 62 60<50.8034 160.253 391.219 490.786> 292 60<47.7466 304 370 487.18> 292 25<304 370>
AnchorPoint: "above" 210 581 basechar 0
AnchorPoint: "below" 210 -40 basechar 0
LayerCount: 2
Fore
SplineSet
212 577 m 3xfa
 294.939453125 577 352 520.092773438 352 421 c 2
 352 106 l 2
 352 13.044921875 286.037109375 -40 204 -40 c 3
 131.661132812 -40 62 10.5654296875 62 100 c 0
 62 220.3515625 152 253 234 253 c 2
 460 253 l 1
 490 220 l 1
 460 187 l 1
 234 187 l 2
 169.705078125 187 122 168.055664062 122 105 c 0
 122 49.4794921875 169.7578125 26 208 26 c 3
 254.095703125 26 292 51.3271484375 292 104 c 2
 292 411.668945312 l 2xfc
 292 489.263671875 257.516601562 511 202 511 c 3
 162.814453125 511 124.678710938 493.568359375 124.678710938 440 c 0
 124.678710938 388.155273438 164.184570312 370 213 370 c 2
 317 370 l 1
 317 304 l 1
 213 304 l 2
 143 304 64.6787109375 338.690429688 64.6787109375 436 c 0
 64.6787109375 528.770507812 129.994140625 577 212 577 c 3xfa
EndSplineSet
Validated: 5
EndChar
StartChar: m.medi
Encoding: 65600 -1 88
Width: 560
Flags: W
HStem: -40 66<217.133 335.438> 187 66<0 315 380.236 560>
VStem: 132 60<51.5593 184.345> 362 60<53.3484 182.818>
AnchorPoint: "below" 274 -40 basechar 0
AnchorPoint: "above" 273 259 basechar 0
LayerCount: 2
Fore
SplineSet
0 253 m 1
 560 253 l 1
 590 220 l 1
 560 187 l 1
 0 187 l 17
 -30 220 l 1
 0 253 l 1
246 220 m 1
 215 193 192 161.790039062 192 105 c 0
 192 48.4794921875 239.7578125 26 278 26 c 3
 324.095703125 26 362 59 362 114 c 3
 362 150.73046875 339.586914062 188.080078125 315 216.99609375 c 1
 380.236328125 229 l 1
 400.514648438 195.458007812 422 154.766601562 422 106 c 3
 422 13.044921875 356.037109375 -40 274 -40 c 3
 201.661132812 -40 132 15.5654296875 132 100 c 0
 132 178 168.791992188 216 182 237 c 1
 246 220 l 1
EndSplineSet
Validated: 5
Substitution2: "hi-1" m.medi.hi
Substitution2: "lo-1" m.medi.lo
EndChar
StartChar: m.medi.hi
Encoding: 65603 -1 91
Width: 560
Flags: W
HStem: 181 66<217.133 335.438> 409 66<0 315 380.236 560> 430 28G<175.396 246 315 390.375>
VStem: 132 60<272.559 405.345> 362 60<274.348 403.818>
AnchorPoint: "below" 274 181 basechar 0
AnchorPoint: "above" 273 481 basechar 0
LayerCount: 2
Fore
SplineSet
-0 475 m 1xd8
 560 475 l 1
 590 442 l 1
 560 409 l 1
 -0 409 l 17
 -30 442 l 1
 -0 475 l 1xd8
246 441 m 5
 215 414 192 382.790039062 192 326 c 4
 192 269.479492188 239.7578125 247 278 247 c 7
 324.095703125 247 362 280 362 335 c 7
 362 371.73046875 339.586914062 409.080078125 315 437.99609375 c 5
 380.236328125 450 l 5
 400.514648438 416.458007812 422 375.766601562 422 327 c 7
 422 234.044921875 356.037109375 181 274 181 c 7
 201.661132812 181 132 236.565429688 132 321 c 4
 132 399 168.791992188 437 182 458 c 5xb8
 246 441 l 5
EndSplineSet
Validated: 5
EndChar
StartChar: m.medi.lo
Encoding: 65602 -1 90
Width: 560
Flags: W
HStem: -234 66<211.92 338.496> -33 66<0 560>
VStem: 132 60<-146.968 -33.8074> 362 60<-144.971 -33.6212>
AnchorPoint: "below" 274 -234 basechar 0
AnchorPoint: "above" 273 39 basechar 0
LayerCount: 2
Fore
SplineSet
0 33 m 5
 560 33 l 5
 590 0 l 5
 560 -33 l 5
 0 -33 l 21
 -30 0 l 5
 0 33 l 5
246 10 m 5
 215 -17 192 -38.2099609375 192 -95 c 4
 192 -151.520507812 239.7578125 -168 278 -168 c 7
 324.095703125 -168 362 -141 362 -86 c 7
 362 -49.26953125 339.586914062 -21.919921875 315 6.99609375 c 5
 380.236328125 19 l 5
 400.514648438 -14.5419921875 422 -45.2333984375 422 -94 c 7
 422 -186.955078125 356.037109375 -234 274 -234 c 7
 201.661132812 -234 132 -184.434570312 132 -100 c 4
 132 -22 161.791992188 6 182 27 c 5
 246 10 l 5
EndSplineSet
Validated: 5
EndChar
StartChar: n.fina
Encoding: 65608 -1 97
Width: 510
Flags: W
HStem: -40 66<230.276 361.095> 187 66<0 353.946> 461 20G<142 202>
VStem: 142 60<54.5114 481> 387 60<50.4907 159.046>
AnchorPoint: "below" 304 -40 basechar 0
AnchorPoint: "above" 255 481 basechar 0
LayerCount: 2
Fore
SplineSet
232 187 m 2
 0 187 l 1
 -30 221 l 1
 0 253 l 1
 237 253 l 2
 391 253 447 202.005208192 447 106 c 3
 447 29.8193359375 393.984375 -40 295 -40 c 0
 199.19921875 -40 142 13.318359375 142 106 c 2
 142 481 l 1
 202 481 l 1
 202 112 l 2
 202 55.412109375 244.333007812 26 298 26 c 0
 353.046875 26 387 60.6240234375 387 103 c 3
 387 159.675085314 352 187 232 187 c 2
EndSplineSet
Validated: 5
Substitution2: "hi-1" n.fina.hi
Substitution2: "lo-1" n.fina.lo
EndChar
StartChar: n.fina.hi
Encoding: 65613 -1 102
Width: 510
Flags: W
HStem: 181 66<230.276 361.095> 408 66<0 353.946>
VStem: 142 60<275.511 680> 387 60<271.491 380.046>
AnchorPoint: "below" 304 181 basechar 0
AnchorPoint: "above" 255 680 basechar 0
LayerCount: 2
Fore
SplineSet
232 408 m 2
 -0 408 l 1
 -30 442 l 1
 -0 474 l 1
 237 474 l 2
 391 474 447 423.004882812 447 327 c 3
 447 250.819335938 393.984375 181 295 181 c 0
 199.19921875 181 142 234.318359375 142 327 c 2
 142 680 l 1
 202 680 l 1
 202 333 l 2
 202 276.412109375 244.333007812 247 298 247 c 0
 353.046875 247 387 281.624023438 387 324 c 3
 387 380.674804688 352 408 232 408 c 2
EndSplineSet
Validated: 5
EndChar
StartChar: n.fina.lo
Encoding: 65612 -1 101
Width: 510
Flags: W
HStem: -234 66<226.185 364.98> -34 66<0 371.121>
VStem: 142 60<-142.244 259> 387 60<-146.729 -50.2756>
AnchorPoint: "below" 304 -234 basechar 0
AnchorPoint: "above" 255 259 basechar 0
LayerCount: 2
Fore
SplineSet
232 -34 m 2
 0 -34 l 1
 -30 0 l 1
 0 32 l 1
 237 32 l 2
 391 32 447 1.0048828125 447 -95 c 3
 447 -171.180664062 393.984375 -234 295 -234 c 0
 199.19921875 -234 142 -187.681640625 142 -95 c 2
 142 259 l 1
 202 259 l 1
 202 -89 l 2
 202 -145.587890625 244.333007812 -168 298 -168 c 0
 353.046875 -168 387 -140.375976562 387 -98 c 3
 387 -41.3251953125 352 -34 232 -34 c 2
EndSplineSet
Validated: 5
EndChar
StartChar: n.medi.fml
Encoding: 65609 -1 98
Width: 650
Flags: W
HStem: 204 49<220 395> 414 66<219.839 411.028>
VStem: 428 60<305.236 396.76>
AnchorPoint: "above" 335 480 basechar 0
AnchorPoint: "below" 374 181 basechar 0
LayerCount: 2
Back
SplineSet
387 480 m 0
 490 480 596 416 596 232 c 0
 596 22 497 -40 389 -40 c 0
 289 -40 181 25 181 220 c 0
 181 416 314 480 387 480 c 0
536 232 m 0
 536 359 475 414 386 414 c 0
 308 414 241 350 241 220 c 0
 241 77 310 26 390 26 c 0
 485 26 536 77 536 232 c 0
0 170 m 5
 -20 170 l 29
 0 278 l 5
 105 429 207 480 387 480 c 1
 386 414 l 1
 225 414 157 399 0 170 c 5
249 97 m 1
 218 156 l 1
 330 224 449 253 570 253 c 2
 730 253 l 1
 760 220 l 1
 730 187 l 1
 567 187 l 2
 479.754882812 187 362 180 249 97 c 1
EndSplineSet
Fore
SplineSet
0 170 m 1
 -20 170 l 25
 0 278 l 1
 105 429 221.782226562 480 321 480 c 3
 426.005859375 480 488 444.025390625 488 362 c 3
 488 257.611328125 395 208 220 204 c 0
 220 253 l 1
 374 259 428 304.16015625 428 353 c 3
 428 397.772460938 390.080078125 414 319 414 c 3
 251.4921875 414 157 399 0 170 c 1
650 187 m 5
 479.377929688 187 354.810546875 187 220 187 c 1
 220 253 l 1
 344.3515625 253 489.837890625 253 650 253 c 5
 680 220 l 5
 650 187 l 5
EndSplineSet
Validated: 5
EndChar
StartChar: n.medi
Encoding: 65607 -1 96
Width: 810
Flags: W
HStem: 187 66<0 100.882 390 390> 204 49<390 565> 414 66<413.23 582.366>
VStem: 598 60<305.236 397.764>
AnchorPoint: "above" 495 480 basechar 0
AnchorPoint: "below" 544 178 basechar 0
LayerCount: 2
Fore
SplineSet
0 253 m 1xb0
 197.574468085 253 281.782226562 480 511 480 c 3
 586.005859375 480 658 444.025390625 658 362 c 3
 658 257.611328125 565 208 390 204 c 0x70
 390 253 l 1
 544 259 598 304.16015625 598 353 c 3
 598 397.772460938 560.080078125 414 509 414 c 3
 321.4921875 414 243.566502463 187 0 187 c 1
 -30 220 l 1
 0 253 l 1xb0
810 187 m 5xb0
 639.377929688 187 524.810546875 187 390 187 c 5
 390 253 l 5xb0
 514.3515625 253 649.837890625 253 810 253 c 5x70
 840 220 l 5
 810 187 l 5xb0
EndSplineSet
Validated: 5
Substitution2: "htm-1" n.medi.htm
Substitution2: "mtl-1" n.medi.mtl
Substitution2: "fml-1" n.medi.fml
EndChar
StartChar: n.medi.htm
Encoding: 65611 -1 100
Width: 600
Flags: W
HStem: 204 49<179.998 354.998> 409 66<0 373.078>
VStem: 387.998 60<301.186 393.242>
AnchorPoint: "above" 295 481 basechar 0
AnchorPoint: "below" 334 181 basechar 0
LayerCount: 2
Fore
SplineSet
-0 475 m 1
 197.57421875 475 121.780273438 475 310.998046875 475 c 3
 386.00390625 475 447.998046875 439.025390625 447.998046875 357 c 3
 447.998046875 252.611328125 354.998046875 208 179.998046875 204 c 0
 179.998046875 253 l 1
 333.998046875 259 387.998046875 299.16015625 387.998046875 348 c 3
 387.998046875 392.772460938 354.078125 409 302.998046875 409 c 3
 155.490234375 409 243.56640625 409 -0 409 c 1
 -30 442 l 1
 -0 475 l 1
599.998046875 187 m 5
 429.375976562 187 314.80859375 187 179.998046875 187 c 1
 179.998046875 253 l 1
 304.349609375 253 439.8359375 253 599.998046875 253 c 5
 629.998046875 220 l 5
 599.998046875 187 l 5
EndSplineSet
Validated: 5
EndChar
StartChar: n.medi.mtl
Encoding: 65610 -1 99
Width: 600
Flags: W
HStem: -16 49<179.998 354.998> 187 66<0 373.078>
VStem: 387.998 60<81.4683 171.242>
AnchorPoint: "above" 295 259 basechar 0
AnchorPoint: "below" 334 -39 basechar 0
LayerCount: 2
Fore
SplineSet
0 253 m 1
 197.574468085 253 121.780273438 253 310.998046875 253 c 3
 386.00390625 253 447.998046875 217.025390625 447.998046875 135 c 3
 447.998046875 30.611328125 354.998046875 -12 179.998046875 -16 c 0
 179.998046875 33 l 1
 333.998046875 39 387.998046875 77.16015625 387.998046875 126 c 3
 387.998046875 170.772460938 354.078125 187 302.998046875 187 c 3
 155.490234375 187 243.566502463 187 0 187 c 1
 -30 220 l 1
 0 253 l 1
599.998046875 -33 m 5
 429.375976562 -33 314.80859375 -33 179.998046875 -33 c 1
 179.998046875 33 l 1
 304.349609375 33 439.8359375 33 599.998046875 33 c 5
 629.998046875 0 l 5
 599.998046875 -33 l 5
EndSplineSet
Validated: 5
EndChar
StartChar: ntilde.fina
Encoding: 65684 -1 212
Width: 780
Flags: W
HStem: -33 66<212.878 319.796> 187 66<0 128> 409 66<525.555 622.641>
VStem: 123 60<64.8822 252.395> 648 67<187 379.932>
AnchorPoint: "below" 428 -40 basechar 0
AnchorPoint: "above" 429 481 basechar 0
LayerCount: 2
Fore
SplineSet
0 253 m 1
 128 253 l 1
 155 187 l 1
 0 187 l 1
 -30 220 l 1
 0 253 l 1
183 168 m 0
 183 96 198 33 271 33 c 0
 349 33 378 156 400 238 c 0
 425 331 455 475 570 475 c 0
 676 475 715 372 715 271 c 0
 715 239 714 211 710 187 c 1
 648 187 l 1
 648 197 l 1
 652 212 655 252 655 281 c 0
 655 337 636 409 570 409 c 0
 503 409 478 293 458 218 c 0
 431 119 396 -33 271 -33 c 0
 162 -33 123 60 123 168 c 0
 123 198 125 230 128 253 c 1
 188 253 l 1
 188 245 l 1
 185 224 183 195 183 168 c 0
EndSplineSet
Validated: 5
Substitution2: "hi-1" ntilde.fina.hi
Substitution2: "lo-1" ntilde.fina.lo
EndChar
StartChar: ntilde.fina.hi
Encoding: 65688 -1 216
Width: 790
Flags: W
HStem: 181 66<215.699 322.142> 409 66<0 128> 614 66<525.555 627.016>
VStem: 123 60<283.416 474.395> 648 67<409 592.784>
AnchorPoint: "below" 428 174 basechar 0
AnchorPoint: "above" 429 686 basechar 0
LayerCount: 2
Fore
SplineSet
-0 475 m 1
 128 475 l 1
 155 409 l 1
 -0 409 l 1
 -30 442 l 1
 -0 475 l 1
183 390 m 0
 183 318 198 247 271 247 c 0
 349 247 378 368 400 450 c 0
 425 543 455 680 570 680 c 0
 676 680 715 594 715 493 c 0
 715 461 714 433 710 409 c 1
 648 409 l 1
 648 419 l 1
 652 434 655 474 655 503 c 0
 655 559 636 614 570 614 c 0
 503 614 478 505 458 430 c 0
 431 331 396 181 271 181 c 0
 162 181 123 282 123 390 c 0
 123 420 125 452 128 475 c 1
 188 475 l 1
 188 467 l 1
 185 446 183 417 183 390 c 0
EndSplineSet
Validated: 5
EndChar
StartChar: ntilde.init
Encoding: 65682 -1 210
Width: 780
Flags: W
HStem: -33 66<152.878 259.796> 187 66<623 780> 409 66<465.555 562.641>
VStem: 63 60<65.1107 254> 595 60<187.642 372.219>
AnchorPoint: "below" 368 -40 basechar 0
AnchorPoint: "above" 369 481 basechar 0
LayerCount: 2
Fore
SplineSet
780 187 m 1
 650 187 l 1
 623 253 l 1
 780 253 l 1
 810 220 l 1
 780 187 l 1
123 168 m 0
 123 96 138 33 211 33 c 0
 289 33 318 156 340 238 c 0
 365 331 395 475 510 475 c 0
 616 475 655 372 655 271 c 0
 655 239 654 211 650 187 c 1
 588 187 l 1
 588 197 l 1
 592 212 595 252 595 281 c 0
 595 337 576 409 510 409 c 0
 443 409 418 293 398 218 c 0
 371 119 336 -33 211 -33 c 0
 102 -33 63 60 63 168 c 0
 63 198 65 231 68 254 c 1
 128 254 l 1
 128 246 l 1
 125 225 123 195 123 168 c 0
EndSplineSet
Validated: 5
EndChar
StartChar: ntilde.medi
Encoding: 65683 -1 211
Width: 840
Flags: W
HStem: -33 66<212.878 319.796> 187 66<0 128 683 840> 409 66<525.555 622.641>
VStem: 123 60<64.8822 252.395> 655 60<187.642 372.219>
AnchorPoint: "below" 428 -40 basechar 0
AnchorPoint: "above" 429 481 basechar 0
LayerCount: 2
Fore
SplineSet
0 253 m 5
 128 253 l 5
 155 187 l 5
 0 187 l 5
 -30 220 l 5
 0 253 l 5
840 187 m 1
 710 187 l 1
 683 253 l 1
 840 253 l 1
 870 220 l 1
 840 187 l 1
183 168 m 0
 183 96 198 33 271 33 c 0
 349 33 378 156 400 238 c 0
 425 331 455 475 570 475 c 0
 676 475 715 372 715 271 c 0
 715 239 714 211 710 187 c 1
 648 187 l 1
 648 197 l 1
 652 212 655 252 655 281 c 0
 655 337 636 409 570 409 c 0
 503 409 478 293 458 218 c 0
 431 119 396 -33 271 -33 c 0
 162 -33 123 60 123 168 c 0
 123 198 125 230 128 253 c 1
 188 253 l 1
 188 245 l 1
 185 224 183 195 183 168 c 0
EndSplineSet
Validated: 5
Substitution2: "hi-1" ntilde.medi.hi
Substitution2: "lo-1" ntilde.medi.lo
EndChar
StartChar: ntilde.medi.lo
Encoding: 65685 -1 213
Width: 840
Flags: W
HStem: -234 66<207.771 323.443> -33 66<0 128 683 840> 193 66<525.555 619.819>
VStem: 123 60<-143.071 32.3952> 655 60<-32.3579 153.906>
AnchorPoint: "below" 428 -241 basechar 0
AnchorPoint: "above" 429 265 basechar 0
LayerCount: 2
Fore
SplineSet
0 33 m 1
 128 33 l 1
 155 -33 l 1
 0 -33 l 1
 -30 0 l 1
 0 33 l 1
840 -33 m 1
 710 -33 l 1
 683 33 l 1
 840 33 l 1
 870 0 l 1
 840 -33 l 1
183 -52 m 0
 183 -124 198 -168 271 -168 c 0
 349 -168 378 -54 400 28 c 0
 425 121 455 259 570 259 c 0
 676 259 715 152 715 51 c 0
 715 19 714 -9 710 -33 c 1
 648 -33 l 1
 648 -23 l 1
 652 -8 655 32 655 61 c 0
 655 117 636 193 570 193 c 0
 503 193 478 83 458 8 c 0
 431 -91 396 -234 271 -234 c 0
 162 -234 123 -160 123 -52 c 0
 123 -22 125 10 128 33 c 1
 188 33 l 1
 188 25 l 1
 185 4 183 -25 183 -52 c 0
EndSplineSet
Validated: 5
EndChar
StartChar: o.mark
Encoding: 65716 -1 244
Width: 0
Flags: W
HStem: -220 126
VStem: -108 206
AnchorPoint: "below" 0 -40 mark 0
LayerCount: 2
Fore
SplineSet
-65 -220 m 5
 -108 -220 l 5
 -108 -210 l 5
 12 -94 l 5
 98 -94 l 21
 98 -113 l 5
 -65 -220 l 5
EndSplineSet
Validated: 1
EndChar
StartChar: o.mark.long
Encoding: 65717 -1 245
Width: 0
Flags: W
HStem: -220 43<-138 -79.0831> -90 42<-2.93263 56.7497>
VStem: -45 40<-152.232 -92.1881> 59 38<-152.204 -93.9954>
AnchorPoint: "below" 0 -40 mark 0
LayerCount: 2
Fore
SplineSet
-128 -220 m 1
 -138 -220 l 1
 -138 -177 l 1
 -34.1494140625 -164.365234375 l 1
 -40.9345703125 -153.264648438 -45 -139.677734375 -45 -124 c 0
 -45 -78 -14 -48 28 -48 c 0
 63 -48 97 -78 97 -124 c 0
 97 -164.654296875 74.49609375 -192.27734375 40 -197 c 2
 -128 -220 l 1
59 -122 m 0
 59 -101 41 -90 25 -90 c 0
 7 -90 -5 -104 -5 -123 c 0
 -5 -144 12 -155 28 -155 c 0
 46 -155 59 -141 59 -122 c 0
EndSplineSet
Validated: 1
LCarets2: 1 0
Ligature2: "long-vowel-1" o.mark o
EndChar
StartChar: p.fina
Encoding: 65616 -1 107
Width: 450
Flags: W
HStem: 187 66<0 120.16> 386 66<188 322.28> 597 66<228.052 327.55>
VStem: 152 60<284.51 386 452 582.459> 188 24<386 452> 342 60<472.492 583.747>
AnchorPoint: "above" 274 663 basechar 0
AnchorPoint: "below" 150 180 basechar 0
LayerCount: 2
Fore
SplineSet
152 513 m 2xf4
 152 606 197.962890625 663 280 663 c 3
 352.338867188 663 402 603.434570312 402 534 c 0
 402 427.6484375 337 386 255 386 c 2
 188 386 l 1
 188 452 l 1xec
 250 452 l 2
 314.294921875 452 342 478.944335938 342 529 c 0
 342 574.520507812 316.2421875 597 278 597 c 3
 231.904296875 597 212 567.672851562 212 515 c 0
 212 383 l 2
 212 300 206.037109375 187 54 187 c 0
 0 187 l 25
 -30 220 l 25
 0 253 l 25
 58 253 l 3
 144.095703125 253 152 318 152 381 c 2
 152 513 l 2xf4
EndSplineSet
Validated: 5
Substitution2: "ltm-1" p.fina.ltm
EndChar
StartChar: p.fina.ltm
Encoding: 65622 -1 113
Width: 450
Flags: W
HStem: -33 66<0 120.16> 204 66<188 322.28> 415 66<228.052 327.55>
VStem: 152 60<64.5098 204 270 400.459> 188 24<204 270> 342 60<290.492 401.747>
AnchorPoint: "above" 274 481 basechar 0
AnchorPoint: "below" 150 -40 basechar 0
LayerCount: 2
Fore
SplineSet
152 331 m 2xf4
 152 424 197.962890625 481 280 481 c 3
 352.338867188 481 402 421.434570312 402 352 c 0
 402 245.6484375 337 204 255 204 c 2
 188 204 l 1
 188 270 l 1xec
 250 270 l 2
 314.294921875 270 342 296.944335938 342 347 c 0
 342 392.520507812 316.2421875 415 278 415 c 3
 231.904296875 415 212 385.672851562 212 333 c 0
 212 163 l 2
 212 80 206.037109375 -33 54 -33 c 0
 0 -33 l 25
 -30 0 l 25
 0 33 l 25
 58 33 l 3
 144.095703125 33 152 98 152 161 c 2
 152 331 l 2xf4
EndSplineSet
Validated: 5
EndChar
StartChar: p.init
Encoding: 65614 -1 105
Width: 430
Flags: W
HStem: 187 66<148 430> 404 66<124 283.052> 615 66<169.271 291.247>
VStem: 88 60<253 404 470 593.653> 124 24<404 470> 308 60<494.267 597.415>
AnchorPoint: "below" 230 181 basechar 0
AnchorPoint: "above" 220 681 basechar 0
LayerCount: 2
Fore
SplineSet
88 531 m 4xf4
 88 623.955078125 143.962890625 681 226 681 c 7
 298.338867188 681 368 641.434570312 368 552 c 4
 368 435.6484375 283 404 201 404 c 6
 124 404 l 5
 124 470 l 5xec
 196 470 l 6
 260.294921875 470 308 486.944335938 308 547 c 4
 308 602.520507812 262.2421875 615 224 615 c 7
 177.904296875 615 148 585.672851562 148 533 c 4
 148 438.333007812 148 347.666666667 148 253 c 1
 430 253 l 1
 460 220 l 1
 430 187 l 1
 88 187 l 1
 88 303 88 415 88 531 c 4xf4
EndSplineSet
Validated: 5
Substitution2: "mtl-1" p.init.mtl
Substitution2: "toh-1" p.init.toh
EndChar
StartChar: p.init.mtl
Encoding: 65618 -1 109
Width: 430
Flags: W
HStem: -33 66<148 430> 204 66<124 283.052> 415 66<169.271 291.247>
VStem: 88 60<33 204 270 393.653> 124 24<204 270> 308 60<294.267 397.415>
AnchorPoint: "below" 230 -41 basechar 0
AnchorPoint: "above" 220 481 basechar 0
LayerCount: 2
Fore
SplineSet
88 331 m 0xf4
 88 423.955078125 143.962890625 481 226 481 c 3
 298.338867188 481 368 441.434570312 368 352 c 0
 368 235.6484375 283 204 201 204 c 2
 124 204 l 1
 124 270 l 1xec
 196 270 l 2
 260.294921875 270 308 286.944335938 308 347 c 0
 308 402.520507812 262.2421875 415 224 415 c 3
 177.904296875 415 148 385.672851562 148 333 c 0
 148 238.333007812 148 127.666992188 148 33 c 1
 430 33 l 1
 460 0 l 1
 430 -33 l 1
 88 -33 l 1
 88 83 88 215 88 331 c 0xf4
EndSplineSet
Validated: 5
EndChar
StartChar: p.init.toh
Encoding: 65617 -1 108
Width: 530
Flags: W
HStem: -70 66<180.813 331.466> 204 66<124 290.319> 415 66<166.05 285.856>
VStem: 88 60<30.9604 204 270 397.028> 124 24<204 270> 308 60<287.876 392.277>
AnchorPoint: "below" 230 -70 basechar 0
AnchorPoint: "above" 220 481 basechar 0
LayerCount: 2
Fore
SplineSet
258 -70 m 3xf4
 165.060546875 -70 88 -13.0927734375 88 86 c 2
 88 335 l 2xf4
 88 427.955078125 143.962890625 481 226 481 c 3
 298.338867188 481 368 435.434570312 368 346 c 0
 368 229.6484375 293 204 211 204 c 2
 124 204 l 1
 124 270 l 1xec
 206 270 l 2
 270.294921875 270 308 280.944335938 308 341 c 0
 308 396.520507812 260.2421875 415 222 415 c 3
 175.904296875 415 148 389.672851562 148 337 c 2
 148 95.3310546875 l 2
 148 17.8759765625 202.759765625 -4 260 -4 c 3
 311 -4 347.352539062 16 412.889648438 110.049804688 c 6
 530 278.109375 l 5
 550 278.109375 l 5
 530 169.634765625 l 5
 460.536132812 69.9501953125 l 6
 383.918945312 -40 340 -70 258 -70 c 3xf4
EndSplineSet
Validated: 5
EndChar
StartChar: p.medi.fmh
Encoding: 65619 -1 110
Width: 510
Flags: W
HStem: -39 66<175.674 306.368> 187 66<209.997 510> 415 66<205.313 306.145>
VStem: 126.679 60<275.16 397.251> 332 60<53.5528 386.501>
AnchorPoint: "below" 250 -40 basechar 0
AnchorPoint: "above" 260 481 basechar 0
LayerCount: 2
Back
SplineSet
0 158 m 5
 -20 251 l 5
 0 254 l 5
 98 124 l 6
 147.538866348 61.3180629246 221.939453125 42.2451171875 288 26.6904296875 c 0
 371.530273438 7.021484375 444 -9.13388345146 444 -97 c 3
 444 -186.859375 390.439453125 -234 290 -234 c 1
 290 -168 l 1
 340.7578125 -168 384 -156.732421875 384 -102 c 3
 384 -54.153163729 333.605071617 -44.4461156612 264.000003171 -30.0583696861 c 0
 200.142016181 -16.8585766853 120.115174809 7.85603148934 48 98 c 6
 0 158 l 5
EndSplineSet
Fore
SplineSet
48 98 m 2
 0 158 l 1
 -20 251 l 1
 0 254 l 1
 98 124 l 2
 146.67231598 59.4346828836 196 27 248 27 c 3
 294.095703125 27 332 58.3271484375 332 111 c 2
 332 305.668945312 l 2
 332 383.263671875 298.516601562 415 252 415 c 3
 217.814453125 415 186.678710938 388.568359375 186.678710938 335 c 0
 186.678710938 286.155273438 215.184570312 253 264 253 c 2
 510 253 l 1
 540 220 l 1
 510 187 l 1
 264 187 l 2
 194 187 126.678710938 237.690429688 126.678710938 331 c 0
 126.678710938 423.770507812 177.994140625 481 257 481 c 3
 336.939453125 481 392 414.092773438 392 315 c 2
 392 113 l 2
 392 20.044921875 327 -39 244 -39 c 3
 177.9921875 -39 120 8 48 98 c 2
EndSplineSet
Validated: 5
EndChar
StartChar: p.medi
Encoding: 65615 -1 106
Width: 560
Flags: W
HStem: -40 66<241.873 355.645> 187 66<0 61.0391 259.997 560> 415 66<255.313 356.145>
VStem: 176.679 60<275.16 397.251> 382 60<53.4137 386.501>
AnchorPoint: "below" 300 -40 basechar 0
AnchorPoint: "above" 310 481 basechar 0
LayerCount: 2
Fore
SplineSet
298 26 m 7
 344.095703125 26 382 58.3271484375 382 111 c 6
 382 305.668945312 l 6
 382 383.263671875 348.516601562 415 302 415 c 7
 267.814453125 415 236.678710938 388.568359375 236.678710938 335 c 4
 236.678710938 286.155273438 265.184570312 253 314 253 c 6
 560 253 l 5
 590 220 l 5
 560 187 l 5
 314 187 l 6
 244 187 176.678710938 237.690429688 176.678710938 331 c 4
 176.678710938 423.770507812 227.994140625 481 307 481 c 7
 386.939453125 481 442 414.092773438 442 315 c 6
 442 113 l 6
 442 20.044921875 377 -40 294 -40 c 7
 136 -40 136 187 0 187 c 13
 -30 220 l 25
 0 253 l 21
 185 253 179 26 298 26 c 7
EndSplineSet
Validated: 5
Substitution2: "mth-1" p.medi.mth
Substitution2: "ltm-1" p.medi.ltm
Substitution2: "fmh-1" p.medi.fmh
EndChar
StartChar: p.medi.ltm
Encoding: 65620 -1 111
Width: 430
Flags: W
HStem: -33 66<0 215.871> 187 66<129.997 430> 415 66<125.313 226.145>
VStem: 46.6787 60<275.16 397.251> 252 60<67.8471 386.501>
AnchorPoint: "below" 170 -40 basechar 0
AnchorPoint: "above" 180 481 basechar 0
LayerCount: 2
Fore
SplineSet
148 33 m 3
 214.095703125 33 252 78.3271484375 252 131 c 2
 252 305.668945312 l 2
 252 383.263671875 218.516601562 415 172 415 c 3
 137.814453125 415 106.678710938 388.568359375 106.678710938 335 c 0
 106.678710938 286.155273438 135.184570312 253 184 253 c 2
 430 253 l 1
 460 220 l 1
 430 187 l 1
 184 187 l 2
 114 187 46.6787109375 237.690429688 46.6787109375 331 c 0
 46.6787109375 423.770507812 97.994140625 481 177 481 c 3
 256.939453125 481 312 414.092773438 312 315 c 2
 312 133 l 2
 312 40.044921875 246.037109375 -33 144 -33 c 0
 0 -33 l 25
 -30 0 l 25
 0 33 l 25
 148 33 l 3
EndSplineSet
Validated: 5
EndChar
StartChar: p.medi.mth
Encoding: 65621 -1 112
Width: 430
Flags: W
HStem: 187 66<0 221.734> 409 66<124.056 430> 615 66<122.756 226.145>
VStem: 46.6787 60<493.308 599.039> 252 60<284.137 586.501>
AnchorPoint: "below" 170 180 basechar 0
AnchorPoint: "above" 180 681 basechar 0
LayerCount: 2
Fore
SplineSet
158 253 m 3
 224.095703125 253 252 298.327148438 252 351 c 2
 252 505.668945312 l 2
 252 583.263671875 218.516601562 615 172 615 c 3
 137.814453125 615 106.678710938 593.568359375 106.678710938 545 c 0
 106.678710938 501.155273438 135.184570312 475 184 475 c 2
 430 475 l 1
 460 442 l 1
 430 409 l 1
 184 409 l 2
 114 409 46.6787109375 447.690429688 46.6787109375 541 c 0
 46.6787109375 623.770507812 97.994140625 681 177 681 c 3
 256.939453125 681 312 614.092773438 312 515 c 2
 312 353 l 2
 312 260.044921875 256.037109375 187 154 187 c 0
 0 187 l 25
 -30 220 l 25
 0 253 l 25
 158 253 l 3
EndSplineSet
Validated: 5
EndChar
StartChar: r.fina.ltm
Encoding: 65628 -1 120
Width: 570
Flags: W
HStem: -16 49<195 370> 187 66<174.132 529.998>
VStem: 102 60<81.1863 173.137>
AnchorPoint: "above" 254.998 259 basechar 0
AnchorPoint: "below" 215.998 -40 basechar 0
LayerCount: 2
Fore
SplineSet
529.998046875 253 m 1
 529.998046875 187 l 1
 286.431640625 187 389.5078125 187 242 187 c 3
 194.919921875 187 162 172.772460938 162 128 c 3
 162 79.16015625 216 39 370 33 c 1
 370 -16 l 0
 195 -12 102 32.611328125 102 137 c 3
 102 219.025390625 163.994140625 253 249 253 c 3
 438.217773438 253 332.423828125 253 529.998046875 253 c 1
0 -33 m 1
 -30 0 l 1
 0 33 l 1
 160.162109375 33 245.6484375 33 370 33 c 1
 370 -33 l 1
 235.189453125 -33 170.622070312 -33 0 -33 c 1
EndSplineSet
Validated: 5
EndChar
StartChar: r.init
Encoding: 65623 -1 114
Width: 500
Flags: W
HStem: 187 66<202.274 500> 481 66<202.144 354>
VStem: 83 60<303.228 429.951>
AnchorPoint: "below" 284 179 basechar 0
AnchorPoint: "above" 260 546 basechar 0
LayerCount: 2
Fore
SplineSet
500 253 m 1
 530 220 l 1
 500 187 l 1
 321 187 l 2
 187.869140625 187 83 232.5859375 83 357 c 0
 83 507.669921875 204.267578125 547 314 547 c 2
 354 547 l 1
 354 481 l 1
 319 481 l 2
 222.248046875 481 143 453.325195312 143 360 c 0
 143 280.1015625 230.779296875 253 328 253 c 2
 500 253 l 1
EndSplineSet
Validated: 1
EndChar
StartChar: r.medi
Encoding: 65624 -1 115
Width: 850
Flags: W
HStem: 187 66<0 0 740.136 850> 205 49<271 370> 414 66<176.735 353.452>
VStem: 102 60<300.596 397.947>
AnchorPoint: "below" 314 178 basechar 0
AnchorPoint: "above" 265 480 basechar 0
LayerCount: 2
Fore
SplineSet
850 253 m 1xb0
 880 220 l 1
 850 187 l 1xb0
 602 187 449 414 241 414 c 3
 189.919921875 414 162 392.772460938 162 345 c 3
 162 274 272 263 370 254 c 1
 370 205 l 0x70
 271 208.293945312 102 227.935546875 102 352 c 3
 102 434.025390625 163.994140625 480 239 480 c 3
 471 480 642 253 850 253 c 1xb0
0 187 m 1
 -30 220 l 1
 0 253 l 1xb0
 112 253 263 254 370 254 c 1x70
 370 188 l 1
 254 188 121 187 0 187 c 1
EndSplineSet
Validated: 5
Substitution2: "mth-1" r.medi.mth
Substitution2: "ltm-1" r.medi.ltm
EndChar
StartChar: r.medi.ltm
Encoding: 65626 -1 118
Width: 550
Flags: W
HStem: -16 49<195 370> 187 66<174.132 549.998>
VStem: 102 60<81.1863 173.137>
AnchorPoint: "above" 254.998 259 basechar 0
AnchorPoint: "below" 215.998 -40 basechar 0
LayerCount: 2
Fore
SplineSet
549.998046875 253 m 1
 579.998046875 221 l 1
 549.998046875 187 l 1
 306.431640625 187 389.5078125 187 242 187 c 3
 194.919921875 187 162 172.772460938 162 128 c 3
 162 79.16015625 216 39 370 33 c 1
 370 -16 l 0
 195 -12 102 32.611328125 102 137 c 3
 102 219.025390625 163.994140625 253 249 253 c 3
 438.217773438 253 352.423828125 253 549.998046875 253 c 1
0 -33 m 1
 -30 0 l 1
 0 33 l 1
 160.162109375 33 245.6484375 33 370 33 c 1
 370 -33 l 1
 235.189453125 -33 170.622070312 -33 0 -33 c 1
EndSplineSet
Validated: 5
EndChar
StartChar: r.medi.mth
Encoding: 65627 -1 119
Width: 550
Flags: W
HStem: 204 49<195 370> 409 66<177.238 549.998>
VStem: 102 60<301.186 395.277>
AnchorPoint: "above" 254.998 481 basechar 0
AnchorPoint: "below" 215.998 181 basechar 0
LayerCount: 2
Fore
SplineSet
549.998046875 475 m 1
 580 442 l 5
 549.998046875 409 l 1
 306.431640625 409 389.5078125 409 242 409 c 3
 194.919921875 409 162 392.772460938 162 348 c 3
 162 299.16015625 216 259 370 253 c 1
 370 204 l 0
 195 208 102 252.611328125 102 357 c 3
 102 439.025390625 163.994140625 475 249 475 c 3
 438.217773438 475 352.423828125 475 549.998046875 475 c 1
0 187 m 1
 -30 220 l 1
 0 253 l 1
 160.162109375 253 245.6484375 253 370 253 c 1
 370 187 l 1
 235.189453125 187 170.622070312 187 0 187 c 1
EndSplineSet
Validated: 5
EndChar
StartChar: s.fina
Encoding: 65631 -1 123
Width: 510
Flags: W
HStem: 187 66<0 193.764 259 353.516> 415 66<238.562 356.867>
VStem: 152 60<258.182 387.652> 382 60<279.722 389.441>
AnchorPoint: "below" 294 181 basechar 0
AnchorPoint: "above" 293 480 basechar 0
LayerCount: 2
Fore
SplineSet
280 187 m 1
 0 187 l 17
 -30 220 l 1
 0 253 l 1
 290 253 l 1
 341 253 382 281 382 336 c 3
 382 392.520507812 334.2421875 415 296 415 c 3
 249.904296875 415 212 382 212 327 c 3
 212 290.26953125 234.413085938 252.919921875 259 224.00390625 c 1
 193.763671875 212 l 1
 173.485351562 245.541992188 152 286.233398438 152 335 c 3
 152 427.955078125 217.962890625 481 300 481 c 3
 372.338867188 481 442 425.434570312 442 341 c 7
 442 239.561523438 377 187 280 187 c 1
EndSplineSet
Validated: 5
Substitution2: "hi-1" s.fina.hi
Substitution2: "lo-1" s.fina.lo
EndChar
StartChar: s.fina.hi
Encoding: 65635 -1 127
Width: 510
Flags: W
HStem: 409 66<0 193.764 259 363.983> 424 21G<183.625 259> 614 66<236.21 359.856>
VStem: 152 60<475.31 588.776> 382 60<491.215 590.866>
AnchorPoint: "below" 294 403 basechar 0
AnchorPoint: "above" 293 679 basechar 0
LayerCount: 2
Fore
SplineSet
280 409 m 1xb8
 -0 409 l 17
 -30 442 l 1
 -0 475 l 1
 290 475 l 1xb8
 341 475 382 487 382 542 c 3
 382 594.520507812 334.2421875 614 296 614 c 3
 249.904296875 614 212 584 212 533 c 3
 212 496.26953125 234.413085938 464.919921875 259 436.00390625 c 1
 193.763671875 424 l 1x78
 173.485351562 457.541992188 152 492.233398438 152 541 c 3
 152 631.955078125 217.962890625 680 300 680 c 3
 372.338867188 680 442 629.434570312 442 547 c 7
 442 441.980954108 377 409 280 409 c 1xb8
EndSplineSet
Validated: 5
EndChar
StartChar: s.fina.lo
Encoding: 65634 -1 126
Width: 510
Flags: W
HStem: -33 66<0 193.764 259 357.066> 192 66<238.562 356.867>
VStem: 152 60<35.1824 164.652> 382 60<57.7513 166.441>
AnchorPoint: "below" 294 -40 basechar 0
AnchorPoint: "above" 293 257 basechar 0
LayerCount: 2
Fore
SplineSet
280 -33 m 1
 0 -33 l 17
 -30 0 l 1
 0 33 l 1
 290 33 l 1
 341 33 382 58 382 113 c 3
 382 169.520507812 334.2421875 192 296 192 c 3
 249.904296875 192 212 159 212 104 c 3
 212 67.26953125 234.413085938 29.919921875 259 1.00390625 c 1
 193.763671875 -11 l 1
 173.485351562 22.5419921875 152 63.2333984375 152 112 c 3
 152 204.955078125 217.962890625 258 300 258 c 3
 372.338867188 258 442 202.434570312 442 118 c 3
 442 17.5615234375 377 -33 280 -33 c 1
EndSplineSet
Validated: 5
EndChar
StartChar: s.init
Encoding: 65629 -1 121
Width: 740
Flags: W
HStem: 187 66<168.359 373.764 439 508 572 780> 415 66<418.562 536.867>
VStem: 86 60<276.129 680> 332 60<258.182 387.652> 562 60<256.655 389.441>
AnchorPoint: "below" 394 181 basechar 0
AnchorPoint: "above" 393 679 basechar 0
LayerCount: 2
Fore
SplineSet
508 221 m 1
 539 248 562 279.209960938 562 336 c 0
 562 392.520507812 514.2421875 415 476 415 c 3
 429.904296875 415 392 382 392 327 c 3
 392 290.26953125 414.413085938 252.919921875 439 224.00390625 c 1
 373.763671875 212 l 1
 353.485351562 245.541992188 332 286.233398438 332 335 c 3
 332 427.955078125 397.962890625 481 480 481 c 3
 552.338867188 481 622 425.434570312 622 341 c 0
 622 263 585.208007812 225 572 204 c 1
 508 221 l 1
86 680 m 1
 146 680 l 1
 146 349 l 2
 146 286.587483722 170.958007812 253 225 253 c 0
 410 253 595 253 780 253 c 1
 810 220 l 1
 780 187 l 1
 593.333007812 187 406.666992188 187 220 187 c 0
 139.912109375 187 86 241.26953125 86 344 c 2
 86 680 l 1
EndSplineSet
Validated: 5
EndChar
StartChar: s.medi
Encoding: 65630 -1 122
Width: 560
Flags: W
HStem: 187 66<0 193.764 259 328 392 560> 415 66<238.562 356.867>
VStem: 152 60<258.182 387.652> 382 60<256.655 389.441>
AnchorPoint: "below" 294 181 basechar 0
AnchorPoint: "above" 293 480 basechar 0
LayerCount: 2
Fore
SplineSet
0 253 m 1
 560 253 l 1
 590 220 l 1
 560 187 l 1
 0 187 l 17
 -30 220 l 1
 0 253 l 1
328 221 m 1
 359 248 382 279.209960938 382 336 c 0
 382 392.520507812 334.2421875 415 296 415 c 3
 249.904296875 415 212 382 212 327 c 3
 212 290.26953125 234.413085938 252.919921875 259 224.00390625 c 1
 193.763671875 212 l 1
 173.485351562 245.541992188 152 286.233398438 152 335 c 3
 152 427.955078125 217.962890625 481 300 481 c 3
 372.338867188 481 442 425.434570312 442 341 c 0
 442 263 405.208007812 225 392 204 c 1
 328 221 l 1
EndSplineSet
Validated: 5
Substitution2: "hi-1" s.medi.hi
Substitution2: "lo-1" s.medi.lo
EndChar
StartChar: s.medi.hi
Encoding: 65633 -1 125
Width: 560
Flags: W
HStem: 409 66<0 193.764 259 560> 421 21G<183.625 259> 614 66<232.537 364.931>
VStem: 152 60<475.916 592.123> 382 60<475.931 594.37>
AnchorPoint: "below" 294 402 basechar 0
AnchorPoint: "above" 293 679 basechar 0
LayerCount: 2
Fore
SplineSet
-0 475 m 1xb8
 560 475 l 1xb8
 590 442 l 1x78
 560 409 l 1
 -0 409 l 17xb8
 -30 442 l 1x78
 -0 475 l 1xb8
328 430 m 1
 359 457 382 488.209960938 382 545 c 0
 382 601.520507812 334.2421875 614 296 614 c 3
 249.904296875 614 212 591 212 536 c 3
 212 499.26953125 234.413085938 461.919921875 259 433.00390625 c 1
 193.763671875 421 l 1x78
 173.485351562 454.541992188 152 495.233398438 152 544 c 3
 152 636.955078125 217.962890625 680 300 680 c 3
 372.338867188 680 442 634.434570312 442 550 c 0
 442 472 405.208007812 434 392 413 c 1
 328 430 l 1
EndSplineSet
Validated: 5
EndChar
StartChar: s.medi.lo
Encoding: 65632 -1 124
Width: 560
Flags: W
HStem: -33 66<0 193.764 259 328 392 560> 193 66<238.562 356.867>
VStem: 152 60<36.1824 165.652> 382 60<34.6546 167.441>
AnchorPoint: "below" 294 -40 basechar 0
AnchorPoint: "above" 293 258 basechar 0
LayerCount: 2
Fore
SplineSet
0 33 m 1
 560 33 l 1
 590 0 l 1
 560 -33 l 1
 0 -33 l 17
 -30 0 l 1
 0 33 l 1
328 -1 m 1
 359 26 382 57.2099609375 382 114 c 0
 382 170.520507812 334.2421875 193 296 193 c 3
 249.904296875 193 212 160 212 105 c 3
 212 68.26953125 234.413085938 30.919921875 259 2.00390625 c 1
 193.763671875 -10 l 1
 173.485351562 23.5419921875 152 64.2333984375 152 113 c 3
 152 205.955078125 217.962890625 259 300 259 c 3
 372.338867188 259 442 203.434570312 442 119 c 0
 442 41 405.208007812 3 392 -18 c 1
 328 -1 l 1
EndSplineSet
Validated: 5
EndChar
StartChar: scaron.fina
Encoding: 65691 -1 219
Width: 470
Flags: W
HStem: -70 66<188.274 307.51> 187 66<91 146.521> 412 68<307.965 361> 445 66<170.011 332.396>
VStem: 97 60<347.85 430.903> 106 60<19.5909 149.269> 328 60<16.5986 135.513>
AnchorPoint: "below" 244 -70 basechar 0
AnchorPoint: "above" 231 511 basechar 0
LayerCount: 2
Fore
SplineSet
166 71 m 3xc6
 166 129.034179688 191 204.9 344 240 c 9
 294 298 l 17
 155 257.117647059 106 156 106 71 c 3
 106 -20 177 -70 247 -70 c 3
 331 -70 388 -8 388 73 c 3
 388 181.074048689 312 253 96 253 c 2
 0 253 l 1
 -30 220 l 1
 0 187 l 1
 91 187 l 2
 306 187 328 127.00892786 328 71 c 3
 328 23 292 -4 250 -4 c 3
 210 -4 166 18 166 71 c 3xc6
361 480 m 5xea
 334 497 290.317382812 511 236 511 c 7
 168 511 97 478 97 391 c 7
 97 290.892578125 200 258 344 240 c 5
 344 306 l 5
 228 314 157 336.8046875 157 390 c 7
 157 425 187.90625 445 236 445 c 7xda
 288 445 328 428 351 412 c 5
 361 412 l 5
 361 480 l 5xea
EndSplineSet
Validated: 5
Substitution2: "ltm-1" scaron.fina.ltm
EndChar
StartChar: scaron.fina.ltm
Encoding: 65694 -1 222
Width: 440
Flags: W
HStem: -234 66<180.894 286.71> -33 66<91 131.442> 192 68<287.965 341> 225 66<159.584 312.396>
VStem: 87 60<128.275 211.336> 106 60<-153.244 -46.3602> 298 60<-156.914 -60.7214>
AnchorPoint: "below" 229 -234 basechar 0
AnchorPoint: "above" 211 291 basechar 0
LayerCount: 2
Fore
SplineSet
341 260 m 1xea
 314 277 270.317382812 291 216 291 c 3
 158 291 87 258 87 171 c 3
 87 70.892578125 182 38 324 20 c 1
 324 86 l 1
 224 90 147 116.8046875 147 170 c 3
 147 205 177.90625 225 216 225 c 3xda
 268 225 308 208 331 192 c 1
 341 192 l 1
 341 260 l 1xea
166 -108 m 3xc6
 166 -58 190 -12.5945945946 324 20 c 9
 274 78 l 17
 148 41.8741258741 106 -39.8904930943 106 -113 c 3
 106 -184 159.972227579 -234 232 -234 c 3
 306 -234 358 -180.007245996 358 -111 c 3
 358 -22.92578125 302 33 96 33 c 2
 0 33 l 1
 -30 0 l 1
 0 -33 l 1
 91 -33 l 2
 276 -33 298 -61.9574660546 298 -109 c 3
 298 -145 277 -168 236 -168 c 3
 193.881835938 -168 166 -143 166 -108 c 3xc6
EndSplineSet
Validated: 5
EndChar
StartChar: scaron.init
Encoding: 65689 -1 217
Width: 500
Flags: W
HStem: -70 66<162.787 286.759> 187 66<327.192 500> 412 68<306.635 361> 445 66<168.366 332.366>
VStem: 77 60<22.2549 143.84> 87 60<321.112 424.317> 314 60<24.3347 155.9>
AnchorPoint: "above" 231 511 basechar 0
AnchorPoint: "below" 224 -70 basechar 0
LayerCount: 2
Fore
SplineSet
87 377 m 3xd6
 87 470 162 511 236 511 c 3xd6
 290 511 334 497 361 480 c 1
 361 412 l 1
 351 412 l 1xe6
 328 428 288 445 236 445 c 3
 185 445 147 420 147 376 c 3xd6
 147 316 197 300.64453125 259 262 c 0
 330.336914062 217.536132812 374 167 374 81 c 3
 374 -20 295 -70 225 -70 c 3
 147 -70 77 -20 77 75 c 3
 77 192 158 253 354 253 c 2
 500 253 l 1
 530 220 l 5
 500 187 l 1
 309 187 l 2
 173 187 137 140 137 78 c 3xda
 137 30 173 -4 226 -4 c 3
 273 -4 314 28 314 81 c 3
 314 147 277.515625 186.161132812 213 224 c 0
 139 267.401367188 87 307 87 377 c 3xd6
EndSplineSet
Validated: 5
EndChar
StartChar: scaron.medi
Encoding: 65690 -1 218
Width: 640
Flags: W
HStem: -70 66<188.274 307.51> 187 66<91 144.092 578.649 640> 445 66<170.011 312.762>
VStem: 97 60<347.85 430.903> 106 60<19.5909 152.795> 328 60<16.5986 135.513>
AnchorPoint: "below" 244 -70 basechar 0
AnchorPoint: "above" 231 511 basechar 0
LayerCount: 2
Fore
SplineSet
166 71 m 7xec
 166 129.034179688 184 205 344 240 c 13
 294 298 l 21
 151 257 106 156 106 71 c 7
 106 -20 177 -70 247 -70 c 7
 331 -70 388 -8 388 73 c 7
 388 181.074048689 312 253 96 253 c 6
 0 253 l 5
 -30 220 l 5
 0 187 l 5
 91 187 l 6
 306 187 328 127.00892786 328 71 c 7
 328 23 292 -4 250 -4 c 7
 210 -4 166 18 166 71 c 7xec
640 253 m 5
 519 253 415 511 236 511 c 7
 168 511 97 478 97 391 c 7
 97 290.892578125 200 258 344 240 c 5
 344 306 l 5
 228 314 157 336.8046875 157 390 c 7xf4
 157 425 187.90625 445 236 445 c 7
 387.03146507 445 499 187 640 187 c 5
 670 220 l 5
 640 253 l 5
EndSplineSet
Validated: 5
Substitution2: "mth-1" scaron.medi.mth
Substitution2: "ltm-1" scaron.medi.ltm
EndChar
StartChar: scaron.medi.ltm
Encoding: 65692 -1 220
Width: 480
Flags: W
HStem: -234 66<189.466 285.396> -33 66<91 141.579> 187 66<351.464 480> 225 66<170.011 353.574>
VStem: 97 60<127.85 210.903> 116 60<-154.162 -39.9057> 298 60<-156.507 -60.7214>
AnchorPoint: "below" 234 -234 basechar 0
AnchorPoint: "above" 231 291 basechar 0
LayerCount: 2
Fore
SplineSet
176 -108 m 3xc6
 176 -69.9443359375 184 -15 344 20 c 9
 294 78 l 17
 151 37 116 -48 116 -113 c 3
 116 -184 177 -234 237 -234 c 3
 311 -234 358 -180.007245996 358 -111 c 3
 358 -22.92578125 302 33 96 33 c 2
 0 33 l 1
 -30 0 l 1
 0 -33 l 1
 91 -33 l 2
 276 -33 298 -61.9574660546 298 -109 c 3
 298 -145 272 -168 240 -168 c 3
 201.881762895 -168 176 -143 176 -108 c 3xc6
480 253 m 1xea
 410 253 320 291 236 291 c 3
 168 291 97 258 97 171 c 3
 97 70.892578125 200 38 344 20 c 1
 344 86 l 1
 228 94 157 116.8046875 157 170 c 3
 157 205 187.90625 225 236 225 c 3xda
 294.215118311 225 374.307617188 187 480 187 c 1
 510 220 l 1
 480 253 l 1xea
EndSplineSet
Validated: 5
EndChar
StartChar: scaron.medi.mth
Encoding: 65693 -1 221
Width: 500
Flags: W
HStem: -70 66<188.274 307.51> 187 66<91 144.092> 409 66<360.636 500> 446 66<170.519 368.67>
VStem: 97 60<347.85 431.192> 106 60<19.5909 152.795> 328 60<16.5986 135.513>
AnchorPoint: "below" 244 -70 basechar 0
AnchorPoint: "above" 231 512 basechar 0
LayerCount: 2
Fore
SplineSet
166 71 m 3xc6
 166 129.034179688 184 205 344 240 c 9
 294 298 l 17
 151 257 106 156 106 71 c 3
 106 -20 177 -70 247 -70 c 3
 331 -70 388 -8 388 73 c 3
 388 181.07421875 312 253 96 253 c 2
 0 253 l 1
 -30 220 l 1
 0 187 l 1
 91 187 l 2
 306 187 328 127.008789062 328 71 c 3
 328 23 292 -4 250 -4 c 3
 210 -4 166 18 166 71 c 3xc6
500 475 m 1xea
 430 475 332 512 236 512 c 3
 168 512 97 478 97 391 c 3
 97 290.892578125 200 258 344 240 c 1
 344 306 l 1
 228 314 157 336.8046875 157 390 c 3
 157 425 187.90625 446 236 446 c 3xda
 304.1171875 446 388 409 500 409 c 1
 530 442 l 1
 500 475 l 1xea
EndSplineSet
Validated: 5
EndChar
StartChar: t.fina.del
Encoding: 65644 -1 137
Width: 400
Flags: W
HStem: 409 66<0 179.639> 550 66<129.001 280> 738 66<127.683 235.351>
VStem: 57 60<628.678 727.733> 252 60<620.399 721.734>
AnchorPoint: "below" 170 401 basechar 0
AnchorPoint: "above" 180 804 basechar 0
LayerCount: 2
Fore
SplineSet
219.325796875 198.674203125 m 5
 254.674203125 163.325796875 l 5
 97.674203125 6.325796875 l 5
 62.325796875 41.674203125 l 5
 219.325796875 198.674203125 l 5
108 475 m 3
 194 475 252 550 252 633 c 2
 252 648 l 2
 252 726 219 738 172 738 c 3
 138 738 117 713 117 678 c 0
 117 642 135 616 184 616 c 2
 280 616 l 1
 300 583 l 1
 280 550 l 1
 184 550 l 2
 114 550 57 601 57 674 c 0
 57 747 98 804 177 804 c 3
 257 804 312 756 312 657 c 2
 312 635 l 2
 312 532 256 409 104 409 c 0
 -0 409 l 25
 -30 442 l 25
 -0 475 l 25
 108 475 l 3
254.674203125 41.674203125 m 5
 219.325796875 6.325796875 l 5
 62.325796875 163.325796875 l 5
 97.674203125 198.674203125 l 5
 254.674203125 41.674203125 l 5
EndSplineSet
Validated: 5
EndChar
StartChar: t.fina
Encoding: 65638 -1 131
Width: 400
Flags: W
HStem: 187 66<0 179.652> 427 66<128.939 280> 615 66<127.532 226.145>
VStem: 56.6787 60<505.639 604.624> 252 60<329.388 427 493 586.501>
AnchorPoint: "below" 170 180 basechar 0
AnchorPoint: "above" 180 681 basechar 0
LayerCount: 2
Back
SplineSet
244 349 m 2
 150 231 l 1
 370 231 l 1
 370 165 l 1
 71 165 l 1
 71 226 l 1
 189 378 l 2
 225.412109375 424.903320312 282 488 282 533 c 3
 282 582 258 612 212 612 c 3
 173 612 145 585 145 545 c 3
 145 496 182 481 215 481 c 3
 238 481 283 489 290 510 c 1
 281 435 l 1
 263 418 240 418 203 418 c 3
 164 418 85 448 85 541 c 3
 85 630 145 678 212 678 c 3
 295 678 342 618 342 542 c 3
 342 469 277.866210938 391.512695312 244 349 c 2
EndSplineSet
Fore
SplineSet
108 253 m 3
 194.095703125 253 252 328.327148438 252 411 c 2
 252 505.668945312 l 6
 252 583.263671875 218.516601562 615 172 615 c 7
 137.814453125 615 116.678710938 589.568359375 116.678710938 555 c 4
 116.678710938 519.155273438 135.184570312 493 184 493 c 6
 280 493 l 5
 300 460 l 5
 280 427 l 5
 184 427 l 6
 114 427 56.6787109375 477.690429688 56.6787109375 551 c 4
 56.6787109375 623.770507812 97.994140625 681 177 681 c 7
 256.939453125 681 312 614.092773438 312 515 c 6
 312 413 l 2
 312 310.044921875 256.037109375 187 104 187 c 0
 0 187 l 25
 -30 220 l 25
 0 253 l 25
 108 253 l 3
EndSplineSet
Validated: 5
Substitution2: "ltm-1" t.fina.ltm
EndChar
StartChar: t.fina.ltm
Encoding: 65643 -1 136
Width: 400
Flags: W
HStem: -33 66<0 179.652> 227 66<128.939 280> 415 66<127.532 226.145>
VStem: 56.6787 60<305.639 404.624> 252 60<109.388 227 293 386.501>
AnchorPoint: "below" 170 -41 basechar 0
AnchorPoint: "above" 180 481 basechar 0
LayerCount: 2
Fore
SplineSet
108 33 m 3
 194.095703125 33 252 108.327148438 252 191 c 2
 252 305.668945312 l 2
 252 383.263671875 218.516601562 415 172 415 c 3
 137.814453125 415 116.678710938 389.568359375 116.678710938 355 c 0
 116.678710938 319.155273438 135.184570312 293 184 293 c 2
 280 293 l 1
 300 260 l 1
 280 227 l 1
 184 227 l 2
 114 227 56.6787109375 277.690429688 56.6787109375 351 c 0
 56.6787109375 423.770507812 97.994140625 481 177 481 c 3
 256.939453125 481 312 414.092773438 312 315 c 2
 312 193 l 2
 312 90.044921875 256.037109375 -33 104 -33 c 0
 0 -33 l 25
 -30 0 l 25
 0 33 l 25
 108 33 l 3
EndSplineSet
Validated: 5
EndChar
StartChar: t.init
Encoding: 65636 -1 129
Width: 430
Flags: W
HStem: 187 66<150 430> 420 63<153.399 227.555> 492 20G<281.5 282.6> 614 66<155.875 259.81>
VStem: 80 60<497.342 598.701> 277 60<472.181 597.504>
AnchorPoint: "below" 225 181 basechar 0
AnchorPoint: "above" 210 681 basechar 0
LayerCount: 2
Fore
SplineSet
239 361 m 2
 150 253 l 1
 430 253 l 1
 460 219 l 1
 430 187 l 1
 71 187 l 1
 71 248 l 1
 184 390 l 2
 220.970725483 436.458787776 277 490 277 535 c 3
 277 584 253 614 207 614 c 3
 168 614 140 587 140 547 c 3
 140 498 177 483 210 483 c 3
 233 483 278 491 285 512 c 1
 276 437 l 1
 258 420 235 420 198 420 c 3
 159 420 80 450 80 543 c 3
 80 632 140 680 207 680 c 3
 290 680 337 620 337 544 c 3
 337 471 273.561464599 402.939754795 239 361 c 2
EndSplineSet
Validated: 5
Substitution2: "mtl-1" t.init.mtl
Substitution2: "toh-1" t.init.toh
EndChar
StartChar: t.init.mtl
Encoding: 65640 -1 133
Width: 440
Flags: W
HStem: -33 66<150 440> 220 63<158.399 237.372> 292 20G<286.5 287.6> 414 66<160.875 264.81>
VStem: 85 60<297.342 398.701> 282 60<269.044 397.504>
AnchorPoint: "below" 225 -40 basechar 0
AnchorPoint: "above" 215 481 basechar 0
LayerCount: 2
Fore
SplineSet
244 151 m 2
 150 33 l 1
 440 33 l 1
 470 -1 l 5
 440 -33 l 1
 71 -33 l 1
 71 28 l 1
 189 180 l 2
 225.412120557 226.903748515 282 290 282 335 c 3
 282 384 258 414 212 414 c 3
 173 414 145 387 145 347 c 3
 145 298 182 283 215 283 c 3
 238 283 283 291 290 312 c 1
 281 237 l 1
 263 220 240 220 203 220 c 3
 164 220 85 250 85 343 c 3
 85 432 145 480 212 480 c 3
 295 480 342 420 342 344 c 3
 342 271 277.866432337 193.513181019 244 151 c 2
EndSplineSet
Validated: 5
EndChar
StartChar: t.init.toh
Encoding: 65639 -1 132
Width: 510
Flags: W
HStem: -33 66<150 347.542> 220 63<158.399 237.372> 292 20G<286.5 287.6> 414 66<160.875 264.81>
VStem: 85 60<297.342 398.701> 282 60<269.044 397.504>
AnchorPoint: "below" 225 -40 basechar 0
AnchorPoint: "above" 215 481 basechar 0
LayerCount: 2
Fore
SplineSet
280 -33 m 1
 71 -33 l 1
 71 28 l 1
 189 180 l 2
 225.412120557 226.903748515 282 290 282 335 c 3
 282 384 258 414 212 414 c 3
 173 414 145 387 145 347 c 3
 145 298 182 283 215 283 c 3
 238 283 283 291 290 312 c 1
 281 237 l 1
 263 220 240 220 203 220 c 3
 164 220 85 250 85 343 c 3
 85 432 145 480 212 480 c 3
 295 480 342 420 342 344 c 3
 342 271 277.866432337 193.513181019 244 151 c 2
 150 33 l 1
 280 33 l 1
 321 33 340.29879635 34.5791405979 392.889648438 110.049804688 c 6
 510 278.109375 l 5
 530 278.109375 l 5
 510 169.634765625 l 5
 440.536132812 69.9501953125 l 6
 372.202433272 -28.1125206344 333 -33 280 -33 c 1
EndSplineSet
Validated: 5
EndChar
StartChar: t.medi
Encoding: 65637 -1 130
Width: 530
Flags: W
HStem: 187 66<0 132.085 381.772 530> 427 66<191.739 251.68> 615 66<192.03 291.744>
VStem: 116.679 60<508.954 599.623> 312 60<263.473 427 493 592.323>
AnchorPoint: "above" 243 681 basechar 0
AnchorPoint: "below" 245 181 basechar 0
LayerCount: 2
Fore
SplineSet
372 319 m 2
 372 276.586914062 386.958007812 253 431 253 c 2
 530 253 l 1
 560 220 l 1
 530 187 l 1
 426 187 l 2
 355.912109375 187 312 241.26953125 312 314 c 2
 312 522.668945312 l 2
 312 590.263671875 281.516601562 615 235 615 c 3
 206.814453125 615 176.678710938 587.568359375 176.678710938 555 c 0
 176.678710938 519.155273438 203.184570312 493 254 493 c 2
 340 493 l 1
 327.08 427 l 1
 227 288 l 2
 187.481445312 233.4921875 145.412109375 187 31 187 c 2
 0 187 l 1
 -30 220 l 25
 0 253 l 1
 32 253 l 1
 110 253 142.315429688 274.775390625 166 308 c 2
 251.68 427 l 1
 244 427 l 2
 174 427 116.678710938 477.690429688 116.678710938 551 c 0
 116.678710938 623.770507812 166.994140625 681 240 681 c 3
 319.939453125 681 372 628.092773438 372 532 c 2
 372 319 l 2
EndSplineSet
Validated: 5
Substitution2: "hi-1" t.medi.hi
Substitution2: "lo-1" t.medi.lo
EndChar
StartChar: t.medi.hi
Encoding: 65642 -1 135
Width: 460
Flags: W
HStem: 409 66<0 129.168 311.772 460> 549 66<121.739 181.68> 738 66<122.509 221.123>
VStem: 46.6787 60<630.954 721.978> 242 60<485.473 541 615 717.977>
AnchorPoint: "above" 173 804 basechar 0
AnchorPoint: "below" 225 402 basechar 0
LayerCount: 2
Fore
SplineSet
302 541 m 2
 302 498.586914062 316.958007812 475 361 475 c 2
 460 475 l 1
 490 442 l 1
 460 409 l 1
 356 409 l 2
 285.912109375 409 242 463.26953125 242 536 c 2
 242 644.668945312 l 2
 242 712.263671875 211.516601562 738 165 738 c 3
 136.814453125 738 106.678710938 709.568359375 106.678710938 677 c 0
 106.678710938 641.155273438 133.184570312 615 184 615 c 2
 270 615 l 1
 257.080078125 549 l 1
 227 510 l 2
 185.899850852 456.712046088 145.412109375 409 31 409 c 2
 -0 409 l 1
 -30 442 l 25
 -0 475 l 1
 32 475 l 1
 110 475 140.094217369 498.608438785 166 530 c 2
 181.6796875 549 l 1
 174 549 l 2
 104 549 46.6787109375 599.690429688 46.6787109375 673 c 0
 46.6787109375 745.770507812 96.994140625 804 170 804 c 3
 249.939453125 804 302 750.092773438 302 654 c 2
 302 541 l 2
EndSplineSet
Validated: 5
EndChar
StartChar: t.medi.lo
Encoding: 65641 -1 134
Width: 550
Flags: W
HStem: -33 66<0 129.3 401.772 550> 227 66<211.739 271.68> 415 66<212.03 311.744>
VStem: 136.679 60<308.954 399.623> 332 60<43.4731 227 293 392.323>
AnchorPoint: "above" 263 481 basechar 0
AnchorPoint: "below" 245 -40 basechar 0
LayerCount: 2
Fore
SplineSet
392 99 m 2
 392 56.5869140625 406.958007812 33 451 33 c 2
 550 33 l 1
 580 0 l 1
 550 -33 l 1
 446 -33 l 2
 375.912109375 -33 332 21.26953125 332 94 c 2
 332 322.668945312 l 2
 332 390.263671875 301.516601562 415 255 415 c 3
 226.814453125 415 196.678710938 387.568359375 196.678710938 355 c 0
 196.678710938 319.155273438 223.184570312 293 274 293 c 2
 360 293 l 1
 347.080078125 227 l 1
 227 68 l 2
 186.432723353 14.2842039452 145.412109375 -33 31 -33 c 2
 0 -33 l 1
 -30 0 l 25
 0 33 l 1
 32 33 l 1
 110 33 141.316960021 55.534512656 166 88 c 2
 271.6796875 227 l 1
 264 227 l 2
 194 227 136.678710938 277.690429688 136.678710938 351 c 0
 136.678710938 423.770507812 186.994140625 481 260 481 c 3
 339.939453125 481 392 428.092773438 392 332 c 2
 392 99 l 2
EndSplineSet
Validated: 5
EndChar
StartChar: uni0242.fina
Encoding: 65703 -1 231
Width: 530
Flags: W
HStem: 187 66<0 0 258.568 368.341> 187 13<263 323> 480 66<220.12 357.115>
VStem: 121 60<289.428 439.005> 263 60<-40 187> 399 60<285.808 437.915>
AnchorPoint: "above" 290 547 basechar 0
AnchorPoint: "below" 293 -41 basechar 0
LayerCount: 2
Fore
SplineSet
399 366 m 0x3c
 399 433 356 480 287 480 c 0
 229 480 181 442 181 362 c 0
 181 289 231 247 291 247 c 0
 356 247 399 281 399 366 c 0x3c
288 546 m 0
 371 546 459 490 459 366 c 0
 459 226 368 181 290 181 c 0
 227 181 121 237 121 362 c 0
 121 498 215 546 288 546 c 0
0 253 m 1xbc
 228 253 l 1
 274 187 l 1
 0 187 l 1
 -30 220 l 1
 0 253 l 1xbc
263 200 m 5x7c
 323 200 l 5
 323 -40 l 5
 263 -40 l 5
 263 200 l 5x7c
EndSplineSet
Validated: 5
Substitution2: "htm-1" uni0242.fina.htm
EndChar
StartChar: uni0242.fina.htm
Encoding: 65709 -1 237
Width: 600
Flags: W
HStem: 403 42<263 323> 409 66<0 0 228 372.575> 724 66<218.963 358.168>
VStem: 111 60<520.147 674.271> 263 60<181 445> 409 60<516.388 673.331>
AnchorPoint: "below" 293 180 basechar 0
AnchorPoint: "above" 290 790 basechar 0
LayerCount: 2
Fore
SplineSet
263 445 m 5xbc
 323 445 l 5
 323 181 l 5
 263 181 l 5
 263 445 l 5xbc
288 790 m 0
 377 790 469 725 469 599 c 0
 469 457 374 403 290 403 c 0
 205 403 111 468 111 595 c 0
 111 733 210 790 288 790 c 0
409 599 m 0
 409 668 362 724 287 724 c 0
 224 724 171 677 171 595 c 0
 171 520 226 469 291 469 c 0
 362 469 409 512 409 599 c 0
-0 475 m 1x7c
 228 475 l 1
 274 409 l 1
 -0 409 l 1
 -30 442 l 1
 -0 475 l 1x7c
EndSplineSet
Validated: 5
EndChar
StartChar: uni0242.init
Encoding: 65701 -1 229
Width: 510
Flags: W
HStem: 187 66<273 510> 315 47<213 273> 614 66<170.12 307.115>
VStem: 71 60<423.428 573.005> 213 60<253 362> 349 60<419.808 571.915>
AnchorPoint: "above" 240 681 basechar 0
AnchorPoint: "below" 249 180 basechar 0
LayerCount: 2
Back
SplineSet
213 442 m 5
 273 442 l 5
 273 253 l 5
 510 253 l 5
 540 220 l 5
 510 187 l 5
 213 187 l 5
 213 442 l 5
EndSplineSet
Fore
SplineSet
349 500 m 0
 349 567 306 614 237 614 c 0
 179 614 131 576 131 496 c 0
 131 423 181 381 241 381 c 0
 306 381 349 415 349 500 c 0
238 680 m 0
 321 680 409 624 409 500 c 0
 409 360 318 315 240 315 c 0
 177 315 71 371 71 496 c 0
 71 632 165 680 238 680 c 0
213 362 m 1
 273 362 l 1
 273 253 l 1
 510 253 l 1
 540 220 l 1
 510 187 l 1
 213 187 l 1
 213 362 l 1
EndSplineSet
Validated: 5
Substitution2: "mtl-1" uni0242.init.mtl
Substitution2: "toh-1" uni0242.init.toh
EndChar
StartChar: uni0242.init.mtl
Encoding: 65705 -1 233
Width: 530
Flags: W
HStem: -33 66<283 530> 95 45<223 283> 414 66<178.963 318.168>
VStem: 71 60<211.377 365.041> 223 60<33 140> 369 60<207.63 364.09>
AnchorPoint: "above" 250 481 basechar 0
AnchorPoint: "below" 259 -40 basechar 0
LayerCount: 2
Back
SplineSet
223 220 m 5
 283 220 l 5
 283 33 l 5
 530 33 l 5
 560 0 l 5
 530 -33 l 5
 223 -33 l 5
 223 220 l 5
EndSplineSet
Fore
SplineSet
223 140 m 1
 283 140 l 1
 283 33 l 1
 530 33 l 1
 560 0 l 1
 530 -33 l 1
 223 -33 l 1
 223 140 l 1
248 480 m 4
 337 480 429 416 429 290 c 4
 429 148 334 95 250 95 c 4
 165 95 71 159 71 286 c 4
 71 424 170 480 248 480 c 4
369 290 m 4
 369 359 322 414 247 414 c 4
 184 414 131 368 131 286 c 4
 131 211 186 161 251 161 c 4
 322 161 369 203 369 290 c 4
EndSplineSet
Validated: 5
EndChar
StartChar: uni0242.init.toh
Encoding: 65704 -1 232
Width: 590
Flags: W
HStem: -33 66<283 417.913> 95 45<223 283> 414 66<178.963 318.168>
VStem: 71 60<211.377 365.041> 223 60<33 140> 369 60<207.63 364.09>
AnchorPoint: "above" 250 481 basechar 0
AnchorPoint: "below" 259 -40 basechar 0
LayerCount: 2
Back
SplineSet
320 -33 m 5
 223 -33 l 5
 223 220 l 5
 283 220 l 5
 283 33 l 5
 320 33 l 5
 398 33 435.109450632 55.8332155915 472.889648438 110.049804688 c 6
 590 278.109375 l 5
 610 278.109375 l 5
 590 169.634765625 l 5
 520.536132812 69.9501953125 l 6
 478.397426136 9.47877270609 416 -33 320 -33 c 5
EndSplineSet
Fore
SplineSet
320 -33 m 1
 223 -33 l 1
 223 140 l 5
 283 140 l 5
 283 33 l 1
 320 33 l 1
 398 33 435.109450632 55.8332155915 472.889648438 110.049804688 c 2
 590 278.109375 l 1
 610 278.109375 l 1
 590 169.634765625 l 1
 520.536132812 69.9501953125 l 2
 478.397426136 9.47877270609 416 -33 320 -33 c 1
248 480 m 0
 337 480 429 416 429 290 c 0
 429 148 334 95 250 95 c 0
 165 95 71 159 71 286 c 0
 71 424 170 480 248 480 c 0
369 290 m 0
 369 359 322 414 247 414 c 0
 184 414 131 368 131 286 c 0
 131 211 186 161 251 161 c 0
 322 161 369 203 369 290 c 0
EndSplineSet
Validated: 5
EndChar
StartChar: uni0242.medi.fml
Encoding: 65706 -1 234
Width: 630
Flags: W
HStem: 187 66<353 630> 403 50<293 353> 442.036 20G<186.583 263.555> 724 66<248.963 388.168>
VStem: 141 60<520.147 674.271> 293 60<253 453> 439 60<516.388 673.331>
AnchorPoint: "below" 329 182 basechar 0
AnchorPoint: "above" 320 790 basechar 0
LayerCount: 2
Back
SplineSet
293 523 m 5
 353 523 l 5
 353 255 l 5
 630 255 l 5
 660 222 l 5
 630 189 l 5
 293 189 l 5
 293 523 l 5
EndSplineSet
Fore
SplineSet
0 170 m 1xbe
 -20 170 l 25
 0 278 l 1
 70.7643440985 379.765866275 140.166078021 436.11139336 233 462.035903642 c 1
 310 411.635353769 l 1
 198.870885193 402.444199696 129.897904152 359.468917522 0 170 c 1xbe
318 790 m 0
 407 790 499 725 499 599 c 0
 499 457 404 403 320 403 c 0xde
 235 403 141 468 141 595 c 0
 141 733 240 790 318 790 c 0
439 599 m 0
 439 668 392 724 317 724 c 0
 254 724 201 677 201 595 c 0
 201 520 256 469 321 469 c 0
 392 469 439 512 439 599 c 0
293 453 m 1
 353 453 l 1
 353 253 l 5
 630 253 l 5
 660 220 l 5
 630 187 l 5
 293 187 l 5
 293 453 l 1
EndSplineSet
Validated: 5
EndChar
StartChar: uni0242.medi
Encoding: 65702 -1 230
Width: 640
Flags: W
HStem: 0 247<263 344> 181 40<263 323> 187 66<0 0 231 368.341 529.98 640> 480 66<220.12 357.115>
VStem: 121 60<289.428 439.005> 263 60<71 221> 399 60<285.808 437.915>
AnchorPoint: "below" 299 -7 basechar 0
AnchorPoint: "above" 290 547 basechar 0
LayerCount: 2
Back
SplineSet
263 301 m 5
 323 301 l 5
 323 71 l 5
 419 209 514 253 640 253 c 5
 670 220 l 5
 640 187 l 5
 534.307692308 187 443 140 344 0 c 5
 263 0 l 5
 263 301 l 5
EndSplineSet
Fore
SplineSet
263 221 m 5x5e
 323 221 l 5x5e
 323 71 l 5
 419 209 514 253 640 253 c 5
 670 220 l 5
 640 187 l 5x3e
 534.307692308 187 443 140 344 0 c 5
 263 0 l 5x9e
 263 221 l 5x5e
0 253 m 1x3e
 228 253 l 1
 274 187 l 1
 0 187 l 1
 -30 220 l 1
 0 253 l 1x3e
399 366 m 0
 399 433 356 480 287 480 c 0
 229 480 181 442 181 362 c 0
 181 289 231 247 291 247 c 0x9e
 356 247 399 281 399 366 c 0
288 546 m 0
 371 546 459 490 459 366 c 0
 459 226 368 181 290 181 c 0x5e
 227 181 121 237 121 362 c 0
 121 498 215 546 288 546 c 0
EndSplineSet
Validated: 5
Substitution2: "htm-1" uni0242.medi.htm
Substitution2: "mtl-1" uni0242.medi.mtl
Substitution2: "fml-1" uni0242.medi.fml
EndChar
StartChar: uni0242.medi.htm
Encoding: 65708 -1 236
Width: 600
Flags: WO
HStem: 187 66<323 600> 403 40<263 323> 409 66<0 0 228 372.575> 724 66<218.963 358.168>
VStem: 111 60<520.147 674.271> 263 60<253 443> 409 60<516.388 673.331>
AnchorPoint: "below" 299 182 basechar 0
AnchorPoint: "above" 290 790 basechar 0
LayerCount: 2
Back
SplineSet
263 523 m 5
 323 523 l 5
 323 255 l 5
 600 255 l 5
 630 222 l 5
 600 189 l 5
 263 189 l 5
 263 523 l 5
EndSplineSet
Fore
SplineSet
263 443 m 1xde
 323 443 l 1
 323 253 l 5
 600 253 l 5
 630 220 l 5
 600 187 l 5
 263 187 l 5
 263 443 l 1xde
288 790 m 0
 377 790 469 725 469 599 c 0
 469 457 374 403 290 403 c 0
 205 403 111 468 111 595 c 0
 111 733 210 790 288 790 c 0
409 599 m 0
 409 668 362 724 287 724 c 0
 224 724 171 677 171 595 c 0
 171 520 226 469 291 469 c 0
 362 469 409 512 409 599 c 0
-0 475 m 1xbe
 228 475 l 1
 274 409 l 1
 -0 409 l 1
 -30 442 l 1
 -0 475 l 1xbe
EndSplineSet
Validated: 5
EndChar
StartChar: uni0242.medi.mtl
Encoding: 65707 -1 235
Width: 600
Flags: W
HStem: -33 66<323 600> 181 40<263 323> 187 66<0 0 231 368.341> 480 66<220.12 357.115>
VStem: 121 60<289.428 439.005> 263 60<33 221> 399 60<285.808 437.915>
AnchorPoint: "below" 299 -40 basechar 0
AnchorPoint: "above" 290 547 basechar 0
LayerCount: 2
Back
SplineSet
263 301 m 5
 323 301 l 5
 323 33 l 5
 600 33 l 5
 630 0 l 5
 600 -33 l 5
 263 -33 l 5
 263 301 l 5
EndSplineSet
Fore
SplineSet
263 221 m 5xde
 323 221 l 5
 323 33 l 1
 600 33 l 1
 630 0 l 1
 600 -33 l 1
 263 -33 l 1
 263 221 l 5xde
0 253 m 1xbe
 228 253 l 1
 274 187 l 1
 0 187 l 1
 -30 220 l 1
 0 253 l 1xbe
399 366 m 0
 399 433 356 480 287 480 c 0
 229 480 181 442 181 362 c 0
 181 289 231 247 291 247 c 0
 356 247 399 281 399 366 c 0
288 546 m 0
 371 546 459 490 459 366 c 0
 459 226 368 181 290 181 c 0xde
 227 181 121 237 121 362 c 0
 121 498 215 546 288 546 c 0
EndSplineSet
Validated: 5
EndChar
StartChar: v.fina
Encoding: 65647 -1 141
Width: 470
Flags: W
HStem: -109 66<181.543 322.189> 9 66<192.397 323.562> 187 66<0 174 236 399>
VStem: 98 60<-8.20442 142.314> 324 60<-37.1427 5.95605>
AnchorPoint: "above" 275 259 basechar 0
AnchorPoint: "below" 254 -110 basechar 0
LayerCount: 2
Fore
SplineSet
122 1.1708984375 m 1
 158.676757812 47.1767578125 216.078125 75 278 75 c 3
 340.072265625 75 384 38 384 -16 c 3
 384 -73 324.137695312 -109 266 -109 c 3
 174 -109 98 -51 98 57 c 3
 98 148 137 192 174 219 c 1
 236 200 l 1
 192 169 158 129 158 54 c 3
 158 -10 191 -43 266 -43 c 3
 303 -43 324 -31 324 -14 c 3
 324 2 302 9 278 9 c 3
 226.680664062 9 186.932617188 -8.169921875 163.771484375 -40 c 1
 122 1.1708984375 l 1
0 187 m 1
 -30 220 l 1
 0 253 l 1
 399 253 l 1
 399 187 l 1
 0 187 l 1
EndSplineSet
Validated: 5
Substitution2: "htm-1" v.fina.htm
EndChar
StartChar: v.fina.htm
Encoding: 65651 -1 145
Width: 470
Flags: W
HStem: 111 66<181.543 322.189> 229 66<192.397 323.562> 409 66<0 174 236 399> 419 20G<155.5 236>
VStem: 98 60<211.796 362.314> 324 60<182.857 225.956>
AnchorPoint: "above" 275 481 basechar 0
AnchorPoint: "below" 254 110 basechar 0
LayerCount: 2
Fore
SplineSet
0 409 m 1xec
 -30 442 l 1
 0 475 l 1
 399 475 l 1
 399 409 l 1
 0 409 l 1xec
121.999998032 221.170501032 m 1
 158.676601177 267.176872415 216.077671472 295 278 295 c 3
 340.072538211 295 384 258 384 204 c 3
 384 147 324.137695312 111 266 111 c 3
 174 111 98 169 98 277 c 3
 98 368 137 412 174 439 c 1xdc
 236 420 l 1
 192 389 158 349 158 274 c 3
 158 210 191 177 266 177 c 3
 303 177 324 189 324 206 c 3
 324 222 302 229 278 229 c 3
 226.680951141 229 186.932620544 211.830547097 163.771736942 180.000005658 c 1
 121.999998032 221.170501032 l 1
EndSplineSet
Validated: 5
EndChar
StartChar: v.init
Encoding: 65645 -1 139
Width: 710
Flags: W
HStem: -40 66<189.901 372.987> 129 66<200.284 323.026> 187 66<628.664 710> 247 66<189.115 323.611> 410 66<85 134.463 196.029 419> 437 20G<125.782 196.029>
VStem: 81 60<70.6294 206.193> 98 60<257.932 409.793> 324 60<198.615 243.956>
AnchorPoint: "above" 275 481 basechar 0
AnchorPoint: "below" 284 -40 basechar 0
LayerCount: 2
Fore
SplineSet
85 410 m 1x8880
 85 476 l 1
 419 476 l 5
 419 410 l 5
 85 410 l 1x8880
196.029296875 438 m 1
 171.598632812 407.279296875 158 366.565429688 158 312 c 3
 158 238 201 195 276 195 c 3
 313 195 324 207 324 224 c 3
 324 240 302 247 278 247 c 3xd580
 194 247 141 201.007041904 141 130 c 3
 141 75 191 26 274 26 c 3
 489 26 489 253 710 253 c 1
 740 220 l 1
 710 187 l 1
 534.307692308 187 511 -40 274 -40 c 3
 175 -40 81 23 81 130 c 3xa280
 81 233 173 313 278 313 c 3
 352 313 384 276 384 222 c 3
 384 165 341 129 276 129 c 3
 184 129 98 197 98 315 c 3
 98 375.709960938 117.1015625 420.469726562 134.462890625 457 c 1xd580
 196.029296875 438 l 1
EndSplineSet
Validated: 5
EndChar
StartChar: v.medi.fml
Encoding: 65648 -1 142
Width: 890
Flags: W
HStem: -40 66<369.901 552.987> 129 66<380.284 503.026> 187 66<808.664 890> 247 66<369.115 503.611> 414 66<223.625 592> 437 20G<326.731 416.029>
VStem: 261 60<70.6294 206.193> 278 60<257.932 394.823> 504 60<198.615 243.956>
AnchorPoint: "above" 455 481 basechar 0
AnchorPoint: "below" 464 -40 basechar 0
LayerCount: 2
Fore
SplineSet
416.029296875 438 m 1xd580
 358 417 338 366.565429688 338 312 c 3
 338 238 381 195 456 195 c 3
 493 195 504 207 504 224 c 3
 504 240 482 247 458 247 c 3xd580
 374 247 321 201.006835938 321 130 c 3
 321 75 371 26 454 26 c 3
 669 26 669 253 890 253 c 1
 920 220 l 1
 890 187 l 1
 714.307617188 187 691 -40 454 -40 c 3
 355 -40 261 23 261 130 c 3xa280
 261 233 353 313 458 313 c 3
 532 313 564 276 564 222 c 3
 564 165 521 129 456 129 c 3
 364 129 278 197 278 315 c 3
 278 375.709960938 299 430 354.462890625 457 c 1
 416.029296875 438 l 1xd580
0 170 m 5
 -20 170 l 29
 0 278 l 5
 105 429 207 480 387 480 c 5
 592 481 l 5
 592 414 l 5
 386 414 l 5x8880
 225 414 157 399 0 170 c 5
EndSplineSet
Validated: 5
EndChar
StartChar: v.medi
Encoding: 65646 -1 140
Width: 890
Flags: W
HStem: -40 66<369.901 552.987> 129 66<377.3 503.026> 188 66<0 83.9192 808.664 890> 247 66<369.115 503.611> 402 20G<331 433> 410 66<405.504 589>
VStem: 261 60<70.6294 206.193> 278 60<258.53 348.049> 504 60<198.615 243.956>
AnchorPoint: "above" 455 481 basechar 0
AnchorPoint: "below" 464 -40 basechar 0
LayerCount: 2
Fore
SplineSet
0 188 m 1xa480
 -30 220 l 1
 0 254 l 1
 171 254 193 476 589 476 c 1
 589 410 l 1
 193 410 209 188 0 188 c 1xa480
433 403 m 1
 371 392 338 363.565429688 338 309 c 3xd980
 338 235 381 195 456 195 c 3
 493 195 504 207 504 224 c 3
 504 240 482 247 458 247 c 3
 374 247 321 201.006835938 321 130 c 3
 321 75 371 26 454 26 c 3
 669 26 669 253 890 253 c 1
 920 220 l 1
 890 187 l 1
 714.307617188 187 691 -40 454 -40 c 3
 355 -40 261 23 261 130 c 3xda80
 261 233 353 313 458 313 c 3
 532 313 564 276 564 222 c 3
 564 165 521 129 456 129 c 3
 364 129 278 188 278 306 c 3
 278 366.709960938 311 403 351 422 c 1xd980
 433 403 l 1
EndSplineSet
Validated: 5
Substitution2: "htm-1" v.medi.htm
Substitution2: "mtl-1" v.medi.mtl
Substitution2: "fml-1" v.medi.fml
EndChar
StartChar: v.medi.htm
Encoding: 65650 -1 144
Width: 730
Flags: W
HStem: -40 66<209.901 392.987> 129 66<220.284 343.026> 187 66<648.664 730> 247 66<209.115 343.611> 410 66<0 154.463 216.029 439> 437 20G<145.782 216.029>
VStem: 101 60<70.6294 206.193> 118 60<257.932 409.793> 344 60<198.615 243.956>
AnchorPoint: "above" 295 481 basechar 0
AnchorPoint: "below" 304 -40 basechar 0
LayerCount: 2
Fore
SplineSet
0 410 m 1x8880
 -30 442 l 1
 0 476 l 1
 439 476 l 1
 439 410 l 1
 0 410 l 1x8880
216.029296875 438 m 1
 191.598632812 407.279296875 178 366.565429688 178 312 c 3
 178 238 221 195 296 195 c 3
 333 195 344 207 344 224 c 3
 344 240 322 247 298 247 c 3xd580
 214 247 161 201.006835938 161 130 c 3
 161 75 211 26 294 26 c 3
 509 26 509 253 730 253 c 1
 760 220 l 1
 730 187 l 1
 554.307617188 187 531 -40 294 -40 c 3
 195 -40 101 23 101 130 c 3xa280
 101 233 193 313 298 313 c 3
 372 313 404 276 404 222 c 3
 404 165 361 129 296 129 c 3
 204 129 118 197 118 315 c 3
 118 375.709960938 137.1015625 420.469726562 154.462890625 457 c 1xd580
 216.029296875 438 l 1
EndSplineSet
Validated: 5
EndChar
StartChar: v.medi.mtl
Encoding: 65649 -1 143
Width: 710
Flags: W
HStem: -234 66<205.402 395.893> -73 66<220.284 343.026> -33 66<624.961 710> 45 66<209.115 343.611> 188 66<0 154.463 216.029 439>
VStem: 101 60<-127.559 4.19269> 118 60<55.9324 186.534> 344 60<-3.38481 41.9561>
AnchorPoint: "above" 295 259 basechar 0
AnchorPoint: "below" 304 -234 basechar 0
LayerCount: 2
Fore
SplineSet
0 188 m 1x99
 -30 220 l 1
 0 254 l 1
 439 254 l 1
 439 188 l 1
 0 188 l 1x99
216.029296875 226 m 1
 191.598632812 195.279296875 178 164.565429688 178 110 c 3
 178 36 221 -7 296 -7 c 3xdb
 333 -7 344 5 344 22 c 3
 344 38 322 45 298 45 c 3
 214 45 161 -0.9931640625 161 -72 c 3
 161 -127 211 -168 294 -168 c 3
 499 -168 499 33 710 33 c 1
 740 0 l 1
 710 -33 l 1
 544.307617188 -33 521 -234 294 -234 c 3
 195 -234 101 -179 101 -72 c 3xbd
 101 31 193 111 298 111 c 3
 372 111 404 74 404 20 c 3
 404 -37 361 -73 296 -73 c 3
 204 -73 118 -5 118 113 c 3xdb
 118 173.709960938 137.1015625 208.469726562 154.462890625 245 c 1
 216.029296875 226 l 1
EndSplineSet
Validated: 5
EndChar
StartChar: w.fina
Encoding: 65654 -1 149
Width: 920
Flags: W
HStem: -70 21G<463 634.5> 187 66<0 132.778 406.704 513.678 747 880>
VStem: 336 60<107.913 177.088> 532 60<-2.00935 170.175> 686 61<26.6094 187>
LayerCount: 2
Fore
SplineSet
565 -34 m 1
 556 -45 533 -33 507 -17 c 1
 528 35 532 75 532 104 c 0
 532 169 492 192 460 192 c 0
 425 192 396 168 396 127 c 0
 396 66 449 25 519 -9 c 1
 497 -51 l 1
 415 6 336 43 336 127 c 0
 336 210 391 258 461 258 c 0
 536 258 592 205 592 104 c 0
 592 48 583 11 565 -34 c 1
0 187 m 1
 -30 220 l 1
 0 253 l 1
 340 253 367 -4 573 -4 c 3
 661 -4 685.209960938 35.9970703125 686 100 c 0
 686 181 686 236 686 253 c 1
 880 253 l 1
 880 187 l 1
 747 187 l 1
 747 178 747 153 747 94 c 0
 747 -5 696 -70 573 -70 c 3
 353 -70 294 187 0 187 c 1
EndSplineSet
Validated: 37
Substitution2: "ltm-1" w.fina.ltm
EndChar
StartChar: w.init
Encoding: 65652 -1 147
Width: 650
Flags: W
HStem: -40 66<193.461 404.519> 149 66<187.86 302.026> 187 66<490 650> 267 66<179.519 302.611> 461 20G<108 168>
VStem: 80 60<76.3916 225.786> 97 60<282.959 479.232> 108 60<337.851 481> 303 60<218.615 263.956> 470 60<86.1819 186.325>
AnchorPoint: "above" 274 481 basechar 0
AnchorPoint: "below" 263 -40 basechar 0
LayerCount: 2
Fore
SplineSet
650 187 m 1xb8c0
 490 187 l 1
 523 253 l 1
 650 253 l 1
 680 220 l 1
 650 187 l 1xb8c0
168 481 m 1xd9c0
 168 442 157 387 157 332 c 3
 157 258 185 215 255 215 c 3xdac0
 292 215 303 227 303 244 c 3
 303 260 281 267 257 267 c 3
 183 267 140 216 140 140 c 3
 140 70 196 26 293 26 c 3
 383 26 470 48.99609375 470 170 c 3
 470 184.142135624 468 197 466 203 c 1
 466 253 l 1
 523 253 l 1
 528 226 530 201 530 179 c 3
 530 -6.0029296875 418 -40 293 -40 c 3
 170 -40 80 16 80 140 c 3xbcc0
 80 253 162 333 257 333 c 3
 331 333 363 296 363 242 c 3
 363 185 320 149 255 149 c 3
 163 149 97 217 97 335 c 3xdac0
 97 396 108 445 108 481 c 1
 168 481 l 1xd9c0
EndSplineSet
Validated: 5
Substitution2: "mth-1" w.init.mth
Substitution2: "tol-1" w.init.tol
EndChar
StartChar: w.init.mth
Encoding: 65680 -1 208
Width: 650
Flags: W
HStem: -40 66<193.461 404.519> 149 66<187.86 302.026> 267 66<179.519 302.611> 409 66<490 650>
VStem: 80 60<76.3916 225.786> 97 60<282.959 479.232> 108 60<337.851 481> 303 60<218.615 263.956> 470 60<86.1819 473.575>
AnchorPoint: "above" 274 481 basechar 0
AnchorPoint: "below" 263 -40 basechar 0
LayerCount: 2
Fore
SplineSet
650 409 m 1xf180
 490 409 l 1
 523 475 l 1
 650 475 l 1
 680 442 l 1
 650 409 l 1xf180
530 179 m 3
 530 -6.0029296875 418 -40 293 -40 c 3
 170 -40 80 16 80 140 c 3xf980
 80 253 162 333 257 333 c 3
 331 333 363 296 363 242 c 3
 363 185 320 149 255 149 c 3
 163 149 97 217 97 335 c 3xf580
 97 396 108 445 108 481 c 1
 168 481 l 1xf380
 168 442 157 387 157 332 c 3xf580
 157 258 185 215 255 215 c 3
 292 215 303 227 303 244 c 3
 303 260 281 267 257 267 c 3
 183 267 140 216 140 140 c 3xf980
 140 70 196 26 293 26 c 3
 383 26 470 48.99609375 470 170 c 3
 470 184.142135624 468 399 466 425 c 1
 466 475 l 1
 523 475 l 1
 528 448 530 201 530 179 c 3
EndSplineSet
Validated: 5
EndChar
StartChar: w.init.tol
Encoding: 65679 -1 207
Width: 630
Flags: W
HStem: -40 66<193.461 404.519> 149 66<187.86 302.026> 267 66<179.519 302.611> 461 20G<108 168>
VStem: 80 60<76.3916 225.786> 97 60<282.959 479.232> 108 60<337.851 481> 303 60<218.615 263.956> 470 60<85.0783 292.223> 630 20<164.416 168.706>
AnchorPoint: "above" 274 481 basechar 0
AnchorPoint: "below" 263 -40 basechar 0
LayerCount: 2
Back
SplineSet
290 26 m 1
 290 -40 l 1
 182.905273438 -40 84 27.69140625 84 200 c 3
 84 381.001953125 175 480 316 480 c 3
 442.099609375 480 532 403 630 254 c 1
 650 168 l 1
 630 158 l 1
 476 360 422.237304688 414 319 414 c 3
 207.813476562 414 144 349.850585938 144 203 c 3
 144 63.30859375 211.094726562 26 290 26 c 1
EndSplineSet
Fore
SplineSet
525 258 m 1xf9c0
 530 231 530 201 530 179 c 3
 530 -6.0029296875 418 -40 293 -40 c 3
 170 -40 80 16 80 140 c 3xf9c0
 80 253 162 333 257 333 c 3
 331 333 363 296 363 242 c 3
 363 185 320 149 255 149 c 3
 163 149 97 217 97 335 c 3xf5c0
 97 396 108 445 108 481 c 1
 168 481 l 1xf3c0
 168 442 157 387 157 332 c 3xf5c0
 157 258 185 215 255 215 c 3
 292 215 303 227 303 244 c 3
 303 260 281 267 257 267 c 3
 183 267 140 216 140 140 c 3
 140 70 196 26 293 26 c 3
 383 26 470 48.99609375 470 170 c 3
 470 184.142135624 470 303 468 329 c 1
 525 329 l 17
 573 311 606.778280543 287 630 254 c 1
 650 168 l 1
 630 158 l 1
 571.936651584 237 551 254 525 258 c 1xf9c0
EndSplineSet
Validated: 5
EndChar
StartChar: w.medi
Encoding: 65653 -1 148
Width: 870
Flags: W
HStem: -70 21G<463 634.5> 187 66<0 132.778 406.704 513.678 747 870>
VStem: 336 60<107.913 177.088> 532 60<-2.00935 170.175> 686 61<26.6094 187>
LayerCount: 2
Fore
SplineSet
0 187 m 1
 -30 220 l 1
 0 253 l 1
 340 253 367 -4 573 -4 c 3
 661 -4 686 35.9921879768 686 100 c 0
 686 181 686 236 686 253 c 1
 870 253 l 1
 900 220 l 1
 870 187 l 1
 747 187 l 1
 747 178 747 153 747 94 c 0
 747 -5 696 -70 573 -70 c 3
 353 -70 294 187 0 187 c 1
565 -34 m 5
 556 -45 533 -33 507 -17 c 5
 528 35 532 75 532 104 c 4
 532 169 492 192 460 192 c 4
 425 192 396 168 396 127 c 4
 396 66 449 25 519 -9 c 5
 497 -51 l 5
 415 6 336 43 336 127 c 4
 336 210 391 258 461 258 c 4
 536 258 592 205 592 104 c 4
 592 48 583 11 565 -34 c 5
EndSplineSet
Validated: 37
Substitution2: "mth-1" w.medi.mth
Substitution2: "ltm-1" w.medi.ltm
EndChar
StartChar: w.medi.ltm
Encoding: 65655 -1 150
Width: 700
Flags: W
HStem: -33 66<0.000976562 349.314> 192 66<236.411 344.176 577 700>
VStem: 158 60<58.0787 173.037> 362 60<29.5875 172.405> 516 61<70.0732 187>
LayerCount: 2
Fore
SplineSet
0.0009765625 -33 m 1
 -29.9990234375 0 l 1
 0.0009765625 33 l 1
 161 33 239 26 355 26 c 3
 475 26 516 68 516 140 c 0
 516 184.058831689 516 236 516 253 c 1
 700 253 l 1
 730 220 l 1
 700 187 l 1
 577 187 l 1
 577 178 577 153 577 134 c 0
 577 25 513 -40 355 -40 c 3
 233 -40 157 -33 0.0009765625 -33 c 1
395 -34 m 5
 382 -32 363 -33 337 -17 c 5
 358 35 362 75 362 104 c 4
 362 179 322 192 290 192 c 4
 245 192 218 160 218 119 c 4
 218 58 279 12 349 -22 c 5
 269 -33 l 5
 213 5 158 39 158 123 c 4
 158 206 211 258 285 258 c 4
 360 258 422 215 422 104 c 4
 422 48 413 11 395 -34 c 5
EndSplineSet
Validated: 5
EndChar
StartChar: w.medi.mth
Encoding: 65656 -1 151
Width: 700
Flags: W
HStem: 187 66<0.000976562 349.314> 415 66<236.411 344.176 577 700>
VStem: 158 60<281.079 396.037> 362 60<251.547 395.405> 516 61<292.073 409>
LayerCount: 2
Fore
SplineSet
395 189 m 1
 382 191 363 190 337 206 c 1
 358 258 362 298 362 327 c 0
 362 402 322 415 290 415 c 0
 245 415 218 383 218 342 c 0
 218 281 279 235 349 201 c 1
 269 190 l 1
 213 228 158 262 158 346 c 0
 158 429 211 481 285 481 c 0
 360 481 422 438 422 327 c 0
 422 271 413 234 395 189 c 1
0.0009765625 187 m 1
 -29.9990234375 220 l 1
 0.0009765625 253 l 1
 161 253 239 248 355 248 c 3
 475 248 516 290 516 362 c 0
 516 406.05859375 516 458 516 475 c 1
 700 475 l 1
 730 442 l 1
 700 409 l 1
 577 409 l 1
 577 400 577 375 577 356 c 0
 577 247 513 182 355 182 c 3
 233 182 157 187 0.0009765625 187 c 1
EndSplineSet
Validated: 5
EndChar
StartChar: x.fina
Encoding: 65674 -1 171
Width: 570
Flags: W
HStem: -234 66<325.46 410.825> -66 66<220 291 323 407.963> 187 66<2 306>
VStem: 258 60<-160.755 -66.6297> 417 60<-161.043 -77.62>
AnchorPoint: "below" 356 -234 basechar 0
AnchorPoint: "above" 319 259 basechar 0
LayerCount: 2
Fore
SplineSet
477 -119 m 3
 477 -193.243164062 428 -234 368 -234 c 3
 310 -234 258 -194 258 -125 c 3
 258 -85.8816127593 267.962890625 -62.408203125 291 -36.4755859375 c 5
 361 -51.6822731334 l 1
 328.643832227 -66.7361566704 318 -90.5667096826 318 -122 c 3
 318 -150 340 -168 369 -168 c 3
 396 -168 417 -153 417 -120 c 3
 417 -78.98828125 391 -66 323 -66 c 1
 135 -66 l 1
 135 -5 l 1
 306 187 l 1
 2 187 l 1
 -30 220 l 1
 2 253 l 1
 391 253 l 1
 391 192 l 1
 220 0 l 1
 330 0 l 1
 429 0 477 -44.97265625 477 -119 c 3
EndSplineSet
Validated: 5
Substitution2: "htm-1" x.fina.htm
EndChar
StartChar: x.fina.htm
Encoding: 65678 -1 175
Width: 590
Flags: W
HStem: -40 66<279.898 376.531> 154 66<180 258 292 366.844> 409 66<0 266>
VStem: 208 60<37.9628 140.465> 387 60<36.4327 134.538>
AnchorPoint: "below" 316 -40 basechar 0
AnchorPoint: "above" 279 481 basechar 0
LayerCount: 2
Back
SplineSet
299.000976562 194 m 1
 398.000976562 194 446.000976562 149.02734375 446.000976562 75 c 3
 446.000976562 0.7568359375 397.000976562 -40 337.000976562 -40 c 3
 279.000976562 -40 227.000976562 0 227.000976562 69 c 3
 227.000976562 108.118164062 236.963867188 141.591796875 260.000976562 167.524414062 c 1
 330.000976562 142.317382812 l 1
 297.64453125 127.263671875 287.000976562 103.43359375 287.000976562 72 c 3
 287.000976562 44 309.000976562 26 338.000976562 26 c 3
 365.000976562 26 386.000976562 41 386.000976562 74 c 3
 386.000976562 115.01171875 360.000976562 128 292.000976562 128 c 1025
EndSplineSet
Fore
SplineSet
447 87 m 3
 447 8.7568359375 398 -40 328 -40 c 3
 270 -40 208 -2 208 79 c 3
 208 124.525770284 223.7421875 156.00390625 258 187.034179688 c 13
 327.999999411 167.113979615 l 17
 284.572967342 147.868301588 268 116.591447528 268 82 c 3
 268 54 290 26 329 26 c 3
 366 26 387 48 387 87 c 3
 387 134.01171875 348 154 292 154 c 1
 95 154 l 1
 95 215 l 1
 266 409 l 1
 0 409 l 1
 -30 442 l 1
 0 475 l 1
 351 475 l 1
 351 414 l 1
 180 220 l 1
 310 220 l 1
 394 220 447 164.02734375 447 87 c 3
EndSplineSet
Validated: 5
EndChar
StartChar: x.init
Encoding: 65672 -1 169
Width: 570
Flags: W
HStem: -40 66<259.898 356.905> 154 66<160 214.69> 187 66<305.221 570> 409 66<75 246>
VStem: 188 60<37.9628 139.53> 367 60<35.5825 123.873>
AnchorPoint: "below" 296 -40 basechar 0
AnchorPoint: "above" 259 481 basechar 0
LayerCount: 2
Fore
SplineSet
427 77 m 3xdc
 427 2.7568359375 378 -40 308 -40 c 3
 250 -40 188 -2 188 79 c 3
 188 175 258 253 424 253 c 2
 570 253 l 1xbc
 600 220 l 1xdc
 570 187 l 1
 429 187 l 2xbc
 293 187 248 139 248 82 c 3
 248 54 270 26 309 26 c 3
 346 26 367 48 367 81 c 3
 367 122.01171875 330 154 182 154 c 1
 75 154 l 1
 75 215 l 1
 246 409 l 1
 75 409 l 1
 75 475 l 1
 331 475 l 1
 331 414 l 1
 160 220 l 1
 190 220 l 1
 374 220 427 151.02734375 427 77 c 3xdc
EndSplineSet
Validated: 5
EndChar
StartChar: x.medi.fml
Encoding: 65675 -1 172
Width: 720
Flags: W
HStem: -40 66<409.898 506.905> 154 66<310 364.69> 187 66<455.221 720> 409 66<226.453 396>
VStem: 338 60<37.9628 139.53> 517 60<35.5825 123.873>
AnchorPoint: "below" 446 -40 basechar 0
AnchorPoint: "above" 409 481 basechar 0
LayerCount: 2
Fore
SplineSet
0 170 m 1x9c
 -20 170 l 25
 0 278 l 1
 105 429 217 475 397 475 c 1
 436 437 l 1
 396 409 l 1
 235 409 157 399 0 170 c 1x9c
397 475 m 1
 481 475 l 1
 481 414 l 1
 310 220 l 1
 340 220 l 1xdc
 524 220 577 151.02734375 577 77 c 3
 577 2.7568359375 528 -40 458 -40 c 3
 400 -40 338 -2 338 79 c 3
 338 175 408 253 574 253 c 2
 720 253 l 1xbc
 750 220 l 1xdc
 720 187 l 1
 579 187 l 2xbc
 443 187 398 139 398 82 c 3
 398 54 420 26 459 26 c 3
 496 26 517 48 517 81 c 3
 517 122.01171875 480 154 332 154 c 1
 225 154 l 1xdc
 225 215 l 1
 396 409 l 1
 397 475 l 1
EndSplineSet
Validated: 5
EndChar
StartChar: x.medi
Encoding: 65673 -1 170
Width: 760
Flags: W
HStem: -40 66<449.898 546.905> 154 66<350 404.69> 187 66<0 90.8818 495.221 760> 409 66<325.334 436>
VStem: 378 60<37.9628 139.53> 557 60<35.5825 123.873>
AnchorPoint: "below" 486 -40 basechar 0
AnchorPoint: "above" 449 481 basechar 0
LayerCount: 2
Fore
SplineSet
617 77 m 3xdc
 617 2.7568359375 568 -40 498 -40 c 3
 440 -40 378 -2 378 79 c 3
 378 175 448 253 614 253 c 2
 760 253 l 1xbc
 790 220 l 1xdc
 760 187 l 1
 619 187 l 2xbc
 483 187 438 139 438 82 c 3
 438 54 460 26 499 26 c 3
 536 26 557 48 557 81 c 3
 557 122.01171875 520 154 372 154 c 1
 265 154 l 1
 265 215 l 1
 436 409 l 1
 398 409 l 1
 246.435946224 409 214 186 20 186 c 1
 0 186 l 1
 -30 219 l 1
 0 252 l 1
 20 252 l 1
 160 252 210.643529315 475 408 475 c 1
 521 475 l 1
 521 414 l 1
 350 220 l 1
 380 220 l 1
 564 220 617 151.02734375 617 77 c 3xdc
EndSplineSet
Validated: 5
Substitution2: "htm-1" x.medi.htm
Substitution2: "mtl-1" x.medi.mtl
Substitution2: "fml-1" x.medi.fml
EndChar
StartChar: x.medi.htm
Encoding: 65677 -1 174
Width: 590
Flags: W
HStem: -33 66<150 468> 409 66<85 342>
AnchorPoint: "below" 316 -40 basechar 0
AnchorPoint: "above" 279 481 basechar 0
LayerCount: 2
Fore
SplineSet
447 77 m 3
 447 2.7568359375 398 -40 328 -40 c 3
 270 -40 208 -2 208 79 c 3
 208 175 278 253 444 253 c 2
 590 253 l 1
 620 220 l 1
 590 187 l 1
 449 187 l 2
 313 187 268 139 268 82 c 3
 268 54 290 26 329 26 c 3
 366 26 387 48 387 81 c 3
 387 122.01171875 350 154 202 154 c 1
 95 154 l 1
 95 215 l 1
 266 409 l 1
 0 409 l 1
 -30 442 l 1
 0 475 l 1
 351 475 l 1
 351 414 l 1
 180 220 l 1
 210 220 l 1
 394 220 447 151.02734375 447 77 c 3
EndSplineSet
Validated: 5
EndChar
StartChar: x.medi.mtl
Encoding: 65676 -1 173
Width: 590
Flags: W
HStem: -234 66<325.46 411.347> -66 66<220 274.517> -33 66<368.832 590> 187 66<2 306>
VStem: 258 60<-160.755 -67.1192> 417 60<-162.76 -84.2701>
AnchorPoint: "below" 356 -234 basechar 0
AnchorPoint: "above" 319 259 basechar 0
LayerCount: 2
Fore
SplineSet
477 -127 m 7xdc
 477 -196.243164062 428 -234 368 -234 c 7
 310 -234 258 -194 258 -125 c 7
 258 -29 318 33 484 33 c 6
 590 33 l 5xbc
 620 0 l 5xdc
 590 -33 l 5
 489 -33 l 6xbc
 353 -33 318 -65 318 -122 c 7
 318 -150 340 -168 369 -168 c 7
 396 -168 417 -156 417 -123 c 7
 417 -81.98828125 390 -66 242 -66 c 5
 135 -66 l 5
 135 -5 l 5
 306 187 l 5
 2 187 l 1
 -30 220 l 1
 2 253 l 1
 391 253 l 5
 391 192 l 5
 220 0 l 5
 250 0 l 5
 434 0 477 -52.97265625 477 -127 c 7xdc
EndSplineSet
Validated: 5
EndChar
StartChar: y.fina.hi
Encoding: 65664 -1 161
Width: 500
Flags: W
HStem: 181 66<220.771 313.338> 409 66<0 160.57 328.119 460> 683 66<179.569 273.018>
VStem: 111 60<573.139 674.3> 152 60<256.634 347.686> 283 60<569.095 673.055> 324 60<257.988 360.248>
AnchorPoint: "below" 258 181 basechar 0
AnchorPoint: "above" 239 749 basechar 0
LayerCount: 2
Fore
SplineSet
282 474 m 0xf4
 344 417 384 358 384 302 c 3
 384 231 335 181 265 181 c 3
 203 181 152 229 152 300 c 3
 152 397 268 475 434 475 c 2
 460 475 l 1
 460 409 l 1
 439 409 l 2
 273 409 212 346 212 298 c 3
 212 267 235 247 269 247 c 3
 301 247 324 272 324 302 c 3xea
 324 334 287 396 230 444 c 0
 174 491 111 557 111 627 c 3
 111 698 154 749 226 749 c 3
 294 749 343 705 343 620 c 3
 343 524 213 409 46 409 c 2
 -0 409 l 1
 -30 442 l 1
 -0 475 l 1
 41 475 l 2
 196 475 283 567 283 628 c 3
 283 662 260 683 224 683 c 3
 190 683 171 662 171 631 c 3
 171 583 236 516 282 474 c 0xf4
EndSplineSet
Validated: 5
EndChar
StartChar: y.fina.lo
Encoding: 65663 -1 160
Width: 500
Flags: W
HStem: -250 66<220.771 313.338> -33 66<0 178.42 319.906 460> 223 66<179.569 273.018>
VStem: 111 60<111.052 214.3> 152 60<-174.366 -87.153> 283 60<111.71 213.055> 324 60<-173.012 -80.0855>
AnchorPoint: "below" 258 -250 basechar 0
AnchorPoint: "above" 239 289 basechar 0
LayerCount: 2
Fore
SplineSet
281 16 m 0xf4
 348 -35 384 -73 384 -129 c 3
 384 -200 335 -250 265 -250 c 3
 203 -250 152 -202 152 -131 c 3
 152 -34 268 33 434 33 c 2
 460 33 l 1
 460 -33 l 1
 439 -33 l 2
 273 -33 212 -85 212 -133 c 3
 212 -164 235 -184 269 -184 c 3
 301 -184 324 -159 324 -129 c 3xea
 324 -97 292 -61 231 -18 c 0
 171 24 111 97 111 167 c 3
 111 238 154 289 226 289 c 3
 294 289 343 245 343 160 c 3
 343 64 223 -33 56 -33 c 2
 0 -33 l 1
 -30 0 l 1
 0 33 l 1
 51 33 l 2
 206 33 283 107 283 168 c 3
 283 202 260 223 224 223 c 3
 190 223 171 202 171 171 c 3
 171 123 231 54 281 16 c 0xf4
EndSplineSet
Validated: 5
EndChar
StartChar: y.init
Encoding: 65658 -1 155
Width: 500
Flags: W
HStem: -70 66<222.728 315.678> 187 66<40 178.42 313.539 500> 445 66<180.529 270.752>
VStem: 111 60<327.285 435.643> 152 60<7.13782 108.181> 283 60<334.894 432.862> 324 60<5.36029 128.559>
AnchorPoint: "below" 258 -70 basechar 0
AnchorPoint: "above" 239 511 basechar 0
LayerCount: 2
Fore
SplineSet
281 236 m 4xf4
 348 185 384 117 384 51 c 7
 384 -30 338 -70 268 -70 c 7
 210 -70 152 -32 152 49 c 7
 152 155 268 253 434 253 c 6
 500 253 l 5
 530 220 l 5
 500 187 l 5
 439 187 l 6
 273 187 212 104 212 52 c 7
 212 24 230 -4 269 -4 c 7
 306 -4 324 18 324 51 c 7xea
 324 107 292 159 231 202 c 4
 171 244 111 324 111 394 c 7
 111 461 152 511 224 511 c 7
 282 511 343 470 343 385 c 7
 343 289 223 187 56 187 c 6
 40 187 l 5
 40 253 l 5
 51 253 l 6
 206 253 283 331 283 388 c 7
 283 416 263 445 227 445 c 7
 193 445 171 424 171 394 c 7
 171 334 231 274 281 236 c 4xf4
EndSplineSet
Validated: 5
EndChar
StartChar: y.medi
Encoding: 65659 -1 156
Width: 500
Flags: W
HStem: -70 66<222.728 315.678> 187 66<0 178.42 313.539 500> 445 66<180.529 270.752>
VStem: 111 60<327.285 435.643> 152 60<7.13782 108.181> 283 60<334.894 432.862> 324 60<5.36029 128.559>
AnchorPoint: "above" 239 511 basechar 0
AnchorPoint: "below" 258 -70 basechar 0
LayerCount: 2
Fore
SplineSet
281 236 m 0xf4
 348 185 384 117 384 51 c 3
 384 -30 338 -70 268 -70 c 3
 210 -70 152 -32 152 49 c 3
 152 155 268 253 434 253 c 2
 500 253 l 1
 530 220 l 1
 500 187 l 1
 439 187 l 2
 273 187 212 104 212 52 c 3
 212 24 230 -4 269 -4 c 3
 306 -4 324 18 324 51 c 3xea
 324 107 292 159 231 202 c 0
 171 244 111 324 111 394 c 3
 111 461 152 511 224 511 c 3
 282 511 343 470 343 385 c 3
 343 289 223 187 56 187 c 2
 0 187 l 1
 -30 220 l 1
 0 253 l 1
 51 253 l 2
 206 253 283 331 283 388 c 3
 283 416 263 445 227 445 c 3
 193 445 171 424 171 394 c 3
 171 334 231 274 281 236 c 0xf4
EndSplineSet
Validated: 5
Substitution2: "hi-1" y.medi.hi
Substitution2: "lo-1" y.medi.lo
EndChar
StartChar: y.medi.lo
Encoding: 65661 -1 158
Width: 500
Flags: W
HStem: -250 66<220.771 313.338> -33 66<0 178.42 319.906 500> 223 66<179.569 273.018>
VStem: 111 60<111.052 214.3> 152 60<-174.366 -87.153> 283 60<111.71 213.055> 324 60<-173.012 -80.0855>
AnchorPoint: "below" 258 -250 basechar 0
AnchorPoint: "above" 239 289 basechar 0
LayerCount: 2
Fore
SplineSet
281 16 m 4xf4
 348 -35 384 -73 384 -129 c 7
 384 -200 335 -250 265 -250 c 7
 203 -250 152 -202 152 -131 c 7
 152 -34 268 33 434 33 c 6
 500 33 l 5
 530 0 l 5
 500 -33 l 5
 439 -33 l 6
 273 -33 212 -85 212 -133 c 7
 212 -164 235 -184 269 -184 c 7
 301 -184 324 -159 324 -129 c 7xea
 324 -97 292 -61 231 -18 c 4
 171 24 111 97 111 167 c 7
 111 238 154 289 226 289 c 7
 294 289 343 245 343 160 c 7
 343 64 223 -33 56 -33 c 6
 0 -33 l 5
 -30 0 l 5
 0 33 l 5
 51 33 l 6
 206 33 283 107 283 168 c 7
 283 202 260 223 224 223 c 7
 190 223 171 202 171 171 c 7
 171 123 231 54 281 16 c 4xf4
EndSplineSet
Validated: 5
EndChar
StartChar: z.fina
Encoding: 65667 -1 164
Width: 680
Flags: W
HStem: -14 66<461.65 561.148> 182 66<247.311 374.163> 187 66<0 140.876 445.476 566.897> 461 20G<163.271 233 382.615 445>
VStem: 173 60<297.355 481> 385 60<68.1076 161 254 481> 576 60<65.834 181.424>
AnchorPoint: "below" 449 -14 basechar 0
AnchorPoint: "above" 386 481 basechar 0
LayerCount: 2
Fore
SplineSet
426 226.076171875 m 1x9e
 452.293945312 248.234375 478.364257812 259 517 259 c 3
 589.338867188 259 636 197.434570312 636 123 c 3
 636 38.8193359375 591.984375 -14 508 -14 c 0
 430 -14 385 49.318359375 385 142 c 2
 385 481 l 1
 445 481 l 1
 445 138 l 2
 445 81.412109375 467.333007812 52 511 52 c 0
 552.046875 52 576 74.6240234375 576 127 c 3
 576 173.520507812 551.2421875 193 513 193 c 3
 485.892578125 193 456.6171875 181.587890625 441.21875 161 c 1
 426 226.076171875 l 1x9e
173 481 m 1
 233 481 l 1
 233 315 l 2
 233 270.153320312 261.706054688 248 298 248 c 0
 347.907226562 248 365.8203125 259 399.41015625 292.58984375 c 1
 438 254 l 1
 391.715820312 207.715820312 354.599609375 182 292 182 c 0xde
 231.4921875 182 173 230.973632812 173 308 c 2
 173 481 l 1
0 187 m 1xbe
 -30 220 l 1
 0 253 l 1
 68 253 l 2
 122.772724824 253 152.556640625 274.41015625 173.985351562 313.772460938 c 1
 225.178280746 268.868275994 l 1
 191.294637584 219.172266022 147.052201772 187 68 187 c 2
 0 187 l 1xbe
EndSplineSet
Validated: 5
Substitution2: "hi-1" z.fina.hi
Substitution2: "lo-1" z.fina.lo
EndChar
StartChar: z.fina.hi
Encoding: 65671 -1 168
Width: 680
Flags: W
HStem: 181 66<461.65 558.627> 383 21G<436.542 448.918> 404 66<247.311 374.163> 409 66<0 140.876 445.476 564.35>
VStem: 173 60<519.355 680> 385 60<264.22 383 476 680> 576 60<263.521 400.353>
AnchorPoint: "below" 449 181 basechar 0
AnchorPoint: "above" 386 680 basechar 0
LayerCount: 2
Fore
SplineSet
426 448.076171875 m 1xce
 452.293945312 470.234375 478.364257812 481 517 481 c 3
 589.338867188 481 636 415.434570312 636 331 c 3
 636 236.819335938 591.984375 181 508 181 c 0
 430 181 385 241.318359375 385 344 c 2
 385 680 l 1
 445 680 l 1
 445 340 l 2
 445 273.412109375 467.333007812 247 511 247 c 0
 552.046875 247 576 272.624023438 576 335 c 3
 576 391.520507812 551.2421875 415 513 415 c 3
 485.892578125 415 456.6171875 403.587890625 441.21875 383 c 1
 426 448.076171875 l 1xce
173 680 m 1
 233 680 l 1
 233 537 l 2
 233 492.153320312 261.706054688 470 298 470 c 0
 347.907226562 470 365.8203125 481 399.41015625 514.58984375 c 1
 438 476 l 1
 391.715820312 429.715820312 354.599609375 404 292 404 c 0xae
 231.4921875 404 173 452.973632812 173 530 c 2
 173 680 l 1
-0 409 m 1x9e
 -30 442 l 1
 -0 475 l 1
 68 475 l 2
 122.772460938 475 152.556640625 496.41015625 173.985351562 535.772460938 c 1
 225.178710938 490.868164062 l 1
 191.294921875 441.171875 147.051757812 409 68 409 c 2
 -0 409 l 1x9e
EndSplineSet
Validated: 5
EndChar
StartChar: z.fina.lo
Encoding: 65670 -1 167
Width: 680
Flags: W
HStem: -234 66<461.65 561.148> -38 66<247.311 374.163> -33 66<0 140.876 445.476 566.897>
VStem: 173 60<77.3552 259> 385 60<-151.892 -59 34 259> 576 60<-154.166 -38.5759>
AnchorPoint: "below" 449 -234 basechar 0
AnchorPoint: "above" 386 259 basechar 0
LayerCount: 2
Fore
SplineSet
426 6.076171875 m 1x9c
 452.293945312 28.234375 478.364257812 39 517 39 c 3
 589.338867188 39 636 -22.5654296875 636 -97 c 3
 636 -181.180664062 591.984375 -234 508 -234 c 0
 430 -234 385 -170.681640625 385 -78 c 2
 385 259 l 5
 445 259 l 5
 445 -82 l 2
 445 -138.587890625 467.333007812 -168 511 -168 c 0
 552.046875 -168 576 -145.375976562 576 -93 c 3
 576 -46.4794921875 551.2421875 -27 513 -27 c 3
 485.892578125 -27 456.6171875 -38.412109375 441.21875 -59 c 1
 426 6.076171875 l 1x9c
173 259 m 5
 233 259 l 5
 233 95 l 2
 233 50.1533203125 261.706054688 28 298 28 c 0
 347.907226562 28 365.8203125 39 399.41015625 72.58984375 c 1
 438 34 l 1
 391.715820312 -12.2841796875 354.599609375 -38 292 -38 c 0xdc
 231.4921875 -38 173 10.9736328125 173 88 c 2
 173 259 l 5
0 -33 m 1xbc
 -30 0 l 1
 0 33 l 1
 68 33 l 2
 122.772460938 33 152.556640625 54.41015625 173.985351562 93.7724609375 c 1
 225.178710938 48.8681640625 l 1
 191.294921875 -0.828125 147.051757812 -33 68 -33 c 2
 0 -33 l 1xbc
EndSplineSet
Validated: 5
EndChar
StartChar: z.init
Encoding: 65665 -1 162
Width: 674
Flags: W
HStem: -14 66<395.65 495.616> 150 66<145.796 276.535> 187 66<358 674> 461 20G<73 133 319 379>
VStem: 73 60<229.698 481> 319 60<68.1076 187 275.422 481> 358 21<187 253> 510 60<66.0265 183.832>
AnchorPoint: "above" 320 481 basechar 0
AnchorPoint: "below" 349 -14 basechar 0
LayerCount: 2
Fore
SplineSet
73 481 m 5xd9
 133 481 l 5
 133 283 l 6
 133 238.153320312 156.706054688 216 198 216 c 4
 247.907226562 216 281.383789062 234.973632812 321.83203125 275.421875 c 5
 366.421875 230.83203125 l 5
 320.137695312 184.547851562 254.599609375 150 192 150 c 4
 121.4921875 150 73 198.973632812 73 276 c 6
 73 481 l 5xd9
358 187 m 5xbb
 358 253 l 5
 674 253 l 5
 704 220 l 5
 674 187 l 5
 358 187 l 5xbb
319 481 m 5x9d
 379 481 l 5
 379 138 l 6
 379 81.412109375 401.333007812 52 445 52 c 4
 486.046875 52 510 76.6240234375 510 119 c 4
 510 165.78515625 485.76171875 193.760742188 443.963867188 221.616210938 c 6
 437.1484375 226.158203125 l 5
 491.30078125 227.439453125 514.99609375 228 514.99609375 228 c 5
 549.564453125 203.060546875 570 169.365234375 570 115 c 4
 570 40.8193359375 525.984375 -14 442 -14 c 4
 364 -14 319 49.318359375 319 142 c 6
 319 481 l 5x9d
EndSplineSet
Validated: 5
EndChar
StartChar: z.medi
Encoding: 65666 -1 163
Width: 740
Flags: W
HStem: -14 66<461.65 561.616> 187 66<0 140.876 244.205 380.048 438 740> 461 20G<163.271 233 382.615 445>
VStem: 173 60<297.355 481> 385 60<68.1076 187 254 481> 576 60<66.0265 183.832>
AnchorPoint: "below" 449 -14 basechar 0
AnchorPoint: "above" 386 481 basechar 0
LayerCount: 2
Fore
SplineSet
424 187 m 1
 424 253 l 1
 740 253 l 1
 770 220 l 1
 740 187 l 1
 424 187 l 1
385 481 m 1
 445 481 l 1
 445 138 l 2
 445 81.412109375 467.333007812 52 511 52 c 0
 552.046875 52 576 76.6240234375 576 119 c 0
 576 165.78515625 551.76171875 193.760742188 509.963867188 221.616210938 c 2
 503.1484375 226.158203125 l 1
 557.30078125 227.439453125 580.99609375 228 580.99609375 228 c 1
 615.564453125 203.060546875 636 169.365234375 636 115 c 0
 636 40.8193359375 591.984375 -14 508 -14 c 0
 430 -14 385 49.318359375 385 142 c 2
 385 481 l 1
173 481 m 1
 233 481 l 1
 233 315 l 2
 233 270.153320312 261.706054688 248 298 248 c 0
 347.907226562 248 365.8203125 259 399.41015625 292.58984375 c 1
 438 254 l 1
 391.715820312 207.715820312 354.599609375 182 292 182 c 0
 231.4921875 182 173 230.973632812 173 308 c 2
 173 481 l 1
0 187 m 1
 -30 220 l 1
 0 253 l 1
 68 253 l 2
 122.772724824 253 152.556640625 274.41015625 173.985351562 313.772460938 c 1
 225.178280746 268.868275994 l 1
 191.294637584 219.172266022 147.052201772 187 68 187 c 2
 0 187 l 1
EndSplineSet
Validated: 5
Substitution2: "hi-1" z.medi.hi
Substitution2: "lo-1" z.medi.lo
EndChar
StartChar: z.medi.hi
Encoding: 65669 -1 166
Width: 740
Flags: W
HStem: 181 66<461.65 561.616> 409 66<0 140.876 244.205 380.048 438 509.964 580.996 740> 409 14<503.148 503.148 509.964 580.996>
VStem: 173 60<519.355 680> 385 60<263.108 409 476 680> 576 60<261.026 378.832>
AnchorPoint: "below" 449 181 basechar 0
AnchorPoint: "above" 386 680 basechar 0
LayerCount: 2
Back
SplineSet
466 441 m 5
 435 414 412 382.790039062 412 326 c 4
 412 269.479492188 459.7578125 247 498 247 c 7
 544.095703125 247 582 280 582 335 c 7
 582 371.73046875 559.586914062 409.080078125 535 437.99609375 c 5
 600.236328125 450 l 5
 620.514648438 416.458007812 642 375.766601562 642 327 c 7
 642 234.044921875 576.037109375 181 494 181 c 7
 421.661132812 181 352 236.565429688 352 321 c 4
 352 399 388.791992188 437 402 458 c 5
 466 441 l 5
EndSplineSet
Fore
SplineSet
424 409 m 1xbc
 424 475 l 1
 740 475 l 1
 770 442 l 1
 740 409 l 1xdc
 424 409 l 1xbc
385 680 m 1
 445 680 l 1
 445 333 l 2
 445 276.412109375 467.333007812 247 511 247 c 0
 552.046875 247 576 271.624023438 576 314 c 0
 576 360.78515625 551.76171875 388.760742188 509.963867188 416.616210938 c 2
 503.1484375 421.158203125 l 1
 580.99609375 423 l 1xbc
 615.564453125 398.060546875 636 364.365234375 636 310 c 0
 636 235.819335938 591.984375 181 508 181 c 0
 430 181 385 244.318359375 385 337 c 2
 385 680 l 1
173 680 m 1
 233 680 l 1
 233 537 l 2
 233 492.153320312 261.706054688 470 298 470 c 0
 347.907226562 470 365.8203125 481 399.41015625 514.58984375 c 1
 438 476 l 1
 391.715820312 429.715820312 354.599609375 404 292 404 c 0
 231.4921875 404 173 452.973632812 173 530 c 2
 173 680 l 1
-0 409 m 1xdc
 -30 442 l 1
 -0 475 l 1
 68 475 l 2
 122.772460938 475 152.556640625 496.41015625 173.985351562 535.772460938 c 1
 225.178710938 490.868164062 l 1
 191.294921875 441.171875 147.051757812 409 68 409 c 2
 -0 409 l 1xdc
EndSplineSet
Validated: 5
EndChar
StartChar: z.medi.lo
Encoding: 65668 -1 165
Width: 740
Flags: W
HStem: -234 66<461.65 561.616> -33 66<0 140.876 244.205 380.048 438 740> -33 41<503.148 503.148 509.964 580.996>
VStem: 173 60<77.3552 259> 385 60<-151.892 -33 34 259> 576 60<-153.974 -36.1676>
AnchorPoint: "below" 449 -234 basechar 0
AnchorPoint: "above" 386 259 basechar 0
LayerCount: 2
Fore
SplineSet
424 -33 m 1xbc
 424 33 l 1
 740 33 l 1
 770 0 l 1
 740 -33 l 1xdc
 424 -33 l 1xbc
385 259 m 1
 445 259 l 1
 445 -82 l 2
 445 -138.587890625 467.333007812 -168 511 -168 c 0
 552.046875 -168 576 -143.375976562 576 -101 c 0
 576 -54.21484375 551.76171875 -26.2392578125 509.963867188 1.6162109375 c 2
 503.1484375 6.158203125 l 1
 580.99609375 8 l 1xbc
 615.564453125 -16.939453125 636 -50.634765625 636 -105 c 0
 636 -179.180664062 591.984375 -234 508 -234 c 0
 430 -234 385 -170.681640625 385 -78 c 2
 385 259 l 1
173 259 m 1
 233 259 l 1
 233 95 l 2
 233 50.1533203125 261.706054688 28 298 28 c 0
 347.907226562 28 365.8203125 39 399.41015625 72.58984375 c 1
 438 34 l 1
 391.715820312 -12.2841796875 354.599609375 -38 292 -38 c 0
 231.4921875 -38 173 10.9736328125 173 88 c 2
 173 259 l 1
0 -33 m 1xdc
 -30 0 l 1
 0 33 l 1
 68 33 l 2
 122.772460938 33 152.556640625 54.41015625 173.985351562 93.7724609375 c 1
 225.178710938 48.8681640625 l 1
 191.294921875 -0.828125 147.051757812 -33 68 -33 c 2
 0 -33 l 1xdc
EndSplineSet
Validated: 5
EndChar
StartChar: zcaron.fina
Encoding: 65697 -1 225
Width: 640
Flags: W
HStem: 187 66<0 76.3058> 341 66<469 607> 407 66<283.447 390.274> 614 66<280.84 388.336>
VStem: 409 60<407 429 491.502 592.25>
AnchorPoint: "below" 357 181 basechar 0
AnchorPoint: "above" 333 680 basechar 0
LayerCount: 2
Back
SplineSet
0 253 m 5x98
 128 253 l 5
 104 187 l 5
 0 187 l 5
 -30 220 l 5
 0 253 l 5x98
163.999023438 187 m 5
 103.999023438 187 l 5
 103.999023438 304.078125 116.560546875 402.509765625 178.387695312 543 c 4
 210.752929688 616.54296875 248.784179688 680 334.999023438 680 c 4
 411.999023438 680 468.999023438 628 468.999023438 524 c 6
 468.999023438 407 l 5
 606.999023438 407 l 5
 606.999023438 341 l 5
 408.999023438 341 l 5xd8
 408.999023438 428.89453125 l 5
 387.2890625 411.936523438 364.572265625 407 330.999023438 407 c 4xb8
 284.001953125 407 236.999023438 434 217.999023438 483 c 5
 171.999023438 395 163.999023438 273.891601562 163.999023438 187 c 5
EndSplineSet
Fore
SplineSet
262 543 m 0xb8
 262 504 297 473 337 473 c 0
 377 473 409 503 409 540 c 0
 409 581 379 614 333 614 c 0
 290 614 262 582 262 543 c 0xb8
0 187 m 1
 -30 220 l 1
 0 253 l 1
 71 253 90 268 119 363 c 0
 136 417 153 472 179 541 c 0
 207.428710938 616.444335938 249 680 335 680 c 0
 412 680 469 628 469 524 c 2
 469 407 l 1
 607 407 l 1
 607 341 l 1
 409 341 l 1xd8
 409 429 l 1
 387 412 365 407 331 407 c 0
 284 407 237 434 218 483 c 1
 203 445 188.724548106 393.800512 176 349 c 0
 139.360536913 220 104 187 0 187 c 1
EndSplineSet
Validated: 1
Substitution2: "ltm-1" zcaron.fina.ltm
EndChar
StartChar: zcaron.fina.ltm
Encoding: 65700 -1 228
Width: 660
Flags: W
HStem: -33 66<0 85.7115> 141 66<489 627> 207 66<303.037 410.274> 414 66<301.745 408.336>
VStem: 429 60<207 229 291.502 392.25>
AnchorPoint: "below" 357 -39 basechar 0
AnchorPoint: "above" 353 480 basechar 0
LayerCount: 2
Back
SplineSet
281.999023438 343 m 4
 281.999023438 304 316.999023438 273 356.999023438 273 c 4
 396.999023438 273 428.999023438 303 428.999023438 340 c 4
 428.999023438 381 398.999023438 414 352.999023438 414 c 4
 310.025390625 414 281.999023438 382.135742188 281.999023438 343 c 4
103.999023438 -33 m 5
 0 -33 l 5
 -30 0 l 5
 0 33 l 5
 107.3068095 33 l 5
 117.017403856 131.903863763 147.973330831 238.443109365 198.387695312 353 c 4
 230.752929688 426.54296875 268.784179688 480 354.999023438 480 c 4
 431.999023438 480 488.999023438 428 488.999023438 324 c 6
 488.999023438 207 l 5
 626.999023438 207 l 5
 626.999023438 141 l 5
 428.999023438 141 l 5
 428.999023438 228.89453125 l 5
 407.2890625 211.936523438 384.572265625 207 350.999023438 207 c 4
 304.001953125 207 253.999023438 236 234.999023438 285 c 5
 188.999023438 197 163.999023438 53.8916015625 163.999023438 -33 c 5
 104 -33 l 5
 103.999023438 -33 l 5
EndSplineSet
Fore
SplineSet
282 343 m 0xb8
 282 304 317 273 357 273 c 0
 397 273 429 303 429 340 c 0
 429 381 399 414 353 414 c 0
 310 414 282 382 282 343 c 0xb8
0 -33 m 1
 -30 0 l 1
 0 33 l 1
 82 33 103 49 132 146 c 0
 149 204 168 266 191 330 c 0
 221 412 259 480 355 480 c 0
 432 480 489 428 489 324 c 2
 489 207 l 1
 627 207 l 1
 627 141 l 1
 429 141 l 1xd8
 429 229 l 1
 407 212 385 207 351 207 c 0
 304 207 254 236 235 285 c 1
 220 243 203 186 188 131 c 0
 156 18 126 -33 0 -33 c 1
EndSplineSet
Validated: 1
EndChar
StartChar: zcaron.init
Encoding: 65695 -1 223
Width: 620
Flags: W
HStem: -70 21G<64 124> 187 66<449 620> 228 66<263.448 370.301> 435 66<261.007 368.336>
VStem: 64 60<-70 123.951> 389 60<312.502 413.25>
AnchorPoint: "below" 317 -38 basechar 0
AnchorPoint: "above" 313 495 basechar 0
LayerCount: 2
Fore
SplineSet
124 -70 m 1xbc
 64 -70 l 1
 64 47.078125 96.5615234375 223.509765625 158.388671875 364 c 0
 190.75390625 437.54296875 228.78515625 501 315 501 c 0
 392 501 449 449 449 345 c 2
 449 253 l 1
 620 253 l 1
 650 220 l 1
 620 187 l 1
 389 187 l 1xdc
 389 249.89453125 l 1
 367.290039062 232.936523438 344.573242188 228 311 228 c 0
 264.002929688 228 217 255 198 304 c 1
 152 216 124 16.8916015625 124 -70 c 1xbc
242 364 m 0
 242 325 277 294 317 294 c 0xbc
 357 294 389 324 389 361 c 0
 389 402 359 435 313 435 c 0
 270.026367188 435 242 403.135742188 242 364 c 0
EndSplineSet
Validated: 1
EndChar
StartChar: zcaron.medi
Encoding: 65696 -1 224
Width: 660
Flags: W
HStem: 187 66<0 82.4493 499 660> 388 66<298.009 415.971> 615 66<295.748 413.021>
VStem: 439 60<253 413 477.451 588.61>
AnchorPoint: "below" 357 180 basechar 0
AnchorPoint: "above" 353 681 basechar 0
LayerCount: 2
Back
SplineSet
272 534 m 4
 272 485 312 454 357 454 c 4
 402 454 439 484 439 531 c 4
 439 582 405 615 349 615 c 4
 306.026367188 615 272 583.135742188 272 534 c 4
0 253 m 1
 128 253 l 1
 104 187 l 1
 0 187 l 1
 -30 220 l 1
 0 253 l 1
164 187 m 1
 104 187 l 1
 104 294.078125 126.561523438 393.509765625 188.388671875 534 c 0
 220.75390625 607.54296875 261.78515625 681 355 681 c 0
 438 681 499 619 499 515 c 2
 499 253 l 1
 660 253 l 1
 690 220 l 1
 660 187 l 1
 439 187 l 1
 439 412.89453125 l 1
 417.290039062 395.936523438 384.573242188 388 351 388 c 0
 301.002929688 388 248 420 228 474 c 1
 182 386 164 263.891601562 164 187 c 1
EndSplineSet
Fore
SplineSet
272 534 m 0
 272 485 312 454 357 454 c 0
 402 454 439 484 439 531 c 0
 439 582 405 615 349 615 c 0
 306 615 272 583 272 534 c 0
0 187 m 1
 -30 220 l 1
 0 253 l 1
 71 253 96.4052734375 269.869140625 122 342 c 0
 144 404 162 457 189 531 c 0
 217 607 262 681 355 681 c 0
 438 681 499 619 499 515 c 2
 499 253 l 1
 660 253 l 1
 690 220 l 1
 660 187 l 1
 439 187 l 1
 439 413 l 1
 417 396 385 388 351 388 c 0
 301 388 251 418 229 467 c 1
 213 424 198 380 182 327 c 0
 147 210 92 187 0 187 c 1
EndSplineSet
Validated: 1
Substitution2: "hi-1" zcaron.medi.hi
Substitution2: "lo-1" zcaron.medi.lo
EndChar
StartChar: zcaron.medi.hi
Encoding: 65699 -1 227
Width: 630
Flags: W
HStem: 409 66<0 86.9434 459 630> 531 66<273.037 380.274> 738 66<271.451 378.336>
VStem: 399 60<475 553 615.502 716.25>
AnchorPoint: "below" 305 403 basechar 0
AnchorPoint: "above" 323 804 basechar 0
LayerCount: 2
Back
SplineSet
-0 475 m 5
 128 475 l 5
 104 409 l 5
 -0 409 l 5
 -30 442 l 5
 -0 475 l 5
163.999023438 409 m 5
 103.999023438 409 l 5
 103.999023438 506.078125 125.69921875 580 168.387695312 677 c 4
 200.752929688 750.54296875 248.784179688 804 324.999023438 804 c 4
 401.999023438 804 458.999023438 752 458.999023438 648 c 6
 458.999023438 475 l 5
 629.999023438 475 l 5
 660 442 l 5
 629.999023438 409 l 5
 398.999023438 409 l 5
 398.999023438 552.89453125 l 5
 377.2890625 535.936523438 354.572265625 531 320.999023438 531 c 4
 274.001953125 531 223.999023438 564 204.999023438 613 c 5
 176 554 163.999023438 485.891601562 163.999023438 409 c 5
EndSplineSet
Fore
SplineSet
252 667 m 0
 252 628 287 597 327 597 c 0
 367 597 399 627 399 664 c 0
 399 705 369 738 323 738 c 0
 280 738 252 706 252 667 c 0
-0 409 m 1
 -30 442 l 1
 -0 475 l 1
 64 475 98.4168985027 490.198583195 114 535 c 0
 130 581 148 623 169 677 c 0
 198.221679688 752.140625 249 804 325 804 c 0
 402 804 459 752 459 648 c 2
 459 475 l 1
 630 475 l 1
 660 442 l 1
 630 409 l 1
 399 409 l 1
 399 553 l 1
 377 536 355 531 321 531 c 0
 274 531 224 564 205 613 c 1
 195 585 183 553 172 523 c 0
 146 443 118 409 -0 409 c 1
EndSplineSet
Validated: 1
EndChar
StartChar: zcaron.medi.lo
Encoding: 65698 -1 226
Width: 660
Flags: W
HStem: -33 66<0 81.6308 499 660> 188 66<298.009 415.971> 415 66<295.748 413.021>
VStem: 439 60<33 213 277.451 388.61>
AnchorPoint: "below" 357 -40 basechar 0
AnchorPoint: "above" 353 475 basechar 0
LayerCount: 2
Back
SplineSet
0 -33 m 5
 -30 0 l 5
 0 33 l 5
 82 33 103 49 132 146 c 4
 149 204 168 266 191 330 c 4
 221 412 259 480 355 480 c 4
 432 480 489 428 489 324 c 6
 489 207 l 5
 627 207 l 5
 627 141 l 5
 429 141 l 5
 429 229 l 5
 407 212 385 207 351 207 c 4
 304 207 254 236 235 285 c 5
 220 243 203 186 188 131 c 4
 156 18 126 -33 0 -33 c 5
0 33 m 1
 128 33 l 1
 104 -33 l 1
 0 -33 l 1
 -30 0 l 1
 0 33 l 1
164 -33 m 1
 104 -33 l 1
 104 74.078125 126.561523438 193.509765625 188.388671875 334 c 0
 220.75390625 407.54296875 261.78515625 481 355 481 c 0
 438 481 499 419 499 315 c 2
 499 33 l 1
 660 33 l 1
 690 0 l 1
 660 -33 l 1
 439 -33 l 1
 439 212.89453125 l 1
 417.290039062 195.936523438 384.573242188 188 351 188 c 0
 301.002929688 188 248 220 228 274 c 1
 182 186 164 43.8916015625 164 -33 c 1
272 334 m 0
 272 285 312 254 357 254 c 0
 402 254 439 284 439 331 c 0
 439 382 405 415 349 415 c 0
 306.026367188 415 272 383.135742188 272 334 c 0
EndSplineSet
Fore
SplineSet
272 334 m 0
 272 285 312 254 357 254 c 0
 402 254 439 284 439 331 c 0
 439 382 405 415 349 415 c 0
 306 415 272 383 272 334 c 0
0 -33 m 1
 -30 0 l 1
 0 33 l 1
 62 33 94 41 123 132 c 0
 143 194 162 257 189 331 c 0
 217 407 262 481 355 481 c 0
 438 481 499 419 499 315 c 2
 499 33 l 1
 660 33 l 1
 690 0 l 1
 660 -33 l 1
 439 -33 l 1
 439 213 l 1
 417 196 385 188 351 188 c 0
 301 188 251 218 229 267 c 1
 214 224 200 170 184 117 c 0
 141 -25 72 -33 0 -33 c 1
EndSplineSet
Validated: 1
EndChar
